<?xml version="1.0" encoding="UTF-8"?>
<svg version="1.1" viewBox="0 0 1000 707" xmlns="http://www.w3.org/2000/svg">
<g transform="translate(-.60606 .00041675)">
<svg width="1e3" height="707" data-background-color="#ffffff" viewBox="0 0 396 280" xmlns="http://www.w3.org/2000/svg" xmlns:xlink="http://www.w3.org/1999/xlink">
<g transform="translate(.24 .00016505)">
<svg width="395.52" height="280" viewBox="0 0 395.52 280">
<svg width="395.52" height="280" viewBox="0 0 395.52 280">
<svg width="395.52" height="280" viewBox="0 0 395.52 280">
<svg width="395.52" height="280" viewBox="0 0 395.52 280">
<svg width="395.52" height="280" viewBox="0 0 395.52 280">
<g transform="translate(121.21 74.003)">
<svg width="153.11" height="131.99" viewBox="0 0 153.10811093381457 131.99326582148888">
<svg class="icon-ef-0" width="153.11" height="131.99" enable-background="new 0 0 100 100" data-fill-palette-color="accent" version="1.1" viewBox="13.3261719 18.383788999999997 73.3476562 63.232422" xml:space="preserve" xmlns="http://www.w3.org/2000/svg" xmlns:xlink="http://www.w3.org/1999/xlink"><g fill="#31c48d" data-fill-palette-color="accent"><path d="m85.924 78.971h-10.076v-6.98l2.499-2.473c0.676 0.478 1.476 0.743 2.321 0.743 1.079 0 2.093-0.42 2.856-1.183 1.409-1.409 1.821-5.908 1.89-6.795 0.017-0.218-0.063-0.433-0.218-0.588-0.155-0.154-0.366-0.24-0.588-0.217-0.888 0.068-5.387 0.48-6.796 1.889-1.378 1.378-1.55 3.513-0.515 5.08l-1.449 1.434v-9.098l2.189-2.167c0.733 0.636 1.65 0.998 2.631 0.999 1.079 0 2.093-0.42 2.856-1.183 1.409-1.409 1.821-5.908 1.89-6.796 0.017-0.218-0.063-0.433-0.218-0.588-0.155-0.154-0.366-0.234-0.588-0.217-0.888 0.068-5.387 0.48-6.796 1.889-1.275 1.275-1.499 3.19-0.709 4.711l-1.255 1.241v-7.894l2.544-2.517c0.666 0.457 1.451 0.707 2.276 0.707 1.079 0 2.093-0.42 2.856-1.183 1.409-1.409 1.821-5.908 1.89-6.796 0.017-0.218-0.063-0.433-0.218-0.588-0.155-0.154-0.372-0.234-0.588-0.217-0.888 0.068-5.387 0.48-6.796 1.89-1.392 1.392-1.549 3.554-0.478 5.124l-1.486 1.47v-8.582c1.869-0.353 3.289-1.992 3.289-3.963 0-1.993-2.89-5.465-3.47-6.142-0.285-0.332-0.854-0.332-1.138 0-0.58 0.676-3.469 4.149-3.469 6.142 0 1.97 1.42 3.609 3.288 3.963v8.582l-1.485-1.47c1.07-1.571 0.913-3.732-0.479-5.124-1.41-1.409-5.908-1.821-6.796-1.89-0.213-0.017-0.433 0.063-0.588 0.217-0.155 0.155-0.234 0.37-0.217 0.588 0.068 0.888 0.48 5.387 1.89 6.796 0.763 0.763 1.777 1.183 2.855 1.183 0.825 0 1.61-0.25 2.277-0.707l2.543 2.517v7.894l-1.254-1.241c0.789-1.521 0.565-3.436-0.71-4.711-1.41-1.409-5.908-1.821-6.796-1.889-0.219-0.022-0.433 0.063-0.588 0.217-0.155 0.155-0.234 0.37-0.217 0.588 0.068 0.888 0.48 5.387 1.89 6.796 0.763 0.763 1.777 1.183 2.855 1.183 0.98 0 1.897-0.362 2.631-0.998l2.189 2.166v9.098l-1.449-1.434c1.035-1.567 0.863-3.702-0.515-5.08-1.409-1.41-5.908-1.822-6.796-1.889-0.219-0.021-0.433 0.063-0.588 0.217-0.155 0.155-0.234 0.37-0.217 0.588 0.068 0.888 0.48 5.387 1.89 6.795 0.763 0.763 1.777 1.183 2.855 1.183 0.845 0 1.645-0.265 2.321-0.743l2.499 2.473v6.98h-23.997v-8.831l3.236-3.202c0.825 0.621 1.815 0.973 2.866 0.974 1.281 0 2.485-0.499 3.391-1.405 1.727-1.727 2.224-7.588 2.274-8.251 0.017-0.218-0.063-0.433-0.217-0.588-0.154-0.154-0.365-0.241-0.588-0.217-0.663 0.051-6.525 0.548-8.251 2.274-0.906 0.905-1.405 2.11-1.405 3.391 0 1.001 0.314 1.95 0.879 2.751l-2.185 2.163v-11.678l2.854-2.824c0.888 0.823 2.029 1.287 3.248 1.286 1.281 0 2.485-0.499 3.391-1.404 1.727-1.726 2.224-7.588 2.274-8.251 0.017-0.218-0.063-0.433-0.217-0.588s-0.365-0.237-0.588-0.217c-0.663 0.051-6.525 0.548-8.251 2.274-0.906 0.906-1.405 2.11-1.405 3.391 0 0.827 0.228 1.613 0.62 2.317l-1.926 1.906v-10.197l3.29-3.256c0.814 0.594 1.784 0.928 2.812 0.928 1.281 0 2.485-0.499 3.391-1.405 1.727-1.726 2.224-7.588 2.274-8.25 0.017-0.218-0.063-0.433-0.217-0.588s-0.365-0.238-0.588-0.217c-0.663 0.051-6.525 0.548-8.251 2.274-0.906 0.906-1.405 2.11-1.405 3.391 0 1.025 0.332 1.993 0.924 2.806l-2.23 2.207v-11.127c2.287-0.363 4.045-2.332 4.045-4.72 0-2.441-3.793-6.938-4.226-7.442-0.143-0.166-0.351-0.262-0.569-0.262s-0.427 0.096-0.569 0.262c-0.433 0.505-4.227 5.001-4.227 7.442 0 2.388 1.759 4.357 4.046 4.72v11.127l-2.232-2.209c1.358-1.874 1.208-4.507-0.479-6.195-1.727-1.726-7.588-2.223-8.251-2.274-0.221-0.021-0.433 0.063-0.588 0.217s-0.234 0.37-0.217 0.588c0.051 0.663 0.548 6.524 2.274 8.25 0.906 0.906 2.11 1.405 3.391 1.405 1.027 0 1.997-0.334 2.812-0.928l3.29 3.256v10.197l-1.927-1.907c1.009-1.823 0.762-4.161-0.784-5.707-1.727-1.727-7.588-2.224-8.251-2.274-0.221-0.019-0.433 0.063-0.588 0.217-0.155 0.155-0.234 0.37-0.217 0.588 0.051 0.663 0.548 6.525 2.274 8.251 0.906 0.906 2.11 1.405 3.391 1.404 1.218 0 2.359-0.464 3.248-1.286l2.854 2.824v11.678l-2.187-2.165c1.314-1.87 1.147-4.47-0.524-6.14-1.727-1.727-7.588-2.224-8.251-2.274-0.221-0.023-0.433 0.063-0.588 0.217-0.155 0.155-0.234 0.37-0.217 0.588 0.051 0.663 0.548 6.524 2.274 8.251 0.906 0.906 2.11 1.405 3.391 1.405 1.051 0 2.041-0.352 2.867-0.974l3.235 3.202v8.831h-12.7c-0.414 0-0.75 0.336-0.75 0.75s0.336 0.75 0.75 0.75h49.773c0.414 0 0.75-0.336 0.75-0.75s-0.336-0.75-0.75-0.75zm-7.051-14.543c0.644-0.644 3.041-1.143 4.958-1.367-0.224 1.916-0.723 4.312-1.368 4.957-0.924 0.924-2.504 0.948-3.476 0.091-0.033-0.059-0.062-0.119-0.111-0.169-0.043-0.043-0.096-0.067-0.146-0.098-0.832-0.996-0.792-2.479 0.143-3.414zm0-10.647c0.644-0.644 3.041-1.142 4.958-1.367-0.224 1.916-0.722 4.312-1.368 4.957-0.907 0.907-2.443 0.945-3.419 0.138-0.358-0.283-0.526-0.488-0.732-0.993-0.363-0.914-0.177-1.997 0.561-2.735zm0-10.647c0.644-0.644 3.041-1.143 4.958-1.367-0.224 1.917-0.722 4.313-1.368 4.958-0.959 0.959-2.631 0.959-3.59 0-0.99-0.99-0.99-2.601 0-3.591zm-11.14 3.591c-0.644-0.644-1.143-3.041-1.367-4.958 1.916 0.224 4.313 0.723 4.958 1.367 0.99 0.99 0.99 2.601 0 3.591-0.959 0.959-2.632 0.959-3.591 0zm0 10.646c-0.644-0.644-1.143-3.041-1.367-4.957 1.916 0.224 4.313 0.722 4.958 1.367 0.738 0.738 0.924 1.821 0.561 2.735-0.254 0.598-0.366 0.728-0.732 0.993-0.976 0.807-2.513 0.769-3.42-0.138zm0 10.647c-0.644-0.644-1.143-3.041-1.367-4.957 1.916 0.224 4.313 0.722 4.958 1.367 0.935 0.935 0.975 2.419 0.143 3.415-0.05 0.031-0.103 0.055-0.146 0.097-0.049 0.05-0.078 0.11-0.111 0.169-0.972 0.857-2.553 0.833-3.477-0.091zm4.827-31.895c0-0.911 1.342-2.958 2.538-4.472 1.197 1.514 2.539 3.561 2.539 4.472 0 1.4-1.139 2.539-2.539 2.539s-2.538-1.139-2.538-2.539zm-18.437 24.663c0.886-0.886 4.098-1.5 6.416-1.756-0.255 2.318-0.869 5.53-1.756 6.416-1.202 1.202-3.259 1.232-4.52 0.113-0.035-0.074-0.076-0.147-0.138-0.209-0.054-0.055-0.119-0.089-0.183-0.123-0.5-0.593-0.785-1.327-0.785-2.111 0-0.881 0.343-1.708 0.966-2.33zm0-13.098c0.886-0.886 4.098-1.5 6.416-1.755-0.255 2.318-0.869 5.53-1.756 6.416-1.209 1.209-3.284 1.234-4.543 0.095-0.393-0.383-0.607-0.616-0.787-1.077-0.189-0.419-0.295-0.874-0.296-1.348 0-0.88 0.343-1.708 0.966-2.331zm0-13.097c0.886-0.886 4.098-1.5 6.416-1.755-0.254 2.318-0.869 5.529-1.756 6.416-1.245 1.245-3.416 1.245-4.66 0-0.623-0.623-0.965-1.45-0.966-2.33s0.343-1.708 0.966-2.331zm-13.705 4.661c-0.886-0.886-1.5-4.097-1.754-6.416 2.318 0.254 5.529 0.869 6.416 1.755 1.285 1.285 1.285 3.376 0 4.661-1.246 1.245-3.416 1.245-4.662 0zm0 13.097c-0.886-0.886-1.5-4.098-1.754-6.416 2.318 0.255 5.53 0.869 6.416 1.755 0.993 0.994 1.21 2.466 0.666 3.678-0.224 0.444-0.475 0.784-0.784 1.078-1.259 1.139-3.334 1.114-4.544-0.095zm0 13.097c-0.886-0.886-1.5-4.098-1.754-6.416 2.318 0.255 5.53 0.869 6.416 1.756 1.217 1.217 1.266 3.15 0.177 4.443-0.063 0.034-0.127 0.068-0.18 0.121-0.061 0.062-0.102 0.135-0.138 0.209-1.261 1.119-3.318 1.089-4.521-0.113zm5.887-39.358c0-1.253 1.837-3.958 3.296-5.778 1.459 1.819 3.295 4.523 3.295 5.778 0 1.817-1.479 3.296-3.295 3.296-1.817 0-3.296-1.478-3.296-3.296z" data-fill-palette-color="accent"/><path d="m22.589 18.899c-0.284-0.253-0.712-0.253-0.996 0l-8.015 7.124c-0.16 0.142-0.252 0.346-0.252 0.561v20.78c0 0.414 0.336 0.75 0.75 0.75h6.994v2.825h-1.82c-0.395 0-0.723 0.307-0.749 0.702l-1.906 29.176c-0.013 0.207 0.06 0.41 0.201 0.562 0.142 0.151 0.34 0.237 0.547 0.237h8.954c0.208 0 0.406-0.086 0.548-0.237s0.214-0.354 0.201-0.562l-1.906-29.176c-0.026-0.395-0.354-0.701-0.749-0.702h-1.821v-2.825h7.536c0.414 0 0.75-0.336 0.75-0.75v-20.78c0-0.214-0.092-0.418-0.252-0.561l-8.015-7.124zm-4.445 61.217 0.243-3.721h6.866l0.244 3.721h-7.353zm7.011-5.221h-6.67l1.468-22.456h3.735l1.467 22.456zm4.201-28.281h-6.786v-1.722h1.531c0.414 0 0.75-0.336 0.75-0.75s-0.336-0.75-0.75-0.75h-4.561c-0.414 0-0.75 0.336-0.75 0.75s0.336 0.75 0.75 0.75h1.53v1.722h-6.244v-19.693l7.265-6.458 7.265 6.458v19.693z" data-fill-palette-color="accent"/></g></svg>
</svg>
</g>
<path d="m84.12 94.441-1.73 5.224-1.419-0.47 0.583-1.761-6.769-2.243-2.917 8.804 6.769 2.243 0.632-1.907 1.419 0.469-1.728 5.214-1.418-0.47 0.554-1.672-15.241-5.05-0.554 1.673-1.418-0.47 1.727-5.214 1.419 0.47-0.632 1.907 6.926 2.295 2.917-8.804-6.926-2.295-0.584 1.761-1.418-0.47 1.643-4.959 1.419 0.47-0.522 1.574 15.241 5.05 0.609-1.839zm8.355-16.369-2.469 4.907-1.335-0.672 0.746-1.482-3.723-0.466-3.766 7.484 2.606 2.684 0.88-1.749 1.335 0.672-2.47 4.906-1.334-0.672 0.806-1.601-12.827-13.551 0.745-1.482 18.628 2.026 0.843-1.675zm-8.223 2.103-11.154-1.379 7.814 8.016zm-5.599-12.569-1.027 1.406-1.207-0.881 3.241-4.435 1.207 0.882-1.204 1.647 14.179 5.679-10.503-13.241 0.9-1.232 15.709 6.222-9.589-12.063-0.967 1.323-1.207-0.882 3.15-4.309 1.207 0.881-1.156 1.581 11.147 14.491-0.979 1.339-15.516-6.259 10.445 13.198-0.997 1.365zm34.751-15.153-3.877 3.862-1.055-1.058 1.249-1.244-11.237-11.28-2.833 2.822 1.556 1.985-1.094 0.785-2.538-3 8.798-8.764 3.012 2.527-0.811 1.114-2.001-1.542-2.87 2.859 11.237 11.279 1.409-1.403zm16.05-13.038-4.335 3.389-0.921-1.178 1.462-1.142-4.392-5.619-7.307 5.712 4.392 5.619 1.583-1.238 0.92 1.177-4.328 3.383-0.92-1.177 1.389-1.085-9.888-12.65-1.388 1.085-0.921-1.177 4.328-3.383 0.92 1.177-1.583 1.238 4.493 5.748 7.308-5.711-4.494-5.749-1.461 1.143-0.92-1.178 4.116-3.217 0.92 1.177-1.307 1.022 9.888 12.65 1.526-1.194zm-3.842-8.618c-1.477-2.558-1.991-4.979-1.54-7.262 0.45-2.283 1.666-3.997 3.647-5.141 4.635-2.676 8.567-1.218 11.797 4.374 1.47 2.546 1.976 4.948 1.518 7.204-0.459 2.256-1.685 3.959-3.678 5.11-4.634 2.676-8.549 1.248-11.744-4.285zm1.571-0.967c2.667 4.617 5.784 5.894 9.354 3.833 1.535-0.886 2.457-2.236 2.767-4.049 0.304-1.81-0.17-3.797-1.42-5.963-2.667-4.617-5.781-5.896-9.345-3.838-1.541 0.89-2.465 2.244-2.771 4.063-0.3 1.816 0.172 3.8 1.415 5.954zm12.878-16.006-1.534 0.632-0.569-1.382 6.06-2.495c1.728-0.711 3.217-0.886 4.466-0.523 1.251 0.369 2.184 1.3 2.799 2.792 0.408 0.991 0.485 2.163 0.232 3.516-0.262 1.348-0.65 2.355-1.164 3.02l6.647 4.83 1.782-0.733 0.569 1.381-2.763 1.138-7.453-5.379-3.649 1.502 2.404 5.842 1.83-0.754 0.569 1.382-5.079 2.091-0.569-1.382 1.534-0.631zm4.402-1.812-2.687 1.106 3.139 7.623 4.145-1.706c0.988-2.093 1.181-3.871 0.58-5.332-0.442-1.073-1.104-1.752-1.986-2.035-0.882-0.284-1.945-0.169-3.191 0.344zm12.814-4.593-1.688 0.431-0.37-1.448 3.615-0.923 14.599 13.396-3.835-14.602-1.718 0.438-0.369-1.448 5.032-1.285 0.37 1.448-1.658 0.423 4.343 17.004-1.927 0.493-14.622-13.401 3.838 14.612 2.007-0.512 0.37 1.448-5.332 1.361-0.37-1.448 1.687-0.431zm40.446 4.301-2.337 0.102-0.066-1.492 4.921-0.217 0.066 1.493-1.061 0.047 0.291 6.609c-0.304 0.117-1.118 0.29-2.442 0.52-1.324 0.237-2.404 0.374-3.242 0.411-0.83 0.037-1.557 7e-3 -2.18-0.09-0.623-0.089-1.286-0.308-1.989-0.655-0.703-0.354-1.309-0.833-1.817-1.436-0.508-0.604-0.95-1.44-1.327-2.51-0.371-1.078-0.588-2.34-0.652-3.788-0.141-3.206 0.483-5.74 1.873-7.603 1.455-1.948 3.514-2.981 6.177-3.098 0.817-0.036 1.705 1e-3 2.666 0.11 0.954 0.116 1.633 0.238 2.038 0.364l0.501 3.898-1.32 0.244-0.51-2.918c-1.171-0.203-2.275-0.281-3.311-0.236-2.045 0.09-3.635 0.924-4.769 2.5-1.127 1.576-1.628 3.795-1.502 6.658 0.054 1.235 0.229 2.307 0.523 3.215 0.295 0.916 0.639 1.619 1.032 2.111s0.87 0.869 1.432 1.134c0.886 0.449 1.919 0.647 3.1 0.596 1.18-0.052 2.534-0.229 4.061-0.53zm21.471 8.927-5.468-0.529 0.144-1.487 1.652 0.16-0.912-3.64-8.339-0.805-1.561 3.4 1.949 0.189-0.144 1.487-5.467-0.528 0.144-1.487 1.785 0.172 7.995-16.859 1.652 0.159 4.846 18.1 1.867 0.18zm-4.934-6.906-2.747-10.898-4.649 10.183zm11.126-9.571-1.615-0.38 0.342-1.455 6.38 1.5c1.819 0.428 3.131 1.152 3.936 2.174 0.802 1.029 1.019 2.329 0.65 3.9-0.246 1.044-0.865 2.041-1.858 2.994-0.998 0.944-1.9 1.536-2.704 1.778l2.592 7.797 1.876 0.441-0.342 1.454-2.909-0.683-2.928-8.713-3.842-0.903-1.445 6.15 1.926 0.453-0.342 1.454-5.347-1.257 0.342-1.454 1.615 0.379zm4.635 1.089-2.829-0.665-1.886 8.026 4.364 1.025c2.022-1.126 3.214-2.459 3.575-3.997 0.266-1.13 0.123-2.067-0.43-2.811-0.552-0.744-1.483-1.27-2.794-1.578zm13.009 3.654-1.553-0.583 0.525-1.399 6.136 2.302c2.297 0.862 3.887 2.218 4.77 4.068 0.883 1.851 0.76 4.281-0.369 7.291-1.115 2.972-2.432 5.014-3.949 6.124-1.334 0.975-2.966 1.295-4.895 0.96-0.848-0.165-1.809-0.448-2.884-0.851l-5.499-2.064 0.525-1.399 1.553 0.583zm4.458 1.672-2.721-1.02-5.64 15.032 2.084 0.782c2.258 0.847 3.968 1.012 5.131 0.494 1.224-0.524 2.242-1.478 3.054-2.86 0.48-0.811 0.937-1.792 1.369-2.943 0.955-2.547 1.09-4.599 0.405-6.155-0.686-1.556-1.913-2.666-3.682-3.33zm12.035 5.115-1.473-0.765 0.689-1.326 10.261 5.329-0.089 0.128-1.423 3.499-1.307-0.435 0.923-2.493-5.935-3.082-3.363 6.475 5.259 2.731 0.793-1.528 1.335 0.694-2.156 4.152-1.335-0.694 0.674-1.298-5.259-2.731-3.348 6.447 6.594 3.425 1.924-2.833 1.127 0.736-2.56 4.035-10.892-5.656 0.688-1.326 1.473 0.764zm13.744 7.791-1.428-0.998 0.856-1.224 3.058 2.137-0.626 19.803 8.563-12.433-1.453-1.016 0.856-1.225 4.258 2.976-0.856 1.224-1.403-0.979-10.053 14.385-1.63-1.14 0.616-19.824-8.57 12.442 1.698 1.187-0.856 1.225-4.511-3.153 0.856-1.224 1.428 0.997zm28.463 23.912c-1.407-1.487-3.077-2.143-5.011-1.968-1.93 0.18-3.935 1.254-6.016 3.223-0.898 0.85-1.595 1.684-2.089 2.501-0.499 0.822-0.805 1.543-0.92 2.161-0.114 0.619-0.087 1.228 0.081 1.825 0.241 0.964 0.76 1.868 1.558 2.711 1.237 1.308 2.617 2.476 4.138 3.504l-0.806 1.217c-0.287-0.153-0.951-0.655-1.992-1.505-1.046-0.846-1.857-1.573-2.433-2.182-0.571-0.604-1.024-1.172-1.36-1.707-0.34-0.529-0.609-1.173-0.806-1.932-0.193-0.763-0.228-1.535-0.104-2.314s0.466-1.661 1.028-2.646c0.572-0.986 1.384-1.977 2.437-2.973 2.331-2.205 4.655-3.392 6.973-3.561 2.425-0.176 4.553 0.704 6.385 2.64 0.562 0.594 1.116 1.29 1.663 2.088 0.537 0.797 0.89 1.39 1.059 1.778l-2.618 2.931-1.048-0.838 1.871-2.295c-0.613-1.018-1.277-1.904-1.99-2.658zm1.273 30.608-3.209-4.458 1.213-0.873 0.969 1.347 2.134-3.085-4.894-6.8-3.585 1.07 1.143 1.589-1.212 0.873-3.209-4.458 1.213-0.873 1.047 1.455 17.946-5.109 0.969 1.346-10.408 15.581 1.096 1.522zm1.937-8.263 6.38-9.253-10.721 3.222zm14.532 2.049-0.78-1.464 1.319-0.703 3.082 5.785c0.878 1.649 1.199 3.113 0.962 4.391-0.244 1.282-1.078 2.303-2.503 3.062-0.946 0.504-2.104 0.696-3.475 0.578-1.368-0.127-2.408-0.414-3.12-0.86l-4.15 7.092 0.906 1.701-1.319 0.703-1.405-2.638 4.617-7.947-1.856-3.484-5.575 2.97 0.93 1.747-1.319 0.702-2.583-4.847 1.319-0.703 0.78 1.464zm2.239 4.202-1.366-2.565-7.276 3.877 2.107 3.956c2.181 0.776 3.969 0.793 5.363 0.05 1.025-0.546 1.635-1.271 1.83-2.177 0.194-0.906-0.025-1.953-0.658-3.141zm5.828 12.1-0.599-1.547 1.393-0.54 4.174 10.783-0.152 0.037-3.381 1.684-0.693-1.19 2.341-1.26-2.414-6.237-6.804 2.633 2.139 5.526 1.605-0.621 0.543 1.403-4.363 1.689-0.543-1.403 1.364-0.528-2.138-5.526-6.776 2.622 2.682 6.929 3.317-0.852 0.358 1.297-4.589 1.334-4.43-11.446 1.394-0.539 0.599 1.547zm-256.33 107.09-1.731-5.223 1.419-0.47 0.583 1.761 6.77-2.243-2.917-8.804-6.77 2.242 0.632 1.908-1.418 0.47-1.728-5.214 1.419-0.47 0.554 1.673 15.241-5.05-0.555-1.673 1.419-0.47 1.727 5.214-1.418 0.47-0.632-1.907-6.926 2.295 2.917 8.804 6.926-2.295-0.583-1.761 1.418-0.47 1.643 4.96-1.418 0.47-0.522-1.575-15.241 5.049 0.61 1.839zm9.117 18.207-2.47-4.907 1.335-0.672 0.746 1.482 2.592-2.712-3.766-7.483-3.709 0.493 0.88 1.749-1.334 0.672-2.47-4.906 1.335-0.672 0.806 1.602 18.526-2.229 0.746 1.482-12.726 13.753 0.843 1.676zm3.21-7.857 7.753-8.137-11.094 1.5zm12.475-0.477-1.028-1.406 1.207-0.882 3.241 4.435-1.207 0.882-1.204-1.648-9.716 11.786 15.805-5.986 0.9 1.231-10.698 13.078 14.405-5.474-0.967-1.323 1.207-0.881 3.15 4.31-1.207 0.881-1.155-1.581-17.191 6.221-0.979-1.34 10.675-12.882-15.747 5.943-0.997-1.364zm7.795 37.475-3.877-3.862 1.054-1.059 1.249 1.244 11.237-11.28-2.833-2.822-1.979 1.564-0.789-1.092 2.99-2.549 8.797 8.764-2.515 3.022-1.117-0.807 1.534-2.007-2.869-2.858-11.237 11.28 1.409 1.403zm17.274 14.119-4.336-3.389 0.92-1.177 1.462 1.142 4.391-5.618-7.307-5.712-4.392 5.619 1.583 1.237-0.92 1.177-4.327-3.382 0.92-1.177 1.388 1.085 9.888-12.65-1.389-1.085 0.921-1.178 4.327 3.383-0.92 1.177-1.583-1.237-4.493 5.748 7.307 5.712 4.493-5.749-1.461-1.142 0.92-1.177 4.116 3.217-0.92 1.178-1.307-1.022-9.888 12.65 1.527 1.193zm7.204-6.722c1.477-2.558 3.317-4.213 5.52-4.964s4.295-0.554 6.276 0.59c4.635 2.676 5.337 6.81 2.108 12.403-1.471 2.546-3.297 4.185-5.481 4.915-2.183 0.731-4.271 0.521-6.264-0.63-4.634-2.677-5.354-6.781-2.159-12.314zm1.623 0.878c-2.666 4.616-2.214 7.955 1.356 10.017 1.534 0.886 3.165 1.01 4.89 0.372 1.719-0.641 3.204-2.045 4.454-4.21 2.666-4.617 2.217-7.954-1.346-10.012-1.541-0.89-3.176-1.013-4.904-0.369-1.723 0.647-3.206 2.048-4.45 4.202zm18.341 0.84-1.535-0.632 0.569-1.382 6.061 2.495c1.728 0.712 2.908 1.636 3.539 2.772 0.629 1.144 0.636 2.462 0.022 3.954-0.408 0.991-1.178 1.878-2.31 2.66-1.136 0.774-2.12 1.215-2.953 1.326l1.32 8.11 1.782 0.733-0.569 1.382-2.764-1.138-1.505-9.067-3.65-1.502-2.404 5.841 1.829 0.754-0.569 1.381-5.079-2.091 0.569-1.381 1.534 0.631zm4.402 1.812-2.687-1.106-3.139 7.623 4.146 1.707c2.175-0.791 3.564-1.917 4.165-3.378 0.442-1.074 0.45-2.022 0.023-2.844s-1.263-1.489-2.508-2.002zm9.949 3.643-1.687-0.431 0.369-1.448 3.615 0.923 6.389 18.755 3.635-14.653-1.717-0.439 0.37-1.447 5.032 1.285-0.37 1.448-1.657-0.424-4.343 17.004-1.927-0.492-6.406-18.77-3.638 14.663 2.007 0.513-0.37 1.447-5.332-1.361 0.37-1.448 1.687 0.431zm35.161 15.765-2.337-0.102 0.066-1.493 4.921 0.216-0.066 1.493-1.06-0.046-0.291 6.609c-0.313 0.089-1.14 0.191-2.479 0.304-1.339 0.12-2.427 0.161-3.265 0.124-0.83-0.036-1.552-0.13-2.164-0.281-0.612-0.144-1.254-0.419-1.923-0.827-0.67-0.415-1.231-0.945-1.684-1.59-0.453-0.646-0.82-1.518-1.102-2.617-0.275-1.106-0.38-2.383-0.316-3.831 0.141-3.205 0.985-5.675 2.533-7.408 1.62-1.813 3.762-2.661 6.425-2.544 0.817 0.036 1.699 0.15 2.646 0.343 0.94 0.2 1.606 0.381 1.998 0.542l0.157 3.927-1.336 0.127-0.252-2.951c-1.149-0.305-2.241-0.48-3.278-0.526-2.045-0.09-3.702 0.6-4.97 2.071-1.261 1.471-1.955 3.638-2.081 6.5-0.054 1.236 0.026 2.319 0.239 3.25 0.213 0.937 0.494 1.668 0.842 2.193 0.349 0.524 0.791 0.942 1.327 1.255 0.844 0.525 1.856 0.814 3.036 0.865 1.181 0.052 2.545-5e-3 4.093-0.17zm22.746 5.375-5.468 0.528-0.143-1.487 1.651-0.159-1.591-3.398-8.339 0.806-0.881 3.636 1.949-0.188 0.143 1.487-5.467 0.528-0.143-1.487 1.784-0.173 4.621-18.078 1.652-0.159 8.221 16.837 1.867-0.18zm-6.165-5.834-4.782-10.17-2.614 10.885zm6.131-12.155-1.615 0.379-0.342-1.454 6.381-1.5c1.819-0.427 3.316-0.363 4.491 0.194 1.177 0.563 1.95 1.63 2.32 3.202 0.245 1.043 0.135 2.212-0.33 3.507-0.473 1.29-1.016 2.222-1.629 2.797l5.794 5.826 1.876-0.441 0.342 1.455-2.909 0.683-6.502-6.496-3.843 0.903 1.446 6.15 1.926-0.453 0.342 1.455-5.347 1.257-0.342-1.455 1.615-0.38zm4.635-1.09-2.829 0.665 1.886 8.026 4.364-1.026c1.309-1.909 1.782-3.633 1.421-5.172-0.266-1.13-0.812-1.905-1.637-2.325-0.826-0.42-1.894-0.476-3.205-0.168zm10.377-2.854-1.554 0.583-0.525-1.399 6.137-2.302c2.296-0.862 4.386-0.886 6.268-0.074 1.883 0.813 3.389 2.724 4.518 5.735 1.115 2.971 1.467 5.375 1.054 7.21-0.364 1.611-1.382 2.925-3.055 3.942-0.747 0.434-1.658 0.853-2.732 1.256l-5.5 2.063-0.524-1.399 1.553-0.582zm4.457-1.672-2.721 1.021 5.641 15.032 2.084-0.782c2.257-0.847 3.654-1.848 4.189-3.003 0.577-1.2 0.717-2.588 0.419-4.164-0.171-0.926-0.473-1.965-0.905-3.116-0.956-2.547-2.203-4.181-3.743-4.902s-3.195-0.75-4.964-0.086zm9.679-4.065-1.472 0.764-0.689-1.326 10.261-5.329 0.053 0.147 2.045 3.176-1.108 0.819-1.508-2.189-5.936 3.083 3.363 6.475 5.259-2.731-0.793-1.528 1.335-0.693 2.156 4.152-1.335 0.693-0.675-1.298-5.258 2.731 3.348 6.447 6.594-3.424-1.211-3.203 1.251-0.499 1.829 4.415-10.893 5.657-0.688-1.326 1.472-0.765zm11.338-6.335-1.427 0.998-0.856-1.225 3.057-2.137 18.382 7.395-8.732-12.315-1.453 1.015-0.856-1.225 4.257-2.975 0.856 1.225-1.402 0.98 10.053 14.385-1.63 1.139-18.405-7.392 8.739 12.324 1.698-1.186 0.856 1.225-4.511 3.152-0.856-1.225 1.427-0.997zm25.118-21.109c-1.407 1.487-1.969 3.192-1.688 5.113 0.286 1.917 1.47 3.86 3.551 5.829 0.898 0.849 1.769 1.498 2.613 1.946 0.848 0.453 1.584 0.72 2.209 0.8 0.624 0.079 1.23 0.019 1.817-0.182 0.949-0.293 1.823-0.862 2.621-1.705 1.237-1.308 2.327-2.75 3.27-4.326l1.26 0.738c-0.138 0.295-0.602 0.986-1.394 2.072-0.786 1.091-1.467 1.941-2.043 2.55-0.572 0.604-1.115 1.088-1.629 1.452-0.51 0.369-1.138 0.673-1.885 0.912-0.752 0.235-1.52 0.312-2.304 0.231-0.785-0.08-1.685-0.373-2.7-0.88-1.016-0.516-2.05-1.272-3.103-2.269-2.33-2.205-3.644-4.46-3.941-6.765-0.31-2.411 0.451-4.585 2.284-6.522 0.561-0.593 1.225-1.185 1.992-1.775 0.766-0.58 1.338-0.965 1.717-1.156l3.071 2.452-0.779 1.093-2.395-1.741c-0.983 0.668-1.831 1.38-2.544 2.133zm27.973-7.844-3.209 4.458-1.212-0.873 0.969-1.347-3.603-1.045-4.895 6.8 2.152 3.06 1.144-1.589 1.213 0.873-3.209 4.458-1.213-0.873 1.048-1.455-10.541-15.397 0.969-1.346 18.079 4.925 1.096-1.522zm-8.451 0.786-10.799-3.114 6.459 9.144zm-5.091-12.627-0.781 1.464-1.318-0.702 3.081-5.785c0.879-1.649 1.915-2.732 3.109-3.248 1.199-0.513 2.512-0.39 3.936 0.369 0.946 0.504 1.752 1.358 2.419 2.561 0.657 1.207 1 2.23 1.027 3.07l8.201-0.512 0.906-1.701 1.319 0.703-1.405 2.637-9.172 0.602-1.855 3.484 5.575 2.97 0.93-1.746 1.319 0.702-2.583 4.848-1.319-0.703 0.781-1.464zm2.238-4.202-1.366 2.565 7.276 3.876 2.107-3.956c-0.572-2.243-1.555-3.736-2.949-4.479-1.025-0.546-1.968-0.647-2.828-0.304-0.86 0.344-1.607 1.11-2.24 2.298zm4.753-9.752-0.599 1.547-1.394-0.539 4.174-10.783 0.137 0.075 3.634 1.031-0.289 1.347-2.58-0.645-2.414 6.237 6.805 2.634 2.138-5.526-1.605-0.622 0.543-1.403 4.364 1.689-0.543 1.403-1.365-0.528-2.139 5.526 6.775 2.622 2.682-6.929-3.026-1.602 0.608-1.201 4.292 2.103-4.43 11.446-1.394-0.539 0.599-1.548zm-246.9-46.818c0-4.042 3.276-7.318 7.317-7.318 4.042 0 7.318 3.276 7.318 7.318 0 4.041-3.276 7.318-7.318 7.318-4.041 0-7.317-3.277-7.317-7.318zm259.7 0c0-4.042 3.276-7.318 7.318-7.318 4.041 0 7.317 3.276 7.317 7.318 0 4.041-3.276 7.318-7.317 7.318-4.042 0-7.318-3.277-7.318-7.318z" fill="#398378" data-fill-palette-color="primary"/>
</svg>
</svg>
</svg>
</svg>
</svg>
<rect width="395.52" height="280" fill="none" visibility="hidden"/>
</g>
</svg>
</g>
</svg>
