<?xml version="1.0" encoding="UTF-8"?>
<!DOCTYPE svg  PUBLIC '-//W3C//DTD SVG 20010904//EN'  'http://www.w3.org/TR/2001/REC-SVG-20010904/DTD/svg10.dtd'>
<svg width="315pt" height="315pt" version="1.0" viewBox="0 0 315 315" xmlns="http://www.w3.org/2000/svg">
<g transform="translate(0 315) scale(.1 -.1)">
<path d="m1890 3140c0-11 30-21 40-15 5 3 14-5 21-17l12-22 8 22c5 12 15 22 23 22 15 0 29-27 20-41-8-14 3-10 20 7 15 14 16 14 16 0 0-9-5-16-11-16-5 0-8-4-5-9 6-9-46-34-76-36-12-1-17 3-14 12 4 8-2 13-16 13-18 0-19-2-7-17 8-10 9-14 2-10-16 10-26-9-15-29 8-15 11-15 29 3 23 23 64 25 71 4 3-10 0-12-12-8-12 5-16 0-16-18 0-27-17-34-26-10-4 8-11 15-16 15-7 0-6-5 1-14 12-14 5-46-10-46-13 0-4-43 9-48 16-5 15-31-1-38-21-8-74 15-58 25 9 6 10 11 2 15-6 4-11 4-12-1 0-4-2-20-4-35-2-16 1-28 6-28s9-7 9-15-7-15-16-15c-8 0-12 5-9 10 3 6 2 10-4 10-5 0-11-4-13-9-1-5-10-11-18-13s-25-13-38-26c-12-13-27-20-33-17-6 4-13-2-16-13-3-13-13-19-29-19-18 0-22 3-15 11 6 7 7 23 4 36-5 18-3 22 8 18 12-4 15 3 15 30 0 19-2 30-4 23-2-6-9-8-14-5-7 4-8 2-4-4 16-26-25-10-53 20-27 29-33 31-51 20-11-6-26-12-35-12-21 0-40-39-26-53 16-16 14-40-3-34-8 3-17-1-20-9s-1-14 3-14c5 0 7-9 4-21-3-11-11-18-19-15-7 3-16 1-19-4-4-6-1-10 5-10s9-4 6-8c-2-4 4-8 15-8s18 6 16 15c-1 11 7 16 26 16 19 1 27-4 27-16 0-10-12-22-27-27-21-8-23-11-9-11 18-1 18-2 1-21-10-11-24-20-31-20-8 0-11-6-8-14s12-12 19-10c7 3 16 0 20-5 3-6 11-9 16-6 5 4 9-1 9-10 0-17-2-17-46 2-13 5-12-40 1-70 6-14 10-15 21-6 18 15 27 7 18-15-4-10-13-15-24-11-13 4-20-1-25-14-3-11-11-20-16-18-6 1-13-17-15-41-3-30-1-41 7-36 8 4 8 1 1-12-5-11-7-25-4-33s0-11-7-7c-6 4-11 16-11 27 0 10-5 19-11 19-7 0-10 13-7 35 3 24 1 31-7 25-7-6-15-7-18-3-4 3-7 1-7-6s-5-9-11-6c-5 4-8 12-6 18 2 7-2 20-11 30-10 11-11 17-4 17s12 5 12 10c0 6-12 8-28 5-15-2-40 2-55 10s-27 9-27 4c0-6-5-7-11-3-7 4-7 9-2 13 22 14 3 79-18 65-5-3-9-1-9 5 0 18 20 23 26 7 3-9 10-13 15-10s9 1 9-4c0-6 7-12 15-16 10-4 15 1 15 14s-7 20-20 20-20 7-20 19c0 21-25 35-43 25-9-5-9-4-1 5 6 7 20 14 30 15 24 4 27 17 8 41-12 16-18 18-34 7-25-16-25-16-27 8-1 14 9 25 35 36 37 16 37 17 12 24-14 5-19 8-12 9 6 1 12 8 12 16 0 13-4 12-22-4-20-19-22-19-35-3-8 9-11 11-7 3 5-9 3-12-5-7-8 6-6 16 9 40 23 38 26 60 8 51-7-4-4 1 6 9 11 9 16 16 12 16-5 0-3 7 4 15 11 13 10 14-2 10-9-4-23 1-32 10-15 15-16 15-16-4 0-13 7-21 18-21 16-1 16-1 0-11-10-5-18-18-19-27 0-11-3-12-6-4-2 6-9 9-15 6-6-4-8 1-3 15 5 16 3 20-9 15-8-3-19 3-26 15-6 12-15 21-21 21-11 0-72 41-77 53-5 11-22 8-22-4 0-19-38-61-43-47-2 7-4 1-3-14 0-16 5-28 9-28 5 0 5-4 2-10-3-5 3-10 14-10s22 8 24 18c3 10 5 6 6-10 1-30 20-39 22-10 0 10 3 12 6 5 2-7 12-13 21-13 8 0 12-3 9-7-4-3-1-13 6-22 10-14 10-14-3-4-8 6-36 10-62 9-33-1-49 3-53 12-3 8-11 12-19 9-9-4-18 8-27 35-10 30-21 44-45 54-18 8-36 18-39 24-4 6-16 8-27 4-13-4-25 1-34 13-9 10-13 13-10 7 8-17-69-35-85-20-9 8-10 7-6-6 4-10 2-18-3-18-6 0-10-12-10-26s4-23 8-20c5 3 9-1 9-9s-4-15-8-15c-8 0-12 11-23 63-4 15-11 27-17 27s-8-9-4-22c6-16 4-20-8-15-8 3-25-3-38-14-24-21-34-24-24-9 3 6-1 13-10 16-10 4-13 13-10 25 4 11 2 19-4 19s-11-5-11-11-7-8-16-5c-12 4-15 2-10-9 3-8 1-15-3-15-13 0-19 22-16 53 2 15-1 29-6 33-5 3-6 10-3 16 5 7 2 8-5 4-7-5-10-14-7-22 4-10 0-14-12-12-9 2-16-3-15-9 4-19-28-16-43 5-13 16-14 16-8 0 3-10 1-18-5-18-11 0-9-55 2-67 11-10 8-35-2-28-5 3-12 1-16-5-3-5 1-10 10-10 13 0 14-4 5-20-6-11-18-20-26-20-9 0-12 5-8 11 3 6 1 14-5 18-8 6-8 18 3 49 14 40 14 42-4 42-10 0-22 5-26 12-5 7-2 9 8 6 24-10 37 5 43 52 5 32 4 41-4 30-8-12-12-10-20 10-6 15-10 19-10 9-1-9 5-22 13-28 8-7 12-21 9-32-5-16-8-18-14-7-5 7-9 9-9 3 0-5-10 2-23 17-25 29-43 35-70 23-11-4-16-14-12-25 4-14-1-17-27-16s-36 7-48 31c-15 31-22 32-95 22l-30-4-3-677c-2-618-1-676 14-676 9 0 18 9 21 19 5 21 23 22 46 3 12-10 16-10 20 0 2 7 8 10 12 5 5-4 3-13-3-19-9-9-16-7-31 6-19 17-20 17-30-2-6-12-8-28-5-37 6-14 8-14 31 0 23 16 24 16 14-3-6-11-7-22-4-26 3-3-3-6-15-6s-22-4-22-10c0-5 9-10 20-10 26 0 26-15 1-17-11-1-27 9-36 23-8 13-21 24-28 24-8 0-8-3 2-9 9-6 10-11 2-15-7-4-11-39-11-87 0-77 1-79 20-69 16 9 39 9 79 1 2-1-3-9-12-19-10-10-14-22-10-25 3-4 0-7-8-7s-27-6-42-12c-23-11-27-19-27-60 0-27 5-49 13-52 9-5 9-7 0-12-7-3-13-22-13-42 0-28 3-33 12-24 7 7 20 12 30 12s18 6 18 14c0 13 86 53 104 48 5-2 16 0 24 3 11 4 12 8 3 19s-7 15 11 20c36 9 73 7 85-5 7-7 17-8 30-1 10 6 32 8 48 4l30-5-60-26 28-1c15 0 30 6 33 14s12 12 20 9c19-7 18-21-4-26-13-4-12-5 5-6 12 0 25 4 28 9 3 6 18 7 32 4 53-14 144-1 140 19-1 7 20 12 58 13 33 0 62 2 65 3 3 2 26 5 52 7 38 3 46 1 42-10-3-8-13-17-22-19-10-2-5-3 10-1 25 3 27 2 16-16-7-10-21-21-33-23-19-3-20-4-1-12 13-6 21-5 24 3 2 7 11 12 19 12 9 0 13 6 10 15-5 11 1 13 26 10l32-5-32 12c-34 11-44 28-18 28 8 0 15-4 15-10 0-5 12-10 28-9 16 0 21 3 12 6-25 10-41 31-29 38 5 4 16 0 22-8 7-8 20-17 29-20 19-7 34 8 18 18-19 12 0 25 21 14 16-8 30-4 73 20 29 17 61 31 70 31 10 0 15 4 11 10-3 5 9 14 27 19 25 7 28 9 11 10-19 1-23 7-23 31 0 17 5 30 13 30 9 0 8 3-2 9-20 13-3 33 22 25 21-6 21-6-2 15-13 11-28 18-32 15-5-3-9 2-9 11s-4 13-10 10c-5-3-10-2-10 4 0 5 4 12 9 16 6 3 9 26 8 50l-2 45 45 1c89 3 333-5 500-15 157-10 327-17 397-16 43 1 70-4 88-16 14-9 25-13 25-8 0 4 5 3 12-4s20-12 29-12c10 0 20-11 23-26 8-32 1-44-9-15-3 12-10 21-15 21-10 0-3-28 12-47 13-17 1-33-19-26-12 5-14 3-8-7s4-11-6-4c-25 15-59 16-59 0 0-8-3-21-6-30-4-11 0-16 14-16 11 0 22-4 24-9 2-6 23-14 46-20l44-9-5 60c-3 33-3 58-1 55 3-3 8-27 11-54 3-26 6-49 7-50s15 1 31 6c28 7 28 8 7 13-28 8-28 24 1 33 13 4 17 8 10 12-7 2-13 9-13 14 0 6 9 5 23-1 19-9 20-9 6 2-17 14-25 93-9 83 5-3 7 0 4 8s1 17 9 20c10 4 13-2 10-21-3-26-3-26 7-4 5 12 9 23 8 25-1 1 4 12 11 25 17 32 46 29 49-5 1-21-1-24-8-13-15 24-24-15-11-49 7-15 11-32 10-37-3-20 1-47 7-41 4 4 15-3 25-15 15-16 19-18 19-5 0 8-6 18-12 21-10 3-9 8 3 18 9 7 16 17 17 23 1 21 22 15 22-7 0-18 2-20 10-8 7 11 10 7 10-18 0-29 2-31 19-20 11 6 22 24 25 40 5 26 36 41 36 18 0-19 21-10 30 12 5 13 10 20 11 16 1-5 3-12 4-18 1-5 3-19 4-29 0-11 7-26 15-33 8-8 16-23 19-34 3-13 5-10 7 11 1 17 2 33 1 38-1 7 15 11 33 8 5-1 6 10 4 24-3 14-2 28 3 30 10 7 22-32 14-45-3-5-1-10 4-10 6 0 11 5 11 12 0 6 3 9 6 6s-1-16-8-27c-11-18-11-23 1-30 8-5 11-17 7-32-7-23-7-23 8-5 14 17 21 45 17 69 0 4 3 7 8 7 6 0 7-16 4-35-5-31-3-35 12-29 14 6 16 3 10-14-9-29 3-28 14 0 8 21 8 21 13-5 3-15 1-27-3-27-5 0-9-5-9-11 0-7 10-5 25 5 14 9 25 12 25 7 0-20 40-33 56-20 12 10 15 10 12-2-2-8 4-13 14-13 10 1 14-4 11-12-3-9 1-14 12-14 9 0 13-4 10-10-3-5-1-10 4-10 14 0 14 13 0 27-7 7-6 12 5 16 10 4 13 1 10-7-6-15 23-42 33-32 4 4 1 17-6 29-9 15-3 11 18-9 31-31 71-50 71-34 0 5-6 10-12 13-10 4-10 7 0 18 8 9 12 60 12 177v164l-20-23c-20-24-20-24-35-4-20 26-14 39 20 45 16 3 30 10 32 16 5 15-38 26-53 13-6-5-27-12-45-14-19-2-49-7-68-11-23-5-32-3-27 4 3 6-1 15-10 20-10 6-13 12-6 16 6 3 18-2 28-11 10-10 19-13 21-7 2 5 19 8 37 6 25-3 40 2 55 17 12 12 33 26 46 31 22 8 25 16 25 56 0 33-5 51-17 60-17 13-17 15 0 28 9 7 17 22 17 32-1 18-1 18-15 0-8-11-18-17-21-13-4 4-2 13 4 20 7 8 9 17 5 21s0 4 10 0c16-6 17 12 17 276-1 242-3 281-15 276-8-3-15-1-15 4s-16 2-35-6c-24-10-35-11-35-3s-4 8-14 0c-11-10-18-7-34 10-20 20-42 19-42-2 0-6 4-8 8-5 5 3 9-2 9-10 0-9-6-13-14-9-16 5-43-17-43-34 0-7 11-9 28-6 26 6 25 5-5-11-31-15-35-15-58 0-14 9-25 22-25 29 0 8 4 7 10-3 5-8 10-10 10-4 0 18-34 51-47 47-18-6-16-23 2-23 8 0 15-5 15-10 0-6-11-8-25-6-14 3-23 1-20-5 4-5-1-9-10-9s-14-4-11-8c3-5-9-6-27-3l-32 6 28 3c23 3 26 6 16 18-9 11-7 14 11 14 21 0 59 35 60 55 0 6-5 3-10-5s-10-11-10-6-8 2-17-5c-16-13-17-12-4 4 9 11 10 17 2 18-6 1-15 3-21 4-5 1-14 3-20 4-23 3-7 18 20 19 20 0 30-4 30-14 0-8 5-14 11-14s9 7 6 15c-9 22 10 28 34 11 24-16 113-12 137 7 10 8 16 7 22-2 4-8 13-10 19-7 6 4 11 1 11-6 0-11 2-11 9 0 5 8 17 11 33 7 15-4 29-2 32 4 4 6 3 11-2 11s-9 15-8 32c1 28-2 33-24 33-16 0-24-5-22-13 1-8-2-11-8-7-8 5-8 11 0 20 18 22 53 22 72 0 17-19 17-9 17 202v221l-105 1c-71 0-103-3-98-10 4-8 1-8-12-1-11 5-28 8-39 6-11-3-27-4-35-3-8 0-93 3-189 5-137 4-176 2-182-8-7-10-9-10-9 0 0 14-56 17-65 2-3-6-18-8-32-6-14 3-23 2-19-1 3-3 1-12-5-20-9-10-8-13 4-13 9 0 18-4 21-8 4-8-15-8-59-3-5 1-2 6 8 12 23 13 22 29-2 29-11 0-22 4-25 8-7 12-156 15-156 3 0-15 30-41 48-41 13 0 14-2 3-9-7-5-22-6-32-4-10 3-19 0-19-6 0-5 7-8 15-5 8 4 15 2 15-4 0-5-17-10-37-9-21 0-30 2-20 4 9 3 15 9 11 14-3 5-10 6-16 3-12-7-1 34 13 52 7 8-26 11-116 12-69 0-125-3-125-8zm399-14c-18-12-12-22 26-44 11-6 15-12 10-12-6 0-21 7-33 16-20 14-27 12-23-9 3-15-32-2-36 13-4 12-3 13 5 1 8-11 11-9 17 8 3 11 4 24 2 28-3 5 7 9 21 10 23 1 24-1 11-11zm-49-8c0-4-7-8-15-8s-15 4-15 8c0 5 7 9 15 9s15-4 15-9zm501-21c-10-9-11-8-5 6 3 10 9 15 12 12s0-11-7-18zm-321 7c0-8-19-13-24-6-3 5 1 9 9 9s15-2 15-3zm80-4c12-8 11-10-7-10-13 0-23 5-23 10 0 13 11 13 30 0zm474-4c-21-15-30-14-19 3 3 6 14 11 23 11 13 0 13-2-4-14zm-894-6c0-5-5-10-11-10-5 0-7 5-4 10 3 6 8 10 11 10 2 0 4-4 4-10zm916-12c0-7 4-14 9-14 6-1 9 2 8 7-3 9 25 1 43-12 6-5 14-6 17-2 4 3 7 1 7-5 0-16-37-15-43 1-4 9-8 8-16-3-7-10-6-17 2-22 6-4 9-10 5-13-3-3-13 1-22 10s-16 12-16 6-4-11-10-11c-5 0-6 7-3 17 4 11 3 14-5 9-15-9-15-1-2 25 12 21 29 26 26 7zm141 6c-3-3-12-4-19-1-8 3-5 6 6 6 11 1 17-2 13-5zm-362-14c3-5 1-10-4-10-6 0-11 5-11 10 0 6 2 10 4 10 3 0 8-4 11-10zm-565-15c-7-9-15-13-19-10-3 3 1 10 9 15 21 14 24 12 10-5zm700 11c0-3-4-8-10-11-5-3-10-1-10 4 0 6 5 11 10 11 6 0 10-2 10-4zm220 0c0-3-4-8-10-11-5-3-10-1-10 4 0 6 5 11 10 11 6 0 10-2 10-4zm-406-22c5-14 4-15-9-4-17 14-19 20-6 20 5 0 12-7 15-16zm-2618-41c-2-3-13 4-24 15s-18 23-15 26 14-4 25-16c10-12 16-23 14-25zm1947 31c-2-7 4-14 14-17 15-4 15-5-3-6-13-1-24 6-26 17-3 11 0 19 7 19s11-6 8-13zm112-4c10-11 14-20 9-20s-15 9-22 20-11 20-9 20 12-9 22-20zm315 16c0-2-9-6-20-9s-18-1-14 4c5 9 34 13 34 5zm-455-16c3-6-1-7-9-4-18 7-21 14-7 14 6 0 13-4 16-10zm240 0c3-6-1-7-9-4-18 7-21 14-7 14 6 0 13-4 16-10zm-2011-28c23-25 25-31 12-41-12-10-14-9-9 8 6 22-12 30-20 9-2-7-8-10-12-6s-3 14 3 21c9 10 8 17 0 25-7 7-10 12-7 12s18-13 33-28zm2256 18c0-5-4-10-10-10-5 0-10 5-10 10 0 6 5 10 10 10 6 0 10-4 10-10zm-372-11c-10-5-18-17-18-25s-4-13-9-10-11 0-14-8c-3-7-17-13-31-13s-23 3-20 8c9 14-5 29-22 22-8-3-13-12-10-20s1-11-4-8c-32 20 7 52 41 35 14-8 19-7 19 1 0 6 8 9 18 7 10-3 23 1 30 9 7 7 18 13 25 13s4-5-5-11zm955-4c-3-9-8-14-10-11-3 3-2 9 2 15 9 16 15 13 8-4zm-503-10c0-8-4-15-10-15-5 0-7 7-4 15 4 8 8 15 10 15s4-7 4-15zm-2485-15c3-5 1-10-4-10-6 0-11 5-11 10 0 6 2 10 4 10 3 0 8-4 11-10zm2565-4c0-2-7-9-15-16-13-11-14-10-9 4s24 23 24 12zm-2455-26c-3-4 4-10 15-13 20-5 28-27 10-27-5 0-10 4-10 9s-11 12-25 15c-21 5-23 9-13 20 13 14 32 11 23-4zm-181-5c-4-8-7-15-9-15s-5 7-9 15c-3 9 0 15 9 15s12-6 9-15zm2976-5c-6-11-15-20-20-20-16 0-11 18 8 29 24 14 24 14 12-9zm-2320 6c0-2-8-10-17-17-16-13-17-12-4 4s21 21 21 13zm2038-21c1-15-1-16-7-6-5 7-13 11-19 7-5-3-12 0-15 7s4 12 17 12c15 0 23-7 24-20zm-2578 5c0-5-4-10-10-10-5 0-10 5-10 10 0 6 5 10 10 10 6 0 10-4 10-10zm60-42c0-10-33 3-42 16-19 27-7 37 17 15 13-13 25-27 25-31zm2057 20c-3-8-6-5-6 6-1 11 2 17 5 13 3-3 4-12 1-19zm703 12c0-5-4-10-10-10-5 0-10 5-10 10 0 6 5 10 10 10 6 0 10-4 10-10zm-445-20c3-5 1-10-4-10-6 0-11 5-11 10 0 6 2 10 4 10 3 0 8-4 11-10zm185 0c0-5-7-10-15-10s-15 5-15 10c0 6 7 10 15 10s15-4 15-10zm-2521-26c3-4-4-5-16-2-20 5-34-8-37-34-1-3-4-10-8-14-4-3-6 3-3 15 2 11 0 21-5 21s-7 6-4 14c5 13 61 13 73 0zm1801-11c0-10-4-14-8-8s-11 13-16 18c-5 4-2 7 7 7 10 0 17-8 17-17zm140 7c0-5-2-10-4-10-3 0-8 5-11 10-3 6-1 10 4 10 6 0 11-4 11-10zm-1860-12c0-14-18-17-28-5-8 10-6 13 9 13 10 0 19-4 19-8zm404-3c-4-8-11-12-16-9-6 4-5 10 3 15 19 12 19 11 13-6zm944-36c18-22 20-29 8-29-8 0-17 9-21 19-4 13-12 17-25 14-22-6-28 12-7 20 19 8 21 8 45-24zm371-11c-6-22-4-28 8-28 9 0 13-3 10-7-4-3-2-12 4-20 14-17-3-17-20 0-10 10-11 9-6-5 8-20-2-23-25-8-13 9-13 11 0 21 11 8 12 12 3 15-10 4-10 10 0 25 10 16 9 21-2 28-10 7-7 9 11 8 23-2 24-5 17-29zm-1599-30c-1-8-6-6-15 6-20 26-19 42 0 22 8-8 15-21 15-28zm-286 17c-4-8-8-15-10-15s-4 7-4 15 4 15 10 15c5 0 7-7 4-15zm200 6c3-5-1-12-10-15-22-9-24-8-24 9 0 16 25 21 34 6zm786-13c0-6-3-8-7-5-3 4-12 2-20-4-17-14-17-3 0 15 13 15 27 12 27-6zm35 12c-3-5-12-10-18-10-7 0-6 4 3 10 19 12 23 12 15 0zm729-36c7-19-2-37-15-28-5 3-9 2-8-3 5-30-2-44-21-38-15 5-20 2-20-12 0-15-2-15-9-4-7 10-4 19 7 28 9 7 13 13 8 13s-3 7 4 15c10 12 10 15-1 15-9 1-8 5 5 15 26 19 42 19 50-1zm-1486-12c2-7-2-10-12-6-9 3-16 11-16 16 0 13 23 5 28-10zm1212 8c0-5-5-10-11-10-5 0-7 5-4 10 3 6 8 10 11 10 2 0 4-4 4-10zm52-12c-3-14-2-19 6-14 7 4 12 14 12 22s6 14 14 14c12 0 12-4 0-30-17-33-29-38-38-14-9 23-7 44 3 44 5 0 7-10 3-22zm-1359-3c-3-9-8-14-10-11-3 3-2 9 2 15 9 16 15 13 8-4zm1334 0c0-8-6-16-13-19s-10 2-7 15c6 22 20 26 20 4zm443 11c0-3-4-8-10-11-5-3-10-1-10 4 0 6 5 11 10 11 6 0 10-2 10-4zm502-28c-7-7-12-8-12-2 0 14 12 26 19 19 2-3-1-11-7-17zm-2407-8c3-6-1-7-9-4-18 7-21 14-7 14 6 0 13-4 16-10zm1769-12c-3-4-9-8-15-8-5 0-9 4-9 8 0 5 7 9 15 9s12-4 9-9zm557-61c-11-23-20-36-21-29 0 7 6 26 14 41 15 27 14 28-14 26-16-1-37-8-47-16-16-12-16-11 1 9 11 12 27 22 38 22 10 0 18 5 18 11s7 3 16-6c15-14 14-19-5-58zm-2166 43c-3-5-1-10 6-10s10-3 6-6c-9-9-28 6-22 17 4 5 8 9 11 9s2-4-1-10zm1438-10c-3-11-1-20 5-20 16 0 23-31 11-46-9-11-6-16 12-23 13-5 17-10 9-10-22-1-44 15-36 27 3 5-1 13-10 16-8 3-12 10-9 16 4 6-9 9-34 6-23-2-41 0-41 5s11 9 25 9c15 0 24 5 23 13-2 6 5 11 14 9 9-1 19 2 23 8 10 16 14 12 8-10zm117 10c0-5-5-10-11-10-5 0-7 5-4 10 3 6 8 10 11 10 2 0 4-4 4-10zm80 5c0-2-10-9-22-15-22-11-22-10-4 4 21 17 26 19 26 11zm-1910-15c0-5-2-10-4-10-3 0-8 5-11 10-3 6-1 10 4 10 6 0 11-4 11-10zm127-7c3-9-8-10-35-4-2 1 0 6 3 12 8 12 27 7 32-8zm2373 13c0-2-7-9-15-16-13-11-14-10-9 4s24 23 24 12zm166-22c-3-8 0-11 10-7 21 8 17-3-12-34l-27-28 7 30 6 30-19-22c-18-21-21-22-51-9-22 9-28 15-19 19 9 3 9 6 2 6-6 1-15-3-18-9-4-6-11-5-19 2-11 10-10 15 2 28 12 11 16 12 20 2 2-6 10-12 18-12s14-5 14-12c0-6 3-8 8-4 4 4 6 10 4 12-1 2 3 10 10 17 15 17 71 9 64-9zm60 15c10-17-13-36-27-22-12 12-4 33 11 33 5 0 12-5 16-11zm-786-21c0-6-7-7-16-4s-18 6-20 6c-3 0-3 4 1 10 7 11 35 2 35-12zm-1905-7c-3-6-11-11-16-11s-4 6 3 14c14 16 24 13 13-3zm310 9c-3-5 3-10 14-10 12 0 21-4 21-10s-9-6-25 0c-21 8-27 6-36-13-12-21-11-21 7-8 18 14 18 14 2-3-15-17-18-18-33-3-8 9-21 15-28 13-7-1-9-1-4 1 4 3 5 9 1 14-3 5-1 9 5 9 5 0 12-6 15-12 5-10 7-10 12 0 3 6 12 12 20 12s14 5 14 10c0 6 5 10 11 10 5 0 7-4 4-10zm1445-11c-7-11-14-18-17-15s0 12 7 21c18 21 23 19 10-6zm620-9c0-5-5-10-11-10-5 0-7 5-4 10 3 6 8 10 11 10 2 0 4-4 4-10zm-564-18c9-5 8-11-2-20-8-7-14-8-14-2 0 5-8 10-17 10-15 0-16 2-3 10 18 12 22 12 36 2zm684-24c0-5-9-8-20-8-23 0-26 10-8 28 9 9 14 9 20-1 4-6 8-15 8-19zm-1720-18c-8-5-19-10-25-10-5 0-3 5 5 10s20 10 25 10c6 0 3-5-5-10zm215 1c3-5 2-12-3-15s-9 1-9 9c0 17 3 19 12 6zm55-12c-7-11-14-18-17-15s0 12 7 21c18 21 23 19 10-6zm69-23c0-6-3-6-6 2-2 6-16 12-30 12-22 0-24 2-13 15 12 14 15 14 31-1 11-10 19-22 18-28zm451 34c0-5-7-10-16-10-8 0-12 5-9 10 3 6 10 10 16 10 5 0 9-4 9-10zm1030 7c0-2-10-12-21-23-22-19-22-19-10 4 10 18 31 31 31 19zm-790-11c0-2-8-10-17-17-16-13-17-12-4 4s21 21 21 13zm37-11c0-8-4-12-9-9s-6 10-3 15c9 13 12 11 12-6zm813 11c0-3-4-8-10-11-5-3-10-1-10 4 0 6 5 11 10 11 6 0 10-2 10-4zm-1870-10c0-2-8-10-17-17-16-13-17-12-4 4s21 21 21 13zm368-16c11-17 10-20-7-20-14 0-19 6-18 20 1 11 4 20 7 20s11-9 18-20zm1862 4c0-2-12-4-26-4s-23 4-20 9c6 8 46 4 46-5zm-2963 0c-3-3-12-4-19-1-8 3-5 6 6 6 11 1 17-2 13-5zm1010-30c-2-2-12-1-22 3-18 6-18 7 1 13 17 7 33-5 21-16zm1590 14c-2-7-10-12-16-10-7 1-10-2-7-7s0-14-8-20c-21-17-27 9-8 32 17 20 46 23 39 5zm353-19c0-6-4-7-10-4-5 3-10 11-10 16 0 6 5 7 10 4 6-3 10-11 10-16zm-220 1c0-5-9-10-21-10-11 0-17 5-14 10 3 6 13 10 21 10s14-4 14-10zm-1600-4c0-3-4-8-10-11-5-3-10-1-10 4 0 6 5 11 10 11 6 0 10-2 10-4zm380-5c0-5-7-11-14-14-10-4-13-1-9 9 6 15 23 19 23 5zm195-22c-6-9-35-1-35 10 0 4 3 11 7 14 8 9 34-13 28-24zm45 21c0-5-5-10-11-10-5 0-7 5-4 10 3 6 8 10 11 10 2 0 4-4 4-10zm-280-14c0-8-4-18-10-21-5-3-10 3-10 14 0 12 5 21 10 21 6 0 10-6 10-14zm297-8c-3-8-6-5-6 6-1 11 2 17 5 13 3-3 4-12 1-19zm1153-14c0-18-12-18-36 2-15 13-16 15-2 10 13-4 15-1 11 12-6 15-5 15 10 3 9-7 17-20 17-27zm-460 16c0-5-5-10-11-10-5 0-7 5-4 10 3 6 8 10 11 10 2 0 4-4 4-10zm210-1c12-9 11-10-6-6-17 3-20 0-16-18 2-14-2-24-13-28-12-5-14-3-7 10 5 9 7 24 5 34-6 21 13 25 37 8zm310 1c0-5-2-10-4-10-3 0-8 5-11 10-3 6-1 10 4 10 6 0 11-4 11-10zm-1959-12c1-7 1-21 0-30-3-22 17-24 25-3 4 8 14 15 23 15 14 0 14 2 1 10s-12 10 3 10c22 0 21-9-2-39-22-28-55-25-59 7-2 12-8 22-13 22-6 0-7 5-4 10 9 14 25 12 26-2zm99 2c0-5-2-10-4-10-3 0-8 5-11 10-3 6-1 10 4 10 6 0 11-4 11-10zm623-8c-2-10-13-18-23-19-18-2-18-1-2 17 22 24 31 25 25 2zm-786-26c-7-13-15-22-19-20-8 5 13 44 23 44 4 0 2-11-4-24zm1778 14c-3-5-11-10-16-10-6 0-7 5-4 10 3 6 11 10 16 10 6 0 7-4 4-10zm80 0c3-5-9-9-30-8-23 1-31 4-23 9 18 12 46 11 53-1zm-1819-24c1-7-4-13-12-13-9 0-11 4-4 12 5 7 8 15 5 18-3 4-2 5 2 2s8-11 9-19zm151 18c-3-3-12-4-19-1-8 3-5 6 6 6 11 1 17-2 13-5zm44-17c-10-9-11-8-5 6 3 10 9 15 12 12s0-11-7-18zm1409 8c-33-19-50-18-26 0 11 8 27 15 35 15 10-1 7-6-9-15zm-1173-17c-3-8-6-5-6 6-1 11 2 17 5 13 3-3 4-12 1-19zm48 12c3-5 1-10-4-10-6 0-11 5-11 10 0 6 2 10 4 10 3 0 8-4 11-10zm655-2c0-4-9-8-20-8s-20 4-20 8 9 8 20 8 20-4 20-8zm286-25c-10-10-19 5-10 18 6 11 8 11 12 0 2-7 1-15-2-18zm-506 13c0-2-7-7-16-10-8-3-12-2-9 4 6 10 25 14 25 6zm1040-8c0-14-18-17-28-5-8 10-6 13 9 13 10 0 19-4 19-8zm-1836-8c31-11 36-34 6-25-18 6-19 4-10-21 14-35 7-41-19-15-12 12-32 21-45 21-14 0-28 5-32 12-5 8 0 9 14 6 14-4 22-2 22 7 0 12 13 22 32 24 4 1 18-3 32-9zm606 6c0-3-4-8-10-11-5-3-10-1-10 4 0 6 5 11 10 11 6 0 10-2 10-4zm806-17c6-5 14-6 17-2 10 10 67 11 61 1-3-5-11-7-17-5-7 3-25-7-41-22-26-24-28-24-22-5 5 18 1 23-21 29-15 5-34 7-42 6-7-1-10 2-6 8 7 12 52 5 71-10zm119-7c-8-8-25 10-19 20 4 6 9 5 15-3 4-7 6-15 4-17zm-1437-9c4-24-29-56-36-35-3 10-7 10-18 1s-14-9-14 0c0 7-4 9-10 6-5-3-10-2-10 3 0 16 39 21 51 6 13-16 33-8 22 9-12 20-12 38 0 34 7-2 13-13 15-24zm265 8c8-1 10-31 2-31-3 0-14 6-25 12-16 11-22 9-34-7-9-12-15-15-16-7 0 29 26 41 73 33zm214-23c-3-8-6-5-6 6-1 11 2 17 5 13 3-3 4-12 1-19zm967 1c-4-8 1-9 17-5 20 6 21 5 6-4-18-11-37-6-37 11 0 5 5 9 11 9 5 0 7-5 3-11zm60-5c3-8 2-12-4-9s-10 10-10 16c0 14 7 11 14-7zm-848-13c0-11-4-19-9-18s-11-3-14-9c-5-16 33-24 46-11 6 6 11 8 11 5 0-4-15-17-32-29-25-17-29-19-19-5 14 16 13 17-15 13-40-7-64-17-64-28 0-5-5-9-11-9-5 0-8 4-5 9 4 5 0 12-6 14-7 3-2 6 12 7 27 1 63 23 54 33-3 3 3 8 14 11 11 4 23 13 26 21 7 20 12 19 12-4zm134-1c0-5-5-10-11-10-5 0-7 5-4 10 3 6 8 10 11 10 2 0 4-4 4-10zm288-15c-8-9-56-13-67-6-7 5 2 8 21 9 18 0 35 7 37 14 4 11 5 11 9 0 2-7 2-15 0-17zm-1201-1c-3-3-12-4-19-1-8 3-5 6 6 6 11 1 17-2 13-5zm653 2c0-2-7-9-15-16-12-10-15-10-15 4 0 9 7 16 15 16s15-2 15-4zm910-6c0-5-10-20-21-31-17-17-19-23-8-31 11-7 10-8-4-4-10 3-26 6-35 6-10 0-3 7 15 16 17 9 33 24 36 35 5 20 17 26 17 9zm-1530-28c0-8-11-11-30-10-42 3-46 25-4 24 20-1 34-6 34-14zm1386-18c-7-8-19-9-34-3-31 12-31 12-27-11 5-26-15-37-30-17-7 9-16 13-20 9-5-4-5-1-1 6 11 19 45 30 87 29 27-1 33-4 25-13zm-676-14c0-5-4-10-10-10-5 0-10 5-10 10 0 6 5 10 10 10 6 0 10-4 10-10zm100-3c0-7-11-13-25-13-23-2-32 6-20 17 10 10 45 7 45-4zm600-12c0-13 4-14 20-5 13 7 37 8 67 2 46-8 47-8 16-13-18-3-33-2-33 3s-5 6-11 2c-17-10 12-24 37-18 12 3 26-1 33-10 11-13 11-16-3-16-9 0-16 5-16 11 0 8-4 8-14 0-7-6-22-8-31-4-11 4-16 2-12-3 3-6-3-15-14-22s-19-8-19-2c0 5 6 10 13 11 9 0 9 2 0 5-8 4-9 13-3 29 7 19 6 23-5 18-8-3-15-9-15-15 0-5-4-7-9-4s-14-1-21-9-22-15-34-15c-16 0-18-2-7-9 7-5 27-5 42-1 16 5 29 5 29 0 0-14-58-22-79-11-17 9-22 7-32-11-9-16-9-23 0-26 6-2 11-8 11-14s-6-6-15 2c-8 7-15 9-15 4s-5-2-10 8c-11 18-3 48 12 48 23 0 67 41 61 57-4 9-2 14 3 10 6-3 16-2 24 4 21 13 30 11 30-6zm-1802-24c3-8-1-12-9-9-7 2-15 10-17 17-3 8 1 12 9 9 7-2 15-10 17-17zm1112 0c-5-11-14-22-19-25-12-8-8 27 4 36 18 14 26 8 15-11zm-90 2c12 10 12 9 1-5-7-10-10-18-6-18s2-7-5-15c-16-19-31-19-24 0 4 8 0 23-7 32-13 15-12 15 7 5 16-8 24-8 34 1zm130 3c0-3-4-8-10-11-5-3-10-1-10 4 0 6 5 11 10 11 6 0 10-2 10-4zm515-6c-3-5-11-10-16-10-6 0-7 5-4 10 3 6 11 10 16 10 6 0 7-4 4-10zm-760-10c-3-5-11-10-16-10-6 0-7 5-4 10 3 6 11 10 16 10 6 0 7-4 4-10zm45 6c0-2-7-7-16-10-8-3-12-2-9 4 6 10 25 14 25 6zm1108-16c-7-10-14-17-17-15-4 4 18 35 25 35 2 0-1-9-8-20zm134-2c-7-7-12-8-12-2 0 14 12 26 19 19 2-3-1-11-7-17zm-2297-9c-10-15-25-10-19 6 4 8 10 12 15 9s7-10 4-15zm-155-1c0-21-18-43-27-34-4 5-2 11 5 13 6 3 12 9 12 14 0 6-5 7-12 3s-8-3-4 4c10 16 26 15 26 0zm46-30c-16-9-11-38 6-38 6 0 8 6 5 14-5 13 29 51 36 38 2-4 3-22 1-39-1-18 2-33 7-33s9 8 9 17c0 14 4 12 17-7 21-31 40-50 48-50 3 0 4 4 0 9-3 5 3 12 12 14 14 4 13 5-4 6-12 0-27 10-33 21-9 16-8 19 6 13 12-4 15-3 10 5-4 7-14 12-22 12s-14 4-14 9c0 4 23 8 51 8 34 0 49-3 46-11-3-7 4-13 14-13 17-2 18 0 4 13-17 18-20 34-5 34 6 0 10-7 10-16 0-14 3-14 15-4 9 7 18 10 22 6 3-3 17 1 30 9 21 14 23 14 23-1 0-10 5-14 15-10 9 3 15 0 15-10 0-8-3-13-8-10-4 2-16-2-27-10-19-14-19-16-2-45 9-17 15-35 11-40-3-5-1-9 5-9s7-7 4-17c-4-10-2-14 5-9 6 3 13 2 17-4 3-5 2-10-4-10-5 0-13-9-16-20-10-31-35-25-32 8 2 15 7 33 11 40 10 17-4 15-24-3-15-14-19-14-31 2-8 9-9 14-3 10 7-4 25 0 40 8 16 8 24 15 17 15-6 0-14 9-18 19-4 13-12 18-22 14-11-4-14-2-9 5 4 7 2 12-3 12-14 0-14-13 1-28s3-28-14-15c-7 6-24 10-38 8-20-1-25-7-25-28-1-14 3-23 9-20 5 4 7-1 3-9-5-13 1-16 28-14 21 2 36-2 39-10s1-14-4-14c-6 0-10-7-10-15 0-18 26-20 34-2 3 6 3 2 0-10-5-23 11-33 18-11 3 7 10 8 17 4 11-7 11-10 0-17s-10-9 4-9c9 0 17 7 17 16 0 8 5 12 11 8 8-5 8-1 0 14s-8 21 2 25c19 7 59-11 51-24-5-8-9-8-14 1-5 8-10 9-14 2-3-6-2-13 4-17 5-3 10-17 10-29 0-27 42-76 65-76 10 0 13 5 9 12s-3 8 5 4c6-4 9-16 6-27-4-12-2-19 7-19 10 0 10-2-1-9-19-12 6-26 41-22 16 1 28-2 28-8 0-7-10-9-26-5-21 5-25 3-24-12 4-36-1-39-15-9-9 20-14 24-14 13-1-26-21-22-21 3 0 15-5 19-15 15-9-3-15 0-15 9 0 19-56 21-63 3-4-10-6-10-6-1-1 6 4 15 9 18 6 3 10 11 10 16 0 6-5 7-11 3-6-3-3 6 7 22 17 26 17 28 1 15-9-7-17-10-17-5s-5 2-10-6c-9-13-12-13-24 2-7 10-16 15-19 11-4-3-7-1-7 6 0 8-7 10-21 6-15-5-19-4-14 5 4 7-5 4-21-6l-29-18 29 32c17 18 24 32 18 32-7 0-12-4-12-9 0-17-43-7-48 11-2 10-9 18-14 18s-6-4-3-10c3-5-3-10-14-10-12 0-21-4-21-10 0-5-7-10-15-10-20 0-19 17 3 29 9 6 12 11 6 11-16 0-34-22-34-42 0-10-7-18-15-18-17 0-20-16-5-25 12-7 4-25-11-25-6 0-7 6-3 13 5 7 0 6-11-3-16-14-17-13-11 8 4 12 3 22-2 22-14 0-33-26-25-33 3-4-5-7-20-7-14 0-31-8-36-17-7-12-10-14-11-4 0 11-3 11-15 1-10-9-15-9-15-1 0 6 5 11 11 11 5 0 8 4 5 9-4 5 2 7 13 4 14-3 21 3 29 25 5 16 20 38 31 49l21 20-37 1c-20 1-39 5-42 10-3 4-16 7-28 6s-20 3-17 8c3 4 10 5 16 2 7-4 8-2 4 4-9 15-36 16-36 2s-11-12-34 5c-16 12-17 18-8 27 7 7 12 17 12 22 0 6-7 0-16-12-8-12-20-20-25-16-6 3-5 12 3 21 12 15 10 15-17 1-16-8-38-13-49-10-11 2-17-1-14-9 2-7 12-13 22-15 10-1 21-6 24-9 4-4 0-6-8-5-31 5-42 0-36-15 4-10-1-15-15-15-11 0-17-4-14-10 3-5-2-11-12-11-72-5-88-8-97-21-6-8-23-17-38-20-24-5-27-2-26 19 2 21 4 22 14 9 15-22 19-20 21 11 1 19-1 22-8 12-5-8-9-9-9-3 0 5-12 15-27 22-19 8-21 10-5 6 12-3 22-1 22 5s8 11 18 11c14 0 15-2 2-10-12-8-11-10 7-10 27 0 39 16 18 24-8 3-15 10-15 15 0 6 7 8 15 5 8-4 15-1 15 5s14 11 31 11c29 0 31 2 26 29-4 19-2 31 6 35 9 3 8 7-3 15-12 9-11 11 7 11 31 0 53 10 53 25 0 12 21 25 41 25 5 0 9-7 9-15 0-13 48-45 68-45 5 0 12 15 16 33 5 25 9 29 16 17 8-12 10-11 10 6 0 16 6 22 25 22 30 0 33-14 5-21-26-7-26-29 1-45 12-8 18-9 14-3-3 6-1 11 5 11 7 0 9 7 6 16-5 13-1 15 19 12 25-5 53 21 38 36-4 3 2 13 13 20 17 13 19 13 23-1 1-9-4-20-13-25zm244 32c0-5-7-10-16-10-8 0-12 5-9 10 3 6 10 10 16 10 5 0 9-4 9-10zm950 6c0-3-4-8-10-11-5-3-10-1-10 4 0 6 5 11 10 11 6 0 10-2 10-4zm155-5c3-5 2-12-3-15s-9 1-9 9c0 17 3 19 12 6zm-1710-19c-3-3-11 0-18 7-9 10-8 11 6 5 10-3 15-9 12-12zm801 0c-3-3-1-11 5-19 8-9 8-13 1-13-6 0-13 4-17 10-3 5-13 6-23 3-15-6-15-4 2 15 10 12 23 19 28 16s7-9 4-12zm682 4c-12-9-14-16-7-23s6-12-5-16c-26-10-31 15-6 35 12 10 25 18 29 18 3 0-2-6-11-14zm-1424-4c2-4-4-8-14-8s-16 4-14 8c3 4 9 8 14 8s11-4 14-8zm2411-2c3-5 1-10-4-10-6 0-11 5-11 10 0 6 2 10 4 10 3 0 8-4 11-10zm22-12c-3-8-6-5-6 6-1 11 2 17 5 13 3-3 4-12 1-19zm-2287 2c0-5-4-10-10-10-5 0-10 5-10 10 0 6 5 10 10 10 6 0 10-4 10-10zm2605 0c-3-5-10-10-16-10-5 0-9 5-9 10 0 6 7 10 16 10 8 0 12-4 9-10zm-2775-32c0-4-6-8-14-8s-17 4-20 8c-2 4 4 8 15 8 10 0 19-4 19-8zm937-3c0-8-4-12-9-9s-6 10-3 15c9 13 12 11 12-6zm1431-14c17-47-7-57-34-15-15 22-15 27-3 35 22 14 26 11 37-20zm217 19c3-6-1-7-9-4-18 7-21 14-7 14 6 0 13-4 16-10zm-2468-22c-3-8-6-5-6 6-1 11 2 17 5 13 3-3 4-12 1-19zm2070 15c-9-2-14-9-11-15 4-6 2-8-4-4-6 3-13 2-17-4-3-5-11-10-17-10s-3 9 7 20 28 19 39 19c17-1 18-2 3-6zm-1547-13c0-5-7-10-16-10-8 0-12 5-9 10 3 6 10 10 16 10 5 0 9-4 9-10zm945-1c11-16 1-19-13-3-7 8-8 14-3 14s13-5 16-11zm831-4c25-13 26-15 8-15-12 0-27 7-34 15-16 19-10 19 26 0zm-201-5c-3-5-11-10-16-10-6 0-7 5-4 10 3 6 11 10 16 10 6 0 7-4 4-10zm-1465-14c0-2-8-10-17-17-16-13-17-12-4 4s21 21 21 13zm153-15c-3-11-13-21-24-24-12-3-17-11-13-20 7-19-6-27-50-32-30-4-34-2-30 13 5 16 5 16-9 0-8-10-20-18-26-18-7 0-9-4-6-10 3-5 2-10-3-10-6 0-12 7-16 15-3 9 0 15 9 15 8 0 15 4 15 9 0 4-12 6-26 3-19-3-25-1-20 7 4 6 25 11 46 11 29 0 43 6 54 22 9 12 18 19 22 16 4-5 49 7 81 21 0 1-1-8-4-18zm1357 9c0-5-4-10-9-10-6 0-13 5-16 10-3 6 1 10 9 10 9 0 16-4 16-10zm-1558-12c-7-7-16-7-28 0-14 8-13 10 10 10 18 0 24-4 18-10zm677-5c-7-8-15-10-18-6-4 4-10 11-14 14-4 4 4 7 18 7 21 0 23-3 14-15zm946 7c3-5 1-10-4-10-6 0-11 5-11 10 0 6 2 10 4 10 3 0 8-4 11-10zm-105-21c-7-11-14-19-16-16-7 7 7 37 17 37 6 0 5-9-1-21zm-1697-4c-3-9-8-14-10-11-3 3-2 9 2 15 9 16 15 13 8-4zm436-10c8 0 16-5 18-12 3-9-4-10-26-3-17 5-31 7-31 5 0-13 14-35 22-35 5 0 6 5 3 10-11 17 11 11 29-9 15-16 15-19 1-31-11-9-15-9-15-1 0 7-17 19-37 28-47 19-45 17-37 37 5 14 9 15 15 5 6-11 9-10 15 4 3 9 11 14 18 10 6-4 17-8 25-8zm1581 11c0-3-4-8-10-11-5-3-10-1-10 4 0 6 5 11 10 11 6 0 10-2 10-4zm175-26c-21-24-9-27 16-4 16 15 17 14 12-5-3-12-9-21-14-21-4 0-19-12-32-26-20-22-25-23-30-10-8 21-36 20-59-1-17-15-18-15-18 10 0 15 6 28 13 28 6 1 27 3 45 5 21 1 40 11 54 29 11 14 23 24 26 21s-3-15-13-26zm-2795 6c0-15-18-31-26-23-7 7 7 37 17 37 5 0 9-6 9-14zm2467 8c-3-3-12-4-19-1-8 3-5 6 6 6 11 1 17-2 13-5zm403-34c0-5-9-8-19-7-15 1-17 4-9 14 11 13 28 9 28-7zm-1461-11c6 9 11 10 15 2 4-6 12-9 17-6 5 4 9 1 9-4 0-16-63-8-67 9-4 13-3 13 6 0 9-12 12-13 20-1zm-224-9c-3-5-12-10-18-10-7 0-6 4 3 10 19 12 23 12 15 0zm165 0c0-5-4-10-10-10-5 0-10 5-10 10 0 6 5 10 10 10 6 0 10-4 10-10zm-9-21c16-11 34-17 41-13 8 4 10 3 5-2-11-12-67-12-67 0 0 5-7 3-15-4s-12-17-8-24c4-6-1-5-9 2-9 8-25 13-35 12-32-4-44 0-38 10 3 6 2 10-4 10-5 0-15-8-20-17-6-10-11-13-11-7s8 19 19 28c17 16 19 16 25 0 5-13 9-14 20-5 8 7 31 10 52 8 34-4 36-3 19 9-10 8-15 14-11 14s21-9 37-21zm1499 14c-14-3-31-10-37-15-8-6-13-7-13-1 0 17 13 23 44 22 27-2 28-2 6-6zm-2608-45c3-18 0-23-18-23s-20 3-12 19c7 13 7 16-1 12-6-4-11-3-11 3 0 10 21 20 31 15 4-2 9-14 11-26zm1228 16c0-8-5-12-10-9-6 4-8 11-5 16 9 14 15 11 15-7zm-556-30c-33-27-40-28-50-12-4 7-3 8 4 4s12-2 12 3c0 6 7 11 16 11 8 0 13 4 10 9-7 11 15 21 28 13 4-2-5-15-20-28zm-733 10c12-14 11-16-5-13-11 2-21 10-24 17-5 17 13 15 29-4zm99 0c0-2-7-4-15-4s-15 4-15 10c0 5 7 7 15 4 8-4 15-8 15-10zm875-4c-3-5-12-10-18-10-7 0-6 4 3 10 19 12 23 12 15 0zm1565-12c0-4-23-6-50-6-29 1-45 5-38 9 15 10 88 7 88-3zm63-13c-7-21-12-19-10 4 0 11 5 18 9 15s5-11 1-19zm-2453 5c-34-11-60-11-35 0 11 5 29 8 40 8 16 0 15-2-5-8zm240-16c0-23-3-25-25-20-14 4-25 2-25-4 0-5-7-10-15-10-17 0-19 9-6 29 5 8 18 12 31 8 13-3 23 0 27 9 8 21 13 17 13-12zm2310 1c0-14-4-25-10-25-8 0-8 23-1 48 4 12 11-3 11-23zm-1485 6c3-6-4-15-15-21-16-8-20-8-20 3 0 25 23 36 35 18zm1522-23c-3-7-5-2-5 12s2 19 5 13c2-7 2-19 0-25zm-2877-1c0-2-9-3-20-3s-20 6-20 13c0 11 5 11 20 3 11-6 20-12 20-13zm83 0c-5-8-8-7-11 1-2 7-9 9-14 6-7-4-8-2-4 4s13 9 21 6c8-4 12-11 8-17zm-213-39c0-4-5-8-11-8-5 0-7 5-4 10 3 6 1 10-4 10-16 0-13-20 4-26 8-4 22-1 31 6 11 10 18 10 26 2 9-9 7-12-9-12-12 0-25-5-28-10-4-6-10-8-15-5s-11 1-15-5c-3-5 2-10 12-10 17-1 17-1 0-11-9-6-15-14-12-20 4-5-2-9-11-9-14 0-15 3-6 12 21 21 13 32-8 13-22-20-54-30-44-14 3 5 0 9-5 9-6 0-11 4-11 9s13 8 30 6c22-3 33 1 40 15 8 14 8 20 0 20-6 0-13-6-16-14s-12-12-20-9c-16 6-19 33-3 33 5 0 7-4 4-10-3-5-1-10 5-10s18 17 27 37c14 35 16 36 29 18 8-10 14-22 14-27zm2521 30c1-7 1-17 0-22s8-6 19-3c16 4 19 2 11-7-7-8-3-12 14-14 13-1 27 3 30 8 3 6 11 10 17 10 15 0-33-36-59-44-24-8-30-21-13-31 6-3 10-22 10-40 0-42-20-39-37 6-12 31-12 31 7 14 11-10 20-13 20-8 0 6-6 16-14 23-8 6-12 19-9 27 5 12 2 15-10 10-10-4-17-2-17 4 0 7-9 9-21 6-16-4-18-3-8 9 13 16 44 20 34 4-3-5 1-10 9-10 26 0 26 17-1 44-25 25-25 26-4 26 11 0 22-6 22-12zm196-6c-15-9-30-27-33-39-4-13-10-23-16-23-5 0-7 4-3 9 3 6-3 14-12 20-14 8-15 11-3 11 8 0 26 9 40 20s32 20 40 20c8-1 3-8-13-18zm110-14c-3-7-5-2-5 12s2 19 5 13c2-7 2-19 0-25zm-2761 0c-9-5-21-6-28-2-8 5-5 10 8 14 25 10 41 0 20-12zm639-14c0-10-10-23-22-30-13-6-20-14-16-18s0-4-10 0c-9 3-17 10-17 15s-7 9-15 9-15 5-15 11c0 8-5 7-16-1-12-11-15-11-12 1 4 19 47 30 69 19 12-7 19-5 23 6 8 21 31 12 31-12zm1628 19c-7-2-19-2-25 0-7 3-2 5 12 5s19-2 13-5zm97-6c-14-7-26-10-28-6-4 10-32 0-32-11 0-5 9-12 20-15 11-4 18-11 14-16-3-6-13-7-23-4-9 4-25 9-36 11s-32 6-47 9c-20 5-27 2-31-12-2-10-3-8-2 5 1 14-2 21-9 19-6-2-22-7-36-11-19-5-16-2 10 13 37 22 65 27 55 11-3-5 9-13 27-18 29-8 35-6 51 14 14 18 28 24 55 24 37 0 37 0 12-13zm-933-19c-3-8-6-5-6 6-1 11 2 17 5 13 3-3 4-12 1-19zm-1387-19c9-15 6-18-17-16-25 2-47 27-23 27 6 0 8 4 5 10s1 7 10 4c8-4 20-15 25-25zm665 21c3-5 1-10-4-10-6 0-11 5-11 10 0 6 2 10 4 10 3 0 8-4 11-10zm672-12c-3-8-6-5-6 6-1 11 2 17 5 13 3-3 4-12 1-19zm997 14c3-5-1-9-9-9s-12 4-9 9c3 4 7 8 9 8s6-4 9-8zm-2109-12c3-5 1-10-4-10-6 0-11 5-11 10 0 6 2 10 4 10 3 0 8-4 11-10zm-135-10c0-5-5-10-11-10-5 0-7 5-4 10 3 6 8 10 11 10 2 0 4-4 4-10zm304-2c-3-4-9-8-15-8-5 0-9 4-9 8 0 5 7 9 15 9s12-4 9-9zm316 8c0-2-8-10-17-17-16-13-17-12-4 4s21 21 21 13zm340-6c0-5-7-7-15-4-8 4-15 8-15 10s7 4 15 4 15-4 15-10zm1491-3c-15-18-3-28 24-21 13 3 26 0 30-7 6-9-2-11-32-7-44 6-70-3-59-21 4-6 2-11-4-11s-8-5-4-12 3-8-4-4c-6 4-9 13-5 22 3 8-3 22-13 30-18 14-18 15 2 5 17-8 25-7 34 3 9 12 7 14-12 9-22-4-22-4-4 11 25 20 64 22 47 3zm-2591-17c0-4-7-11-16-14-13-5-14-4-6 7 7 8 8 18 4 22-4 5-1 5 6 1 6-4 12-11 12-16zm327 14c-3-3-12-4-19-1-8 3-5 6 6 6 11 1 17-2 13-5zm1481-23c2-6 8-11 13-11 6 0 7 5 4 11-7 10 77 5 118-7 30-9 18-24-20-25-21-1-58-3-83-5-157-11-201-10-195 4 5 12 3 13-10 2s-14-10-9 4c5 13 20 16 75 16 39 0 69 4 69 10s-13 10-30 10c-16 0-30 4-30 8 0 13 94-4 98-17zm902 14c-7-8-17-15-22-15-6 0-5 7 2 15s17 15 22 15c6 0 5-7-2-15zm-2020-14c0-5-9-7-20-4s-20 7-20 9 9 4 20 4 20-4 20-9zm1594-8c-16-17-16-18-1-21 17-3 24-22 9-22-16 0-30 23-24 39 5 14 4 15-14 1s-18-14-5 3c7 9 22 17 33 17 19 0 19-1 2-17zm-674-3c0-5-9-14-20-20-16-8-20-8-20 4 0 8 8 17 18 19 9 3 18 5 20 6 1 0 2-3 2-9zm734 2c2-4 1-13-3-20-4-8-11-5-19 8-10 16-10 20 2 20 8 0 17-4 20-8zm396-18c6-14 10-37 9-52-1-23-2-24-7-7-4 11-12 29-19 40-11 20-12 19-37-4-35-33-33-15 2 20 34 35 40 36 52 3zm-2030 1c0-14-32-13-37 1-2 6 5 11 17 10 11 0 20-5 20-11zm2160-15c0-5-12-10-26-10s-23 4-19 10c3 6 15 10 26 10 10 0 19-4 19-10zm-2910-10c0-5-5-10-11-10-5 0-7 5-4 10 3 6 8 10 11 10 2 0 4-4 4-10zm800-7c0-12-8-18-25-19-14-1-22 2-19 7s13 9 22 10c14 0 13 2-3 9-19 8-19 9 3 9 15 1 22-5 22-16zm1637-39c-9-9-28 6-21 18 4 6 10 6 17-1 6-6 8-13 4-17zm194-17c-10-9-11-8-5 6 3 10 9 15 12 12s0-11-7-18zm-2291-23c0-2-7-4-15-4s-15 4-15 10c0 5 7 7 15 4 8-4 15-8 15-10zm600-4c8-5 11-10 5-10-5 0-17 5-25 10s-10 10-5 10c6 0 17-5 25-10zm1880-10c-8-5-17-7-19-4-3 3 1 9 9 14s17 7 19 4c3-3-1-9-9-14zm-2252-27c-10-13-38-18-38-8 0 3 8 13 18 23 19 20 38 6 20-15zm1825 17c-5-19-23-29-23-12 0 7 20 32 26 32 1 0 0-9-3-20zm172 3c-4-10-7-26-7-35 0-11-5-15-13-11-10 3-12 10-6 21 4 10 6 23 4 30-3 6 3 12 12 12 12 0 15-5 10-17zm-2435-23c-8-5-19-9-25-9-5 0-4 3 3 6 6 2 12 12 12 21 0 13 3 13 12 4 10-10 10-15-2-22zm2500 26c0-3-4-8-10-11-5-3-10-1-10 4 0 6 5 11 10 11 6 0 10-2 10-4zm30-6c0-5-5-10-11-10-5 0-7 5-4 10 3 6 8 10 11 10 2 0 4-4 4-10zm-499-14c-6-7-9-28-6-47l5-34-10 30c-11 33-5 65 12 65 7 0 7-4-1-14zm-2017-40c-3-8-12-12-21-9-12 5-12 7-1 14 20 13 28 11 22-5zm423 8c-3-3-12-4-19-1-8 3-5 6 6 6 11 1 17-2 13-5zm1973-14c0-5-2-10-4-10-3 0-8 5-11 10-3 6-1 10 4 10 6 0 11-4 11-10zm-500-34c0-11-19-15-25-6-3 5 1 10 9 10 9 0 16-2 16-4zm670-6c0-5-5-10-11-10-5 0-7 5-4 10 3 6 8 10 11 10 2 0 4-4 4-10zm-605-30c3-5 2-10-4-10-5 0-13 5-16 10-3 6-2 10 4 10 5 0 13-4 16-10zm854-70c4 0 8-7 8-15s-4-15-8-15c-9 0-19 27-18 48 1 15 2 15 6 0 2-10 8-18 12-18zm-2535-95c-10-8-28-14-39-13-18 1-18 1 2 5 12 2 27 11 34 19 6 8 14 12 17 9s-3-12-14-20zm-94 11c0-2-9-6-20-9s-20-1-20 4 9 9 20 9 20-2 20-4z"/>
<path d="m2637 2643c-4-3-7-11-7-17s5-5 12 2c6 6 9 14 7 17-3 3-9 2-12-2z"/>
<path d="m2612 2239c2-6 8-10 13-10s11 4 13 10-4 11-13 11-15-5-13-11z"/>
<path d="m860 2160c0-5 5-10 10-10 6 0 10 5 10 10 0 6-4 10-10 10-5 0-10-4-10-10z"/>
<path d="m650 2080c-11-7-11-10-2-11 27-3 31-4 37-11 4-3 1-16-5-28-8-15-17-19-33-14-19 6-20 5-5-10 24-24 33-20 47 20 8 23 18 34 27 30 7-3 15-2 18 2 2 4-7 9-21 10s-31 6-37 11c-7 6-17 6-26 1z"/>
<path d="m610 2070c0-5 5-10 11-10 5 0 7 5 4 10-3 6-8 10-11 10-2 0-4-4-4-10z"/>
<path d="m546 2052c-9-17 2-57 16-56 8 1 14-7 14-17-1-25 14-28 28-5 8 14 8 20-1 23-6 2-22 13-35 24l-23 21 28-7c17-5 27-3 27 4 0 6-3 11-7 12-5 0-16 2-25 4-10 2-20 0-22-3z"/>
<path d="m295 2040c-3-5-1-10 4-10 6 0 11 5 11 10 0 6-2 10-4 10-3 0-8-4-11-10z"/>
<path d="m615 2040c4-6 11-8 16-5 14 9 11 15-7 15-8 0-12-5-9-10z"/>
<path d="m375 2031c-3-5-2-12 3-15s9 1 9 9c0 17-3 19-12 6z"/>
<path d="m735 2030c-3-6 1-7 9-4 18 7 21 14 7 14-6 0-13-4-16-10z"/>
<path d="m696 1988c-11-6-28-11-39-12-36-2-28-21 9-24 29-2 37 2 41 18 4 13 11 19 20 16 8-3 11-1 8 4-8 13-15 12-39-2z"/>
<path d="m796 1985c-9-26-7-32 5-12 6 10 9 21 6 23-2 3-7-2-11-11z"/>
<path d="m326 1975c4-8 10-12 15-9 14 8 10 24-6 24-9 0-12-6-9-15z"/>
<path d="m641 1914c-12-27-11-28 4-12 10 9 16 21 13 28-2 7-10-1-17-16z"/>
<path d="m990 1830c0-6 7-10 15-10s15 2 15 4-7 6-15 10c-8 3-15 1-15-4z"/>
<path d="m2328 3143c7-3 16-2 19 1 4 3-2 6-13 5-11 0-14-3-6-6z"/>
<path d="m1816 3125c-3-8-1-15 4-15 13 0 22 18 11 24-5 3-11-1-15-9z"/>
<path d="m296 3037c3-10 9-15 12-12s0 11-7 18c-10 9-11 8-5-6z"/>
<path d="m611 3018c-1-29 12-43 31-32 8 5 7 10-4 18-8 6-17 18-21 26-3 9-6 4-6-12z"/>
<path d="m696 2993c-6-14-5-15 5-6 7 7 10 15 7 18s-9-2-12-12z"/>
<path d="m915 2990c4-6 11-8 16-5 14 9 11 15-7 15-8 0-12-5-9-10z"/>
<path d="m1837 2993c-4-3-7-11-7-17s5-5 12 2c6 6 9 14 7 17-3 3-9 2-12-2z"/>
<path d="m954 2972c3-5 0-13-6-15-9-4-10-6-1-6 17-1 25 16 12 25-7 4-9 3-5-4z"/>
<path d="m1100 2949c0-5 11-9 25-9s25 2 25 4-11 6-25 8c-14 3-25 1-25-3z"/>
<path d="m1810 2950c-8-5-11-12-7-16s13-2 19 4c15 15 7 24-12 12z"/>
<path d="m1915 2950c-3-5-1-10 4-10 6 0 11 5 11 10 0 6-2 10-4 10-3 0-8-4-11-10z"/>
<path d="m1870 2906c0-2 7-7 16-10 8-3 12-2 9 4-6 10-25 14-25 6z"/>
<path d="m1225 2840c-3-5 1-10 9-10 9 0 16-5 16-11 0-5 5-7 10-4 6 3 10 11 10 17s-3 8-7 5c-3-4-12-2-19 4-8 7-14 7-19-1z"/>
<path d="m1300 2839c0-5-4-8-9-5s-11-3-14-14-1-20 4-20 9 4 9 10c0 5 6 8 13 6 6-1 9-1 5 1s-4 11-1 19 2 14-1 14-6-5-6-11z"/>
<path d="m1360 2770c20-13 33-13 25 0-3 6-14 10-23 10-15 0-15-2-2-10z"/>
<path d="m1300 2760c-8-26-7-41 2-32 6 6 8 16 5 24-3 7-6 11-7 8z"/>
<path d="m1380 2720c0-11 2-20 4-20s6 9 9 20 1 20-4 20-9-9-9-20z"/>
<path d="m1225 2710c-3-5-1-10 4-10 6 0 11 5 11 10 0 6-2 10-4 10-3 0-8-4-11-10z"/>
<path d="m3135 2690c-3-5-1-10 4-10 6 0 11 5 11 10 0 6-2 10-4 10-3 0-8-4-11-10z"/>
<path d="m1420 2673c0-11 5-11 20-3 11 6 20 12 20 13 0 2-9 3-20 3s-20-6-20-13z"/>
<path d="m1374 2641c2-22 7-45 12-53 6-10 5-11-8-1-8 7-18 10-21 6-13-12-7-21 18-25 18-4 25-1 26 11 0 9 2 28 4 43 2 17-1 27-8 25-7-1-11 6-9 16 2 9-2 17-8 17s-8-16-6-39z"/>
<path d="m2840 2629c0-5 5-7 10-4 6 3 10 8 10 11 0 2-4 4-10 4-5 0-10-5-10-11z"/>
<path d="m3127 2633c-12-12-7-22 8-17 8 4 15 10 15 15 0 11-14 12-23 2z"/>
<path d="m2906 2621c-3-5 1-11 9-14 9-4 12-1 8 9-6 16-10 17-17 5z"/>
<path d="m2855 2610c-7-12 12-40 26-40s11 20-5 36c-10 9-17 11-21 4z"/>
<path d="m2940 2600c-6-11-7-20-2-20 6 0 12 9 15 20s3 20 1 20-8-9-14-20z"/>
<path d="m2900 2551c-7-15-7-22 2-27 7-4 10-4 6 1-4 4-3 16 3 26 5 11 7 19 5 19-3 0-10-9-16-19z"/>
<path d="m1485 2470c-3-5-1-10 4-10 6 0 11 5 11 10 0 6-2 10-4 10-3 0-8-4-11-10z"/>
<path d="m2386 1633c-6-14-5-15 5-6 7 7 10 15 7 18s-9-2-12-12z"/>
<path d="m2095 1600c-3-5 1-10 9-10 9 0 16 5 16 10 0 6-4 10-9 10-6 0-13-4-16-10z"/>
<path d="m2154 1591c20-22 56-17 56 8 0 14-2 14-10 1-8-12-10-12-10-1s-3 11-15 1c-10-9-15-9-15-1 0 6-5 11-12 11-6 0-4-8 6-19z"/>
<path d="m2370 1598c0-5 5-6 10-3 6 3 10 2 10-4s7-8 15-5c23 9 18 22-10 22-14 0-25-5-25-10z"/>
<path d="m2350 1580c0-5 5-10 11-10 5 0 7 5 4 10-3 6-8 10-11 10-2 0-4-4-4-10z"/>
<path d="m2592 1565c0-35 13-71 21-58 4 7 1 27-7 45-10 23-14 27-14 13z"/>
<path d="m2386 1558c3-5 10-6 15-3 13 9 11 12-6 12-8 0-12-4-9-9z"/>
<path d="m2620 1554c0-8 5-12 10-9 6 4 8 11 5 16-9 14-15 11-15-7z"/>
<path d="m2088 1553c7-3 16-2 19 1 4 3-2 6-13 5-11 0-14-3-6-6z"/>
<path d="m2811 1454c0-11 3-14 6-6 3 7 2 16-1 19-3 4-6-2-5-13z"/>
<path d="m2760 1446c0-8 4-17 9-20 5-4 7 3 4 14-6 23-13 26-13 6z"/>
<path d="m2875 1421c-7-12 0-14 27-12 9 1 20-4 24-10 5-8 2-10-8-7-8 4-15 1-15-6 0-6 8-12 18-12s17 5 16 11c-1 5 6 9 16 7 9-2 17 1 17 6 0 6-12 12-27 14-16 3-35 8-44 12-10 4-20 3-24-3z"/>
<path d="m2276 1403c-6-14-5-15 5-6 7 7 10 15 7 18s-9-2-12-12z"/>
<path d="m2420 1413c0-6 6-15 13-20 15-13 48-13 41-1-4 5-9 7-12 4s-14 1-24 11c-10 9-18 11-18 6z"/>
<path d="m2506 1401c-15-6-16-10-7-16 8-4 9-10 3-14s-4-12 6-20c13-12 14-12 10 0-3 8-1 24 3 37 5 12 7 22 6 21-1 0-11-4-21-8z"/>
<path d="m2700 1406c0-2 7-7 16-10 8-3 12-2 9 4-6 10-25 14-25 6z"/>
<path d="m2324 1386c-8-22 3-33 18-18 9 9 9 15 0 24s-13 7-18-6z"/>
<path d="m2301 1374c0-11 3-14 6-6 3 7 2 16-1 19-3 4-6-2-5-13z"/>
<path d="m2548 1377c7-8 8-18 4-22-4-5-1-5 6-1 17 10 15 23-4 30-13 5-14 4-6-7z"/>
<path d="m2857 1366c-8-8-16-14-18-13-3 1 0-2 5-8 5-7 10-6 13 3 3 6 9 10 13 7 5-3 11-1 14 4 11 17-12 22-27 7z"/>
<path d="m2088 1363c6-2 18-2 25 0 6 3 1 5-13 5s-19-2-12-5z"/>
<path d="m2170 1361c0-6 4-13 10-16s7 1 4 9c-7 18-14 21-14 7z"/>
<path d="m2400 1362c0-4 9-8 20-9s18 2 15 8c-7 11-35 12-35 1z"/>
<path d="m2450 1360c0-5 5-10 11-10 5 0 7 5 4 10-3 6-8 10-11 10-2 0-4-4-4-10z"/>
<path d="m2353 1334c-14-15-28-22-35-18-9 6-9 9 0 12 7 2 12 8 12 13 0 16-21 9-39-13-12-13-24-19-35-15-9 4-19 6-22 6-4 0-10 4-14 11-5 8-11 6-20-5-11-13-10-15 4-9 9 3 16 2 16-4s-6-12-12-14c-9-3-8-10 5-22 10-10 23-16 30-13 8 3 13-3 13-15 0-13-6-18-17-15-9 3-23 1-30-4-10-6-6-9 14-9 16 0 26-3 24-7-7-10 55-10 70 0 6 4 14 3 18-3 15-24 35-8 46 36 10 40 15 45 35 41 13-2 21-1 19 3-3 5 2 10 10 14 8 3 15 11 14 18 0 10-2 10-6 1-2-7-9-13-14-13-4 0-6 7-3 15 4 8 2 15-4 15s-13-6-15-12c-4-10-6-10-6 0-1 6-7 12-15 12s-16 4-18 10c-1 5-13-2-25-16zm27-29c0-14-2-25-4-25s-6 11-8 25c-3 14-1 25 3 25 5 0 9-11 9-25zm17 3c-3-8-6-5-6 6-1 11 2 17 5 13 3-3 4-12 1-19zm-72-68c-3-5-12-10-18-10-7 0-6 4 3 10 19 12 23 12 15 0z"/>
<path d="m2770 1349c0-5 5-7 10-4 6 3 10 8 10 11 0 2-4 4-10 4-5 0-10-5-10-11z"/>
<path d="m2527 1333c-10-10-8-33 3-33 5 0 6 8 3 17-5 12-2 15 10 10 9-3 19-2 22 3 7 11-28 14-38 3z"/>
<path d="m2875 1322c-5-11-9-13-12-5-2 7-10 10-18 7s-11-12-8-20c3-9 11-13 17-11 6 3 12-7 13-20 1-18-5-27-19-31-12-3-17-10-13-20 3-8-2-23-11-33-15-16-14-19 4-30 11-7 18-19 15-26-7-19-23-16-24 5 0 14-2 14-9-3s-9-17-9-2c-1 19-16 23-27 5-4-6-3-8 4-4 6 4 10-1 9-13-2-30-27-5-28 28 0 23-1 24-8 6-5-11-6-25-4-32 3-7-3-10-16-6-20 5-38 33-22 33 5 0 12-6 14-12 4-10 6-10 6-1 1 6-3 14-8 17-14 9-41-4-41-20s-36-19-45-4c-3 6 2 10 12 10 15 0 15 2 3 9-8 6-18 7-22 5-5-3-11 2-14 10-3 9-11 13-16 10-6-4-5-10 3-15 10-6 10-9 2-9-7 0-10-7-7-15 4-8 10-12 15-9 11 6 11 1 3-20-3-9-10-13-15-10-9 5-13-17-10-45 2-7-2-10-8-6-6 3-11 14-12 23 0 14-2 14-6 2-3-8-12-23-21-32-14-16-13-18 3-18 10 0 16-3 12-6-3-3-15-3-27 1l-21 7 23 20 23 19-43-5c-23-3-42-1-42 5 0 5 7 9 16 9 10 0 14 6 11 14-6 16 16 40 26 29 4-3 6 5 5 19-1 15-7 24-14 21-7-2-14 4-17 14-4 16-5 16-6 1 0-10-5-18-11-18-14 0-12 37 3 43 8 4 9 6 0 6-6 1-18-6-27-14-18-19-26-19-26-1 0 8-8 16-17 18-18 4-97-34-121-59-11-11-9-13 15-14 15 0 41-2 56-4 23-3 27-1 23 12-5 12-1 14 14 10 11-3 20-1 20 3 0 5 14 5 31 0 18-5 35-8 38-5 4 2 13 0 21-6 13-7 12-9-2-9-10 0-18-6-18-12 0-8-3-9-8-3-9 13-51 13-60-1-4-5-18-15-32-22l-25-12 28 5c34 7 34 1 1-30l-27-25h42c22 0 41-4 41-10 0-5 5-10 11-10s17-7 26-15c9-10 23-13 37-9 21 7 21 6 2-15s-19-21 3-40c12-11 22-22 22-25-1-3-1-16-1-28 0-23 1-23 14 2 8 17 10 29 3 38-8 10-2 12 24 10 19-2 36-5 39-8 14-14 81-32 125-34 28-1 56-5 64-10s16-3 22 5c6 10 9 11 9 2 0-7 8-13 18-13 18 0 42-18 42-31 0-4-9-5-20-2s-20 0-20-6 3-10 8-10c19 3 42-2 42-9 0-4-18-6-40-4-46 5-55-13-11-20 41-6 64 8 55 34-4 14-2 18 5 14 6-4 11-14 11-22s5-14 11-14c5 0 8 4 4 9-8 14 13 24 46 23 34-1 38 13 8 29-12 6-19 7-16 2 3-4-6-13-19-20-13-6-24-7-24-2s5 9 10 9c6 0 10 5 10 10 0 6-7 10-15 10s-15-4-15-9-9-7-20-4-20 9-20 13c0 5 9 6 20 3 12-3 20 0 20 7 0 9 11 10 38 6 20-4 53-8 72-9s37-5 40-9c3-3 18-4 33-1l27 5-2 167-3 166-32-1c-18-1-30 2-27 7s18 9 35 9c19 0 29 5 29 15 0 23-29 18-62-10-16-14-25-25-21-25 5 0 24-13 42-29 26-24 29-29 12-24-15 4-21 1-21-10 0-9 4-18 9-21s7-15 4-26-10-17-16-13c-6 3-7 1-3-6 4-6-1-22-12-36-17-21-21-23-38-10-15 11-17 16-6 26 9 10 12 10 12 1 0-7 7-12 15-12 12 0 12 3-2 20-11 13-21 16-27 10-16-16-24-12-29 13l-4 22-8-22c-4-13-11-20-16-17-12 7-11-3 2-29 9-18 9-20-2-10-10 10-16 9-31-4-11-10-18-12-18-4 0 6 7 14 15 17 8 4 15 10 15 15 0 6-8 5-19-1-21-10-51-4-51 11 0 5-5 9-11 9-5 0-7-6-3-12 6-10 5-10-8-1-8 7-18 10-22 6s-4 1 0 11c5 13 4 17-4 12-6-3-13-2-17 4-3 6 1 13 9 16 9 3 16 12 16 20s5 14 11 14c5 0 9-10 7-22-2-18 2-23 20-22 12 0 22-4 21-10-3-23 1-36 12-36 6 0 9 7 5 15-3 9 0 15 9 15 27 0 16 28-15 39-18 6-28 6-25 1 4-6 1-10-6-10-6 0-9 8-6 20 3 13 0 20-9 20-8 0-14 7-14 15 0 18 21 20 38 3 9-9 12-9 12 1 0 7 5 9 10 6 15-9 51 5 44 17-4 6 1 8 16 3 13-4 20-3 17 2s-2 15 4 23c7 13 9 12 9-2 0-10 7-18 16-18 8 0 13 4 10 9s0 14 8 20c11 9 15 9 20-1 3-7 4-4 3 7-1 12 3 19 11 17 8-1 11 2 7 8-8 13-8 13-35-10-12-11-26-17-31-14s-25-7-44-22c-29-22-35-23-35-10 0 10-4 14-10 11-5-3-10-1-10 5 0 7 8 9 20 5 26-8 48 4 29 16-11 7-11 9 2 9 9 0 20 8 24 18 5 14 4 15-6 5-18-18-42-16-35 2 4 13 2 14-14 5-11-6-20-7-20-3s-4 1-10-7c-11-17-15-13-24 22-5 20-2 27 11 30 16 3 17 4 1 10-10 4-19 1-23-10zm-150-232c3-6-1-7-9-4-18 7-21 14-7 14 6 0 13-4 16-10zm100-50c3-5 1-10-4-10-6 0-11 5-11 10 0 6 2 10 4 10 3 0 8-4 11-10zm155-39c0-17-18-21-24-6-3 9 0 15 9 15 8 0 15-4 15-9zm45-11c8-13-5-13-25 0-13 8-13 10 2 10 9 0 20-4 23-10z"/>
<path d="m3096 1321c-11-4-20-15-22-24-2-15 0-15 22 1 19 14 33 35 22 31-2 0-12-4-22-8z"/>
<path d="m2492 1314c3-5 0-14-7-21-11-10-15-10-18 0-3 7-6 4-6-6-1-22 26-34 42-18 8 8 14 4 24-17 7-15 11-19 8-9-2 9 1 17 7 17 7 0 6 5-2 15-7 8-19 15-27 15s-12 4-8 9c3 5 0 13-6 17-7 4-10 3-7-2z"/>
<path d="m2620 1315c1-5 1-12 0-15s-3-17-4-31c-1-18 2-25 11-22 13 5 12 57-1 71-4 4-7 3-6-3z"/>
<path d="m2767 1313c-4-3-7-15-7-26 0-25 13-14 17 13 3 21 1 24-10 13z"/>
<path d="m2960 1310c0-5 5-10 11-10 5 0 7 5 4 10-3 6-8 10-11 10-2 0-4-4-4-10z"/>
<path d="m3136 1305c-3-8-1-15 4-15 6 0 10 7 10 15s-2 15-4 15-6-7-10-15z"/>
<path d="m2650 1289c0-11 4-18 10-14 5 3 7 12 3 20-7 21-13 19-13-6z"/>
<path d="m2990 1299c0-5 5-7 10-4 6 3 10 8 10 11 0 2-4 4-10 4-5 0-10-5-10-11z"/>
<path d="m618 1293c7-3 16-2 19 1 4 3-2 6-13 5-11 0-14-3-6-6z"/>
<path d="m2566 1273c9-38 14-42 14-10 0 14-5 29-10 32-7 4-8-3-4-22z"/>
<path d="m3045 1290c3-5 8-10 11-10 2 0 4 5 4 10 0 6-5 10-11 10-5 0-7-4-4-10z"/>
<path d="m440 1271c0-5 9-7 20-4s20 7 20 9-9 4-20 4-20-4-20-9z"/>
<path d="m2400 1269c0-5 5-7 10-4 6 3 10 8 10 11 0 2-4 4-10 4-5 0-10-5-10-11z"/>
<path d="m3106 1268c3-4 9-8 15-8 5 0 9 4 9 8 0 5-7 9-15 9s-12-4-9-9z"/>
<path d="m2840 1260c0-5 5-10 10-10 6 0 10 5 10 10 0 6-4 10-10 10-5 0-10-4-10-10z"/>
<path d="m736 1251c-4-5 3-7 14-4 23 6 26 13 6 13-8 0-17-4-20-9z"/>
<path d="m1380 1252c0-12 19-26 26-19 2 2-2 10-11 17-9 8-15 8-15 2z"/>
<path d="m2425 1250c-3-5-1-10 4-10 6 0 11 5 11 10 0 6-2 10-4 10-3 0-8-4-11-10z"/>
<path d="m2455 1250c-3-5-1-10 4-10 6 0 11 5 11 10 0 6-2 10-4 10-3 0-8-4-11-10z"/>
<path d="m2647 1241c-4-17-3-21 5-13 5 5 8 16 6 23-3 8-7 3-11-10z"/>
<path d="m2696 1252c6-4 14-14 17-22 4-10 6-8 6 8 1 15-5 22-16 22s-14-3-7-8z"/>
<path d="m1345 1240c-3-5 1-10 10-10s13 5 10 10c-3 6-8 10-10 10s-7-4-10-10z"/>
<path d="m2676 1218c-9-34-5-57 4-28 5 17 8 19 9 8 1-10 7-18 15-18 12 0 12 4 0 30-18 36-20 36-28 8z"/>
<path d="m2580 1214c0-8 6-11 15-8 8 4 15 9 15 13s-7 8-15 8-15-6-15-13z"/>
<path d="m1253 1194c-6-13-7-24-2-24s9 5 9 11 8 8 18 5c9-3 24-1 32 4 12 8 11 10-5 10-12 0-25 4-30 9-6 6-14 1-22-15z"/>
<path d="m446 1194c-5-14-4-15 9-4 17 14 19 20 6 20-5 0-12-7-15-16z"/>
<path d="m690 1200c0-5 5-10 10-10 6 0 10 5 10 10 0 6-4 10-10 10-5 0-10-4-10-10z"/>
<path d="m725 1190c3-5 11-10 16-10 6 0 7 5 4 10-3 6-11 10-16 10-6 0-7-4-4-10z"/>
<path d="m2310 1190c0-5 5-10 10-10 6 0 10 5 10 10 0 6-4 10-10 10-5 0-10-4-10-10z"/>
<path d="m2787 1193c-4-3-7-13-7-22 1-13 3-13 11 2 11 19 8 33-4 20z"/>
<path d="m650 1181c8-6 18-7 22-5 4 3 8 1 8-5 0-5-4-13-10-16-5-3-10-2-10 3s-18 9-40 10-40-3-40-8c0-6-7-10-15-10s-15-7-15-15c0-11-7-14-25-9-21 5-24 3-19-10 9-24-14-46-47-46-18 0-29-5-29-14 0-8-7-16-15-20-8-3-15-2-15 2s-8 8-19 8-17-5-14-13c3-7-1-13-8-14-8 0-3-5 11-10 23-10 24-11 8-23-24-18-23-26 5-26 19-1 20-2 5-11-13-7-26-6-45 4-33 17-75 17-81 0-2-7 3-13 11-13 16 0 17-16 4-37-5-8-4-13 2-13 20 0 11-19-11-25-13-4-38-13-56-22-18-8-40-12-47-9-8 3-17 1-20-4-4-6 3-10 14-10 24 0 28-15 6-24-8-3-15-1-15 4 0 6-11 10-25 10h-26l26-26c14-14 32-24 39-21s19 1 27-4c10-6 11-9 2-10-7-1-17-2-22-3-6 0-15-6-21-12-8-8 3-10 42-7 31 3 48 1 41-4s-10-23-8-43c4-29 3-31-5-12-12 27-26 28-40 3-14-26-13-34 3-28 8 3 20 1 28-4 11-7 10-9-5-9-14 0-17-6-14-25 6-27-1-32-19-14-7 7-12 6-17-6-4-10-2-14 5-9 7 4 10 1 7-7s-15-13-28-11c-18 2-21-2-17-17 4-16-2-21-27-27-17-3-35-12-39-18-6-8-10-8-13 0-3 7-14 10-24 7-19-5-20-16-20-254v-249h124 125l8 42 9 43 99 6c55 4 121 7 147 8 30 1 47 5 45 12-1 6 5 14 13 16 12 4 12 3 1-5-14-10 2-28 17-18 5 3 41 6 80 7 40 1 72 6 72 11 0 4 5 8 11 8 5 0 8-4 4-9-3-6 9-7 30-4 29 5 35 3 36-13 2-36-3-69-12-81-13-14 3-24 20-13 8 4 11 15 8 24-4 10-2 16 6 15 6-1 20 1 30 6 24 10 29 3 18-26-5-13-10-18-10-11-1 17-31 15-31-3 0-13 28-15 191-15 124 0 188 3 184 10-3 5 1 10 10 10s13-4 10-10c-4-6 12-10 39-10 25 0 46 4 46 9 0 14-28 21-33 8-3-9-8-8-18 2-9 9-9 11-1 7 6-4 12-2 12 4 0 7 7 9 16 6 21-8 44 11 44 35 0 16 4 17 25 9 27-10 33-2 13 18-10 10-8 14 10 18 12 4 22 10 22 14 0 14-24 6-47-15-32-31-66-55-76-55-6 0 3 10 17 21 21 17 25 24 14 30-20 13-29 11-26-7 2-11-11-21-39-33-42-16-76-41-38-27 14 5 17 4 9-4-7-7-20-6-45 6-47 23-46 22-16 49 33 28 19 43-18 19-15-10-25-12-25-5 0 6 6 11 13 11 6 1 2 9-11 20s-18 21-12 25c5 3 10 1 10-4 0-6 7-11 16-11 10 0 14 6 10 15-3 8-1 15 5 15 5 0 21 11 34 25 14 13 25 19 25 13 0-7 6-6 15 2 13 11 14 10 9-4-3-9-14-16-24-16-15 0-18-6-14-27 3-16 9-32 14-37s-2-18-16-31c-13-12-24-25-24-29 0-11 51-2 51 9 1 18 22 36 35 31 7-3 18 2 25 10s18 13 25 10 16-1 19 3c3 5 14 7 25 4 14-4 20 0 20 11 0 10-9 16-22 17-22 0-22 1-3 9s19 9-2 9c-13 1-23 5-23 10 0 15 29 21 54 11 18-6 26-5 29 4 5 14 55 31 64 22 3-2 0-13-6-23-10-17-10-17-11-1 0 17-1 17-20 1-11-10-20-24-20-31 0-12 3-12 15-2 9 7 18 10 22 7 3-4 15 5 26 19 15 20 22 23 28 12 13-19 11-28-6-28-8 0-15-7-15-15 0-12 14-15 65-15 39 0 65-4 65-11 0-5 5-7 10-4 6 4 10-6 10-24s7-34 18-40c15-9 14-13-13-35-31-26-51-34-40-16 3 6 1 10-5 10-7 0-9-7-6-16s6-18 6-20 21-4 46-4c32 0 51 5 61 18 14 16 14 16 9 0-4-13 0-18 14-18 11 0 18 6 16 12-1 7-1 10 1 5 3-4 10-4 15-1 7 4 8 2 4-4-5-9 34-12 150-12 137 0 159 2 171 18 13 16 14 16 9 0s26-17 462-17c353 0 468 3 474 12s10 9 20-1c6-6 31-12 55-12h43v355c0 209-4 355-9 355s-16 3-24 6c-10 3-18-2-22-16-6-18-9-19-23-8-13 11-14 11-8-1 6-9 4-12-5-9-8 3-15 10-15 16-1 7-2 17-3 22 0 6-12 10-26 10s-25-4-25-10c0-5-7-10-16-10-11 0-14-6-9-20 7-23 6-24-30-10-15 6-24 6-20 1 3-5-4-13-16-16-14-5-25-2-30 6-7 11-9 10-9-3 0-10-11-20-25-24-14-3-32-16-40-27-8-12-15-17-15-11 0 12-5 13-65 17-45 3-97 26-61 27 19 0 19 0 1 13-23 17-3 33 22 18 10-6 14-11 8-11-5 0-3-5 5-10 13-8 12-10-2-10-10 0-18-4-18-9s11-8 25-7c16 0 23 6 20 14-3 7 0 10 5 7 6-3 10-1 10 4 0 6 7 11 15 11s15 4 15 8c0 5-13 7-29 4-23-3-30 1-36 17-7 22-20 27-30 11-3-5-18-10-32-10-21 0-23 2-13 15 10 12 6 13-27 9-29-4-34-3-23 5s11 11 3 12c-7 1-19 2-25 3-7 1-18-5-24-13-15-19-84-8-103 16-13 17-13 17-8 0 7-19-20-37-32-21-9 13-35 11-43-3-9-13-51-5-42 8 3 5 2 9-3 10-4 0-16 2-26 4-9 2-15 0-12-5s-9-12-27-15c-45-10-68-27-68-49 0-16 5-17 33-11 33 8 67 9 102 5 18-2-32-13-110-24-16-3-41 1-54 9-18 9-31 10-48 2-30-13-29-23 3-31 31-8 45 1 24 14-12 8-12 10 3 10 11 0 21-9 24-20 4-17 8-18 20-8 11 9 16 9 23-3 8-12 13-12 30-1 17 10 25 10 36 1 23-19 16-25-28-25-24 1-49-3-56-8-21-15-50-17-58-5-4 6-1 15 6 19s-5 11-31 18c-32 8-45 8-50 0-4-6-14-8-24-5-10 4-24-2-38-17-18-18-30-22-59-18-21 2-35 8-32 13s16 6 30 3c14-4 24-2 24 5 0 6-9 11-19 11-21 0-37 17-27 27 3 3 24 6 46 6s40 4 40 9c0 7-23 12-43 9-5-1-5 3-2 9 4 6 13 9 21 6 18-7 27 9 11 22-6 5-26 13-44 16-25 6-34 3-42-12-13-24-51-36-51-16 0 16-16 19-25 4-4-6-11-8-16-5-5 4-9 1-9-6s-3-9-6-6c-4 3-16 2-27-4s-17-7-13-1c3 5-5 10-19 10s-26-7-28-17c-3-11-5-9-6 6-1 16 6 23 29 28 31 7 43 28 13 23-10-1-24 1-30 5-8 5-13 3-13-7 0-25-22-66-37-66-7 0-13 5-13 12 0 6-3 9-6 5-3-3-3-15 1-26 5-17 10-19 30-11 16 6 27 6 30-1 4-5 15-7 24-4 11 3 18 0 18-9 0-11-6-12-29-4-19 7-32 7-41 0-7-6-18-7-26-2-9 5-20 3-29-7-13-13-13-16-1-24 11-7 11-9-3-9-10 0-18-7-18-15 0-19-24-30-42-19-7 4-32 9-57 11-25 1-49 8-54 15-6 9-7 7-3-5 5-15 2-17-17-13-12 3-16 3-9 0 23-11 13-31-13-26-14 2-22 9-19 14 4 6-3 5-15-1-11-7-21-21-21-33 0-17 3-19 12-10 16 16 25 15 25-3 0-23-38-18-80 11-39 26-60 26-38 0 7-8 18-13 26-10 17 7 31-16 15-26-7-4-20 0-31 11s-26 19-34 19-14 5-12 11c1 6-3 13-10 16s-9-4-6-19c4-13 2-20-3-15s-9 12-9 15c0 4-4 13-8 20-5 6-5 12 0 13 12 1 45 7 67 13 16 4 21 13 21 38-1 18 4 36 10 40 5 4 0 8-12 8-13 0-23 5-23 11s-8 9-19 6c-14-3-18 1-16 17 4 35 4 36 20 36 8 0 17 14 21 35 3 19 10 35 14 35 13 0 18 49 6 54-7 3-7 8 3 14 10 7 6 10-13 10-25 0-26-2-10-19 15-17 15-19 0-35-9-9-20-13-24-10-3 4 0 11 8 17 13 8 12 12-7 28-16 14-19 21-10 30 8 8 7 11-5 11-9 0-19-4-22-8-3-5-20-9-38-10l-33-1 28 25c16 13 22 24 14 24-7 0-23-9-35-20-23-22-42-26-42-10 0 6 6 10 13 10s18 9 24 19c8 13 21 18 38 17 14-2 28 1 31 5 3 5 0 9-5 9-6 0-11 5-11 12 0 6 9 3 20-7 16-14 20-15 20-4 0 8 11 16 26 17 14 1 23-2 19-8-3-6 0-10 8-10 23 0 28 25 6 28-11 1-28 3-38 4-11 1-17 6-15 10 3 4 0 8-7 8s-10 2-7 5 17 0 32-6c19-9 35-10 62-1 30 9 33 8 23-4-9-11-7-14 16-14s26 2 15 15c-10 12-10 15 4 15 18 0 22 15 6 25-5 3-10 15-10 26 0 10-6 19-12 19-7 1 2 7 21 15 23 11 31 20 27 31-3 9-6 17-6 18s-18 0-40-2c-32-3-40-1-40 12 0 9-5 16-10 16-6 0-9-6-8-12 2-8-6-12-17-11-10 1-26-2-35-7s-22-5-30 0-22 3-33-3c-15-9-21-9-24 1-3 6-9 12-14 12-6 0-8-4-4-9 3-5-4-12-15-16-20-6-27-29-12-38 4-2 1-2-7 0s-11-2-8-11c4-10 0-12-15-8s-19 2-13-7c5-9 21-11 51-6 37 5 44 4 44-10 0-11-5-15-16-11-8 3-12 2-9-4s0-10-7-10c-9 0-9-3 2-10s6-10-20-10c-23 0-31-3-21-9 8-5 9-11 3-15-5-3-15 1-22 9-17 20-36 19-60-5-21-21-27-60-10-60 6 0 10-6 10-13 0-15-40-18-40-2 0 5-5 2-11-7-5-10-16-18-23-18-8 0-16-8-18-18-5-16 1-18 55-17 45 1 57-1 45-9-15-9-15-12 3-27 19-17 19-17-3-17-13-1-45-5-71-10-45-8-49-7-57 12s-9 19-9-6c-1-14 5-29 12-31 6-3 2-6-9-6-23-1-40 24-24 34 13 8 13 55 0 55-9 0-15-42-11-82 1-10-4-18-13-18-22 0-20-20 2-21 9 0 12-3 5-6-15-6-62 28-63 45 0 9 5 10 19 2 12-6 22-6 26-1 7 12-12 24-25 16-5-3-10-2-10 4s11 13 24 17c17 4 23 12 22 29-1 20-6 23-33 20-18-1-30 1-27 6s0 9-5 9c-6 0-11-6-11-14 0-17-21-26-68-27-30 0-33-2-17-9 11-5 16-10 10-11-5-1 10-5 35-8 26-3 48-2 52 4s8 2 8-7c0-10-3-18-7-18-5 0-9-21-11-47-1-26-6-51-10-54-4-4-77-12-162-19s-172-13-192-15c-39-4-45 3-29 33 6 9 12 29 15 44 10 43 30 55 108 62 130 12 158 17 158 32 0 10-8 13-22 10-13-3-53-8-90-11-38-4-68-11-68-16 0-6-6-7-12-2-14 8-19 10-43 12-13 1-12 6 2 37 18 37 74 74 113 74 11 0 20 5 20 10 0 14-48 12-52-2-2-6-12-9-21-5-15 6-13 13 18 56 34 46 39 50 88 55 111 12 114 13 65 16-27 1-52 4-58 5-5 1-18 3-27 4-15 1-14 4 5 17 12 8 20 20 17 25s0 6 8 4c7-3 22 4 32 16 19 20 19 21 2 34s-17 14 3 20c11 4 26 2 33-3 8-7 22-3 45 13l33 22-32 7c-44 8-57 7-39-3zm-55-71c3-5-3-10-15-10s-18 5-15 10c3 6 10 10 15 10s12-4 15-10zm545-45c0-2-6-5-13-8-8-3-14 1-14 8s6 11 14 8c7-3 13-6 13-8zm86-9c-5-20-2-25 16-29 13-2 7-4-13-3-31 1-36 4-35 22 0 13 6 19 14 17 6-3 12 0 12 6s3 11 6 11 3-11 0-24zm49 13c11-16 1-19-13-3-7 8-8 14-3 14s13-5 16-11zm-729-12c4-4-5-7-19-7-15 0-27-5-27-12 0-6-3-8-6-5-4 4-2 13 5 21 12 14 35 16 47 3zm-81-7c3-6-1-7-9-4-18 7-21 14-7 14 6 0 13-4 16-10zm715 0c0-5-4-10-10-10-5 0-10 5-10 10 0 6 5 10 10 10 6 0 10-4 10-10zm-155-128c4-10 10-10 25-2 16 9 18 8 14-5-7-16-24-18-64-5-17 5-19 8-7 9 11 1 17 10 18 29 1 20 3 22 6 7 2-11 6-26 8-33zm19 32c3-8 2-12-4-9s-10 10-10 16c0 14 7 11 14-7zm-679-74c3-5-4-6-15-3s-22 9-25 13c-3 5 4 6 15 3s22-9 25-13zm676-20c5 0 9-4 9-8 0-5-7-9-15-9-10 0-15 9-14 26s3 20 6 9c2-10 9-18 14-18zm-31 0c0-5-5-10-11-10-5 0-7 5-4 10 3 6 8 10 11 10 2 0 4-4 4-10zm-693-6c-3-3-12-4-19-1-8 3-5 6 6 6 11 1 17-2 13-5zm833-8c0-2-6-9-14-15-11-9-16-9-22 0-4 7-3 9 4 5 6-3 13-2 17 4 6 10 15 14 15 6zm-900-27c0-5-4-7-10-4-5 3-10 1-10-4 0-6-4-11-8-11-5 0-9 7-9 15s9 15 19 15 18-5 18-11zm933-6c-7-2-19-2-25 0-7 3-2 5 12 5s19-2 13-5zm-393-13c0-5-7-10-16-10-8 0-12 5-9 10 3 6 10 10 16 10 5 0 9-4 9-10zm339 6c-12-10-60-16-54-6 3 5 18 10 32 10 15 0 24-2 22-4zm-412-22c-3-3-12-4-19-1-8 3-5 6 6 6 11 1 17-2 13-5zm489-73c-4-6-16-11-28-11-13 0-18-5-15-14 4-10 0-12-14-9-19 5-19 7-3 24 9 11 23 19 31 19 7 0 13 5 13 12 0 9 3 9 11 1 6-6 8-16 5-22zm704-11c0-5-5-10-11-10-5 0-7 5-4 10 3 6 8 10 11 10 2 0 4-4 4-10zm-1580-11c11-7 1-8-35-3-27 4-52 8-54 10-10 9 76 3 89-7zm455-7c-3-3-11 0-18 7-9 10-8 11 6 5 10-3 15-9 12-12zm85 4c0-3-4-8-10-11-5-3-10-1-10 4 0 6 5 11 10 11 6 0 10-2 10-4zm245-15c-3-6-11-11-16-11s-4 6 3 14c14 16 24 13 13-3zm1396-4c-8-8-16-7-27 5-14 14-14 15 11 10 19-3 23-8 16-15zm-1693-12c-3-3-9 2-12 12-6 14-5 15 5 6 7-7 10-15 7-18zm1628-2c-10-10-19 5-10 18 6 11 8 11 12 0 2-7 1-15-2-18zm114 17c0-5-4-10-10-10-5 0-10 5-10 10 0 6 5 10 10 10 6 0 10-4 10-10zm-2280-25c0-8-2-15-4-15s-6 7-10 15c-3 8-1 15 4 15 6 0 10-7 10-15zm893 0c1-15-33-19-47-5-8 9-4 10 19 5 24-5 27-4 15 5-10 8-11 10-2 8 8-2 14-8 15-13zm1424 9c-3-3-12-4-19-1-8 3-5 6 6 6 11 1 17-2 13-5zm-1636-27c-10-9-11-8-5 6 3 10 9 15 12 12s0-11-7-18zm902 16c3-5-15-18-39-31-24-12-44-18-44-12 0 5 8 11 18 11 16 1 16 2-1 6-9 2-15 9-12 14 4 5 17 6 31 3 14-4 24-2 24 5 0 12 16 15 23 4zm492-11c-3-3-11 0-18 7-9 10-8 11 6 5 10-3 15-9 12-12zm-1240-2c3-5 1-10-4-10-6 0-11 5-11 10 0 6 2 10 4 10 3 0 8-4 11-10zm1285 0c0-5-4-10-10-10-5 0-10 5-10 10 0 6 5 10 10 10 6 0 10-4 10-10zm110-30c-6-12-14-20-17-17-2 3 1 14 8 26 7 11 15 18 17 16s-2-13-8-25zm106 18c4-5-9-8-30-8-20 0-35 4-32 8 6 10 52 10 62 0zm-1856-18c11-11 15-20 9-20-7 0-9-10-4-27 4-16 9-46 11-67 3-22 7-44 10-48s-2-8-10-8c-11 0-14 10-13 40 2 23-2 40-8 40-15 0-86-39-110-60-21-19-100-31-221-34l-71-1-21 37c-11 21-17 38-12 38 4 0 11 16 14 35 4 19 15 39 25 44 10 6 62 15 117 21 54 6 119 15 144 19 81 15 119 12 140-9zm305 10c3-5 1-10-4-10-6 0-11 5-11 10 0 6 2 10 4 10 3 0 8-4 11-10zm161-22c-17-24-80-35-93-15-4 6 0 8 10 4 9-3 19-2 22 2 7 13-30 20-49 9-9-5-16-18-16-28 0-11-7-20-15-20-9 0-12 6-8 18 6 15 4 15-15-2-12-11-22-14-22-8 0 7-9 12-20 12-41 0-18 18 38 30 72 14 79 15 124 7 28-5 37-3 42 10 4 9 9 13 12 10s-1-16-10-29zm1433 15c0-11-3-13-6-5-2 6-9 10-14 6-5-3-9 0-9 5 0 6 7 11 15 11s15-8 14-17zm176 7c3-5 1-10-4-10-6 0-11 5-11 10 0 6 2 10 4 10 3 0 8-4 11-10zm-768-25c-25-18-21-53 6-58 17-4 15-5-8-5-16 0-36 0-42-1-18-1-16-21 1-21 8 0 18-4 21-10 3-5-8-9-28-8-19 1-40-3-47-7-9-5-11-4-6 3 7 12-10 17-46 14-11-1-15 4-12 12 4 11 11 11 34 3 25-9 32-7 63 19 32 26 51 54 27 39-5-3-10-2-10 4 0 5 6 12 13 15 6 4 2 4-10 2-13-2-23 0-23 4 0 11 29 17 59 11 22-3 22-5 8-16zm980 18c-4-3-2-12 4-19 8-9 5-11-11-7s-18 8-9 19c6 8 14 14 17 14s2-3-1-7zm-2822-13c3-5 1-10-4-10-6 0-11 5-11 10 0 6 2 10 4 10 3 0 8-4 11-10zm686-7c13-17 13-17-6-3-11 8-22 16-24 17-2 2 0 3 6 3s17-8 24-17zm39 13c0-11-19-15-25-6-3 5 1 10 9 10 9 0 16-2 16-4zm36-11c-11-8-25-15-30-15-6 1 0 7 14 15 32 19 40 18 16 0zm857-13c-6-23-30-28-67-13-19 7-19 8 2 13 12 4 20 2 16-3-3-5 2-9 10-9s20 9 26 21c14 26 21 21 13-9zm155-26c-11-11-16-11-26 1-8 7-8 13-2 13 5 0 9 3 9 8-5 28 2 35 17 14 13-19 13-24 2-36zm769 22c-3-8-6-5-6 6-1 11 2 17 5 13 3-3 4-12 1-19zm-1017 6c0-3-6-12-14-19-17-18-29-8-13 11 12 14 27 18 27 8zm520-4c0-5-2-10-4-10-3 0-8 5-11 10-3 6-1 10 4 10 6 0 11-4 11-10zm440 0c0-5-5-10-11-10-5 0-7 5-4 10 3 6 8 10 11 10 2 0 4-4 4-10zm-1856-19c3-5-1-11-9-14-9-4-12-1-8 9 6 16 10 17 17 5zm1291-1c29-1 63-29 48-38-7-4-10-17-6-30 5-20 7-21 18-6 21 30 36 12 18-23-17-36-33-43-34-15 0 10-3 12-6 5-5-15-33-18-33-4 0 5 8 12 17 15 15 6 15 8-1 24s-18 16-38-8c-15-17-19-19-15-7 4 10 7 25 7 34s6 13 14 10 19 0 25 7c9 10 7 15-9 19-11 3-20 0-21-6 0-8-2-8-6 1-2 6-13 12-24 12-10 0-19 4-19 10 0 5 10 8 23 6 12-3 31-5 42-6zm-1218-6c-3-3-12-4-19-1-8 3-5 6 6 6 11 1 17-2 13-5zm1003-4c0-5-2-10-4-10-3 0-8 5-11 10-3 6-1 10 4 10 6 0 11-4 11-10zm-292-13c-7-8-23-19-35-25-17-9-22-9-26 3-4 9-1 12 9 8 7-3 14 0 14 7 0 6 4 9 9 5 5-3 12-1 16 5 3 5 11 10 16 10 6 0 4-6-3-13zm112-15c-6-2-8-8-4-13 9-15-13-10-26 6-11 13-10 14 4 9 11-4 16-1 16 12 0 16 2 17 10 4 6-10 6-16 0-18zm1095 18c3-5 1-10-4-10-6 0-11 5-11 10 0 6 2 10 4 10 3 0 8-4 11-10zm-1981-16c4-9 2-22-4-29-5-6-7-16-3-21s1-3-7 5c-11 10-12 15-2 18 24 9 12 25-15 19s-27-6-9 9c25 19 32 19 40-1zm211 6c4-6-1-7-11-3-13 5-15 3-9-8s5-11-5-2c-14 13-43 6-34-8 3-5-2-6-10-3-34 13-12 28 46 33 9 0 20-3 23-9zm1150 0c3-5 1-10-4-10-6 0-11 5-11 10 0 6 2 10 4 10 3 0 8-4 11-10zm665 6c0-2-7-7-16-10-8-3-12-2-9 4 6 10 25 14 25 6zm-1910-21c0-6-6-12-13-12-8 0-14 6-14 12s6 12 14 12c7 0 13-6 13-12zm514 3c-5-9-2-8 9 1 10 8 20 11 24 7 3-3 1-6-5-6s-9-7-5-15c4-13-1-15-28-11-19 3-28 3-21 0 6-3 12-14 12-24 0-18 25-34 40-25 5 3 11 1 14-4 3-4-16-8-42-8s-56-4-66-8c-15-6-17-5-11 5 6 9 4 11-5 5-8-5-18-1-26 10-8 10-17 15-21 11s-2-11 5-15 10-15 6-24c-3-9-2-18 2-18 39-6 60-6 69 1 18 14 119-10 136-32 11-14 18-17 23-9 4 6 14 11 22 11s27 11 41 24c26 25 27 25 51 6 13-11 29-17 36-13 6 3 4-2-5-13-9-10-19-26-22-34-4-11-6-10-7 5-1 11-2 27-1 35 1 9-1 11-6 5-4-6-15-10-23-10-20 2-50-14-50-25 0-6 6-10 14-10s16-3 19-7c2-5 2-3 1 4-2 6 4 14 13 17 21 8 31-3 14-13-18-12-5-31 22-32 22 0 22 0-1-12-19-8-26-8-33 4-8 11-9 10-7-5 2-10-3-21-9-23-7-3-13 0-13 7 0 6-5 8-10 5-6-4-8-15-5-26 5-15 1-19-15-19-13 0-24 8-27 20-3 11-9 17-15 14-5-3-6-15-2-27 6-22 6-22-14 1-17 19-22 21-29 8-7-12-11-12-26-2-15 12-13 14 23 20 22 3 40 11 40 16 0 6 10 11 23 11 18 1 18 2 4 6-11 3-16 11-13 19s-1 14-9 14-15-7-15-15-7-15-15-15c-9 0-18-7-21-15-5-13-8-13-21 0-19 20-39 20-23 0 10-12 10-15-2-15-8 0-20 6-27 12-11 11-13 10-8-5 4-10 3-16-2-12-5 3-11 0-13-7-3-7-7-5-11 6-5 11-3 15 5 10 6-4 8-3 4 4s-17 8-39 1c-46-13-57-10-22 7 20 9 23 13 9 10-37-6-50 11-14 19 18 4 35 3 39-2 3-5 12-8 19-7 6 1 24 3 40 4 19 2 22 4 9 7-11 3-16 11-13 19 7 19-23 31-34 14-4-7-17-10-29-7s-19 2-16-3c5-9-18-20-41-20-7 0-11 6-8 14s12 12 20 9c10-3 12 0 8 10-3 8-14 17-25 20-15 4-19 0-19-23 0-36-40-47-65-17-15 18-16 19-1 14 10-4 16-1 16 8 0 8-3 14-7 14-17-3-24 2-18 12 5 7 14 4 28-8 19-17 20-17 14 0-4 9-2 17 3 17s7 7 4 15c-4 8-1 15 5 15s11-7 11-15 4-15 10-15c5 0 7 7 3 16-5 14-3 15 15 5 11-6 23-7 26-2 8 12-26 39-46 36-10-2-18 0-18 5 0 4 23 10 50 14 45 6 62 17 43 29-5 2-3 3 4 1 6-1 14 0 17 4 4 3 19 8 34 10s29 5 31 8c10 10 22 3 15-8zm322 0c4-7 4-10-1-6-4 4-14 3-22-3-13-11-19 2-6 14 10 11 21 8 29-5zm494-8c0-4-7-10-15-14-10-4-15 1-15 14s5 18 15 14c8-4 15-10 15-14zm-1215 0c-3-5-12-10-18-10-7 0-6 4 3 10 19 12 23 12 15 0zm460 0c-3-5-11-10-16-10-6 0-7 5-4 10 3 6 11 10 16 10 6 0 7-4 4-10zm285-5c-17-21-5-45 22-45 22 1 22 1 4 15-16 12-17 15-4 15 26 0 31-30 6-39-37-14-64 29-36 57 17 17 23 15 8-3zm720 1c-7-7-13-7-20 0-6 6-3 10 10 10s16-4 10-10zm207-2c-3-3-12-4-19-1-8 3-5 6 6 6 11 1 17-2 13-5zm-1712-14c-3-5-10-10-16-10-5 0-9 5-9 10 0 6 7 10 16 10 8 0 12-4 9-10zm-910-11c19-9 18-9-2-5-13 2-23 0-23-5 0-4-7-6-15-3-8 4-15 10-15 15 0 11 29 10 55-2zm830 1c3-5-1-10-9-10-9 0-16 5-16 10 0 6 4 10 9 10 6 0 13-4 16-10zm245-8c3-3-1-7-8-9-6-3-9-10-5-16s0-8-10-4c-11 4-17 1-17-8 0-8-4-15-9-15s-17-3-27-7c-14-5-16-2-12 14 3 11 1 29-5 39-10 18-9 18 10 2 27-24 40-23 18 2-17 19-16 19 21 13 22-3 41-8 44-11zm398 5c-16-17-67-27-73-16-7 10 32 22 44 14 5-3 12-1 16 5 3 5 11 10 16 10 6 0 4-6-3-13zm152-1c8-2 21 1 28 7s12 6 12 0c0-15-45-32-60-23-7 4-19 6-27 3s-13 2-13 12c0 13 5 16 23 11 12-4 29-8 37-10zm1097-23c-3-10-5-4-5 12 0 17 2 24 5 18 2-7 2-21 0-30zm-2127 17c0-5-11-10-25-10s-25 5-25 10c0 6 11 10 25 10s25-4 25-10zm80 6c0-11-19-15-25-6-3 5 1 10 9 10 9 0 16-2 16-4zm277-2c-3-3-12-4-19-1-8 3-5 6 6 6 11 1 17-2 13-5zm598-4c-3-5-11-10-16-10-6 0-7 5-4 10 3 6 11 10 16 10 6 0 7-4 4-10zm-780-7c-11-3-26-10-33-15-9-8-11-7-6 6 4 10 16 16 33 15 20-1 22-2 6-6zm-71-18c3-8 1-15-4-15-6 0-10 7-10 15s2 15 4 15 6-7 10-15zm1186-12c0-11-7-14-24-11-14 3-31 1-38-3-11-7-11-9 0-9 7 0 10-5 7-10-4-6-11-7-17-4-6 4-14 0-19-7-4-7-11-10-15-7-3 4 1 14 10 23 24 24 20 28-19 22-19-3-35-2-35 4 0 5 10 10 23 10 12 1 34 2 49 3s30 5 33 8c11 11 45-4 45-19zm-1349-6c-10-9-11-8-5 6 3 10 9 15 12 12s0-11-7-18zm379 13c-8-5-19-10-25-10-5 0-3 5 5 10s20 10 25 10c6 0 3-5-5-10zm586-5c-3-10 1-15 12-15 16-1 16-1-1-11-9-5-22-7-28-4-6 4-17-1-24-11-8-11-15-14-15-7 0 11 48 63 58 63 2 0 2-7-2-15zm1284-1c0-8-5-12-10-9-6 4-8 11-5 16 9 14 15 11 15-7zm-2184-12c-10-2-22 0-28 6s0 7 19 4c21-5 23-7 9-10zm-49-17c34 4 59 1 79-9 26-14 29-14 39 4 7 14 14 17 25 10 14-9 7-14-15-11-5 1-1-6 10-15 11-8 19-21 17-27-2-7 0-9 4-5s16-2 26-14c18-21 18-23 2-28-13-5-8-10 22-23 21-9 31-16 21-16-10-1-20-7-23-15s-13-12-23-9c-10 2-25-3-34-11-23-24-25-20-21 29 3 27 0 45-6 45-5 0-10-24-10-55 0-60-6-67-72-79-21-4-38-12-38-18 0-7-5-6-15 2-11 9-38 11-108 5-50-5-140-9-198-10l-107-1 10 26c5 14 11 38 13 53 6 46 45 117 74 131 14 7 79 19 144 26 73 8 117 17 117 24s3 6 9-2c5-9 22-11 58-7zm1140 9c-3-3-12-4-19-1-8 3-5 6 6 6 11 1 17-2 13-5zm1068-4c-3-5-12-10-18-10-7 0-6 4 3 10 19 12 23 12 15 0zm-2530-10c-3-5-11-10-16-10-6 0-7 5-4 10 3 6 11 10 16 10 6 0 7-4 4-10zm1778-5c-2-8-11-11-19-8-9 3-14-1-14-12 0-14-3-15-15-5-8 7-27 10-41 7-16-3-22-1-16 5s22 11 36 11c14 1 26 4 26 7s11 6 24 6c17 1 23-3 19-11zm812 5c-3-5-12-10-18-10-7 0-6 4 3 10 19 12 23 12 15 0zm-1785-22c40-3 45-6 54-35 5-18 13-33 17-33 5 0 9-7 9-15s-4-15-10-15c-5 0-10 6-10 14 0 14-65 28-76 17-9-10-48-7-60 4-18 15-5 26 17 15 11-6 24-8 29-5 13 8-11 34-26 28-7-2-15 0-19 6-3 6-1 11 4 11 6 0 11 8 11 18 0 11 3 13 8 5 4-6 27-13 52-15zm845 12c3-5-3-10-15-10-13 0-19-4-14-12 4-7 3-8-5-4-9 6-9 11 0 22 14 16 25 18 34 4zm304-13c12 4 10 1-4-11-11-10-15-15-10-12 6 2 17 0 25-5 11-7 8-8-10-5-14 3-33 5-42 5-10 1-18 8-18 17 0 14 3 14 15 4 13-11 14-10 9 6-6 15-4 17 6 7 7-6 20-9 29-6zm-359-16c0-5-9-7-20-4s-20 7-20 9 9 4 20 4 20-4 20-9zm-1900-11c0-5-5-10-11-10-5 0-7 5-4 10 3 6 8 10 11 10 2 0 4-4 4-10zm1954-15c-4-8-8-15-10-15s-4 7-4 15 4 15 10 15c5 0 7-7 4-15zm116 5c0-5-5-10-11-10-5 0-7 5-4 10 3 6 8 10 11 10 2 0 4-4 4-10zm-204-16c-6-15-4-15 20 1 14 9 28 14 32 11 3-3 0-6-6-6-7 0-12-4-12-10 0-5 9-10 21-10 11 0 17-5 14-10-4-6-11-8-16-4-5 3-17 0-26-8-14-11-16-11-8 1 6 11 4 13-8 8-9-3-19-2-22 3-5 9 4 40 12 40 3 0 2-7-1-16zm754 12c0-2-7-6-15-10-8-3-15-1-15 4 0 6 7 10 15 10s15-2 15-4zm350-16c0-5-7-10-16-10-8 0-12 5-9 10 3 6 10 10 16 10 5 0 9-4 9-10zm-2777-15c4-8 2-17-3-20-6-4-10 3-10 14 0 25 6 27 13 6zm2714-7c-3-8-6-5-6 6-1 11 2 17 5 13 3-3 4-12 1-19zm-2937 2c0-5-2-10-4-10-3 0-8 5-11 10-3 6-1 10 4 10 6 0 11-4 11-10zm2311-3c33-11 35-15 24-30-11-16-13-16-19-1-4 9-12 14-22 10-8-3-12-2-9 3 3 6-3 14-12 20-25 14-5 13 38-2zm-586-6c-3-5-1-12 5-16s8-11 5-16c-4-5 4-10 17-10 18-1 19-2 5-6-10-3-24 1-32 7s-19 9-24 6c-5-4-12-2-16 4-3 5-11 10-18 10-8 0-8-3 1-12 7-7 12-16 12-22s-5-5-12 2-17 8-30 1c-27-15-23 7 6 26 13 9 31 13 41 9 12-5 16-4 12 4-4 6 1 13 10 15 10 3 19 5 21 6 2 0 1-3-3-8zm-1540-11c-3-5-16-10-28-9-20 1-20 2 3 9 14 4 26 8 28 9s0-3-3-9zm962-4c11-11-1-14-29-9-16 3-28 9-28 13 0 9 47 6 57-4zm933-2c-10-11-9-14 3-14 9 0 19-5 23-12s3-8-4-4-12 2-12-3c0-14-36 21-36 34-1 6 8 12 18 12 16 2 17-1 8-13zm-1026-3c4-5-3-7-14-4-23 6-26 13-6 13 8 0 17-4 20-9zm-821-8c-7-2-19-2-25 0-7 3-2 5 12 5s19-2 13-5zm1687-8c0-8-7-15-16-15-14 0-14 3-4 15 7 8 14 15 16 15s4-7 4-15zm97-15c-2-29-17-24-17 6 0 14 4 23 9 19 6-3 9-14 8-25zm920 24c-3-3-12-4-19-1-8 3-5 6 6 6 11 1 17-2 13-5zm-1892-14c3-5 2-10-4-10-5 0-13 5-16 10-3 6-2 10 4 10 5 0 13-4 16-10zm41-15c-9-9-16-13-16-8 0 12 22 34 28 28 2-2-3-11-12-20zm1079 6c-3-6-11-11-16-11s-4 6 3 14c14 16 24 13 13-3zm140 9c-3-5-13-10-21-10s-12 5-9 10c3 6 13 10 21 10s12-4 9-10zm70-12c6-4 0-8-12-8-16 0-21 4-16 15 3 9 8 12 12 8 3-4 11-11 16-15zm73 2c15 0 15-2 2-10-23-15-30-12-29 13 0 12 3 16 6 10 2-7 12-13 21-13zm-383 0c3-5-3-10-14-10-12 0-21 5-21 10 0 6 6 10 14 10s18-4 21-10zm-239-7c-10-11-37-12-30-2 3 5 12 9 21 9s13-3 9-7zm-711-12c3-5 0-13-6-17-7-4-9-3-5 4 3 5 0 13-6 15-9 4-10 6-1 6 6 1 14-3 18-8zm151-17c2-12-1-13-12-3-7 6-11 16-8 21 7 11 17 3 20-18zm269 8c-3-3-14-6-25-7-15-1-17 1-9 11 6 7 17 10 25 7s12-8 9-11zm201 6c4-7 4-10-1-6-4 4-14 3-21-3-9-8-18-7-31 1-16 10-16 10 4 5 12-3 24-1 28 5 8 13 12 13 21-2zm-511-8c-3-5 1-10 9-10 9 0 16-4 16-10 0-15-27-12-33 4-3 8-3 17 0 20 10 10 15 7 8-4zm895 0c-8-5-19-10-25-10-5 0-3 5 5 10s20 10 25 10c6 0 3-5-5-10zm120 0c0-5-2-10-4-10-3 0-8 5-11 10-3 6-1 10 4 10 6 0 11-4 11-10zm55-2c5 4 5 2 2-5-8-13-47-6-47 9 0 5 8 4 19-1 10-6 22-7 26-3zm353-13c-3-3-9 2-12 12-6 14-5 15 5 6 7-7 10-15 7-18zm-1063 5c-3-5-1-10 6-10s10-3 6-6c-8-8-47 5-47 17 0 5 9 9 21 9 11 0 17-4 14-10zm792 4c-3-3-12-4-19-1-8 3-5 6 6 6 11 1 17-2 13-5zm221-1c-21-5-23-14-6-31 14-14 42-16 33-2-3 6 1 10 9 10 20 0 21-19 1-26-22-9-8-23 17-19 11 3 28 0 37-6 14-9 14-10-1-5-10 3-18 1-18-5s-5-7-12-2c-7 4-15 8-18 9-3 0-12 4-22 8-9 4-29 1-47-9-17-8-31-13-31-10v12c0 4 7 8 16 9 25 4 30 15 14 27-28 22-22 43 13 44 17 1 24-1 15-4zm137-3c3-5 1-10-4-10-6 0-11 5-11 10 0 6 2 10 4 10 3 0 8-4 11-10zm267-22c-6-6-15-7-22-3-8 5-6 11 7 20 20 15 32 0 15-17zm-2182 7c-7-9-15-13-19-10-3 3 1 10 9 15 21 14 24 12 10-5zm1160 1c0-2-9-6-20-9s-18-1-14 4c5 9 34 13 34 5zm-1160-63c0-7-7-13-15-13s-15 5-15 11c0 5 5 7 10 4 6-3 10-1 10 5s-7 13-15 16c-8 4-15 11-15 17 0 5 9 2 20-8s20-24 20-32zm1080 37c0-5-5-10-11-10-5 0-7 5-4 10 3 6 8 10 11 10 2 0 4-4 4-10zm-665-10c-3-5-12-10-18-10-7 0-6 4 3 10 19 12 23 12 15 0zm545 0c0-5-4-10-10-10-5 0-10 5-10 10 0 6 5 10 10 10 6 0 10-4 10-10zm87 4c-3-3-12-4-19-1-8 3-5 6 6 6 11 1 17-2 13-5zm129-22c19 2 34 1 34-3s15-5 33-4c45 4 53-5 22-21-33-17-38-17-29-2 5 8 0 9-14 6-13-4-22-1-23 5 0 8-2 8-6 0-3-10-10-10-26-1-12 6-23 11-24 10-2-1-11-2-20-2-15 0-16 2-3 10 8 5 11 10 7 10-5 0-5 6 0 13 5 9 9 7 11-6 3-15 11-18 38-15zm14 18c0-5-7-10-15-10s-15 5-15 10c0 6 7 10 15 10s15-4 15-10zm955 0c-3-5-12-10-18-10-7 0-6 4 3 10 19 12 23 12 15 0zm-1881-22c-8-28-2-24-49-32-36-7-38-6-21 7 11 8 28 12 38 9 13-3 18 1 18 17 0 11 5 21 11 21s8-9 3-22zm751 5c16-13 17-15 3-10-10 4-18 2-18-3s-7-6-17-3c-11 4-14 3-9-5s2-10-10-5c-14 5-14 7 5 18 12 6 18 14 15 18-14 14 11 6 31-10zm635 13c0-3-4-8-10-11-5-3-10-1-10 4 0 6 5 11 10 11 6 0 10-2 10-4zm11-19c-10-9-11-8-5 6 3 10 9 15 12 12s0-11-7-18zm-1547-15c3-5-1-9-9-9s-12 4-9 9c3 4 7 8 9 8s6-4 9-8zm956-2c0-5-2-10-4-10-3 0-8 5-11 10-3 6-1 10 4 10 6 0 11-4 11-10zm284-6c10-26 7-34-11-34-15 0-15 2-4 9 12 8 12 12 2 25-8 9-9 16-3 16 5 0 13-7 16-16zm126 12c0-2-7-7-16-10-8-3-12-2-9 4 6 10 25 14 25 6zm212-18c-20-20-13-28 14-17 36 13 43 3 16-21-13-13-22-16-22-8 0 6-6 4-13-6-11-15-18-16-34-8-14 8-23 8-30 1-8-8-13-7-17 0-4 6-2 11 4 11s8 5 4 12-3 8 4 4 12-2 12 3c0 6 5 11 10 11 6 0 10-6 10-14s4-17 8-20c5-3 8 5 7 17s5 27 14 34c21 16 28 16 13 1zm-299-15c-9-22-32-47-39-40-4 4 36 56 43 57 1 0-1-8-4-17zm-1383 3c0-3-4-8-10-11-5-3-10-1-10 4 0 6 5 11 10 11 6 0 10-2 10-4zm1150-11c0-19-6-19-14 0-3 8-1 15 4 15 6 0 10-7 10-15zm50 5c0-5-5-10-11-10-5 0-7-4-4-10 7-11-8-14-18-3-8 7 11 33 24 33 5 0 9-4 9-10zm907-6c-3-3-12-4-19-1-8 3-5 6 6 6 11 1 17-2 13-5zm-1702-14c-3-5-11-10-16-10-6 0-7 5-4 10 3 6 11 10 16 10 6 0 7-4 4-10zm840 0c-27-12-35-12-35 0 0 6 12 10 28 9 24 0 25-1 7-9zm755-11c0-11-27-12-34-1-2 4 4 9 15 9 10 1 19-2 19-8zm-1836-7c2-4-5-9-17-9-17-2-19 0-7 7 18 12 18 12 24 2zm1226 4c0-2-8-10-17-17-16-13-17-12-4 4s21 21 21 13zm-393-12c-3-3-12-4-19-1-8 3-5 6 6 6 11 1 17-2 13-5z"/>
<path d="m1690 390c0-5 5-10 11-10 5 0 7 5 4 10-3 6-8 10-11 10-2 0-4-4-4-10z"/>
<path d="m815 350c-3-5-2-10 4-10 5 0 13 5 16 10 3 6 2 10-4 10-5 0-13-4-16-10z"/>
<path d="m885 260c4-6 11-8 16-5 14 9 11 15-7 15-8 0-12-5-9-10z"/>
<path d="m1182 352c-6-2-12-8-12-13 0-6 5-7 11-4 6 4 17-1 24-11 9-13 14-14 15-6 0 19-23 39-38 34z"/>
<path d="m2510 1182c0-4 9-8 20-9s18 2 15 8c-7 11-35 12-35 1z"/>
<path d="m316 1172c-2-4 14-6 36-4 28 3 39 1 34-7-4-6-3-11 2-11 6 0 12 7 16 15 4 12-4 15-39 15-24 0-46-3-49-8z"/>
<path d="m2990 1170c0-5 5-10 10-10 6 0 10 5 10 10 0 6-4 10-10 10-5 0-10-4-10-10z"/>
<path d="m260 1160c0-5 5-10 10-10 6 0 10 5 10 10 0 6-4 10-10 10-5 0-10-4-10-10z"/>
<path d="m1190 1155c-13-16-8-18 27-9 13 4 20 10 17 15-8 14-30 11-44-6z"/>
<path d="m1330 1160c-12-8-9-10 13-10 16 0 26 4 22 10-8 12-16 12-35 0z"/>
<path d="m2165 1160c3-5 12-10 20-10 7 0 15-4 17-10 2-5 13-7 25-4 13 4 20 10 18 15-3 4-12 6-20 2-8-3-15 0-15 6s-12 11-26 11-23-4-19-10z"/>
<path d="m3026 1153c-6-14-5-15 5-6 7 7 10 15 7 18s-9-2-12-12z"/>
<path d="m3055 1147c1-12 3-27 4-33 1-13 41-26 41-14 0 20-13 40-27 40-8 0-12 4-8 9 3 5 1 12-3 15-5 3-8-5-7-17z"/>
<path d="m135 1150c4-6 11-8 16-5 14 9 11 15-7 15-8 0-12-5-9-10z"/>
<path d="m82 1135c-12-9-33-15-48-13-21 2-27-2-30-19-2-13 1-23 6-23 6 0 10 4 10 9 0 4 11 6 23 4 14-3 31 2 40 11 8 9 20 16 26 16s11 7 11 15c0 19-10 19-38 0z"/>
<path d="m330 1135c-7-8-27-17-46-21-19-3-38-12-42-18-4-7-23-17-42-22-24-7-35-16-35-29 0-12-9-22-25-26-45-13-60-10-54 9 5 16 5 16-6 0-6-11-22-18-38-17s-20 3-10 6c10 2 15 10 11 19-3 8 0 14 6 14s11 5 11 10c0 6-13 10-30 10-28 0-30-3-30-35 0-21 5-35 13-35 9 0 9-2 0-8s-13-35-12-90c1-69 3-82 17-82 15 0 15 2 2 10s-12 10 3 10c9 0 17-7 17-15s-4-15-10-15c-5 0-10-4-10-10 0-5 7-7 15-4 20 8 19-6-2-23-16-13-13-14 25-9 49 7 53 2 15-17l-26-14 30 1c17 0 29 4 26 9-2 4 1 7 6 7 6 0 11 7 11 15s-9 15-21 15c-13 0-18 4-13 12 4 6 3 8-2 5-6-3-16-2-24 3-24 15-1 27 79 44 40 8 79 20 85 26 8 9 6 11-11 5-26-7-30 6-8 25 8 7 15 16 15 21s-7 6-15 3c-8-4-15-13-15-21 0-25-35-10-38 17-2 23-1 24 11 7 13-15 16-15 27-2 10 12 10 15-4 15-22 0-20 13 3 30 11 7 18 17 15 22-3 4 4 8 15 8 26 0 39 21 19 33-12 8-11 13 7 33 12 13 27 24 33 24 19 0 91 43 86 52-8 12-20 10-34-7zm-140-135c0-5-4-10-9-10-6 0-13 5-16 10-3 6 1 10 9 10 9 0 16-4 16-10z"/>
<path d="m2540 1139c0-4 6-9 13-12 8-3 14 0 14 7s-6 13-14 13c-7 0-13-4-13-8z"/>
<path d="m268 1133c6-2 18-2 25 0 6 3 1 5-13 5s-19-2-12-5z"/>
<path d="m1688 1133c7-3 16-2 19 1 4 3-2 6-13 5-11 0-14-3-6-6z"/>
<path d="m2966 1115c4-8 8-15 10-15s4 7 4 15-4 15-10 15c-5 0-7-7-4-15z"/>
<path d="m1703 1113c9-2 23-2 30 0 6 3-1 5-18 5-16 0-22-2-12-5z"/>
<path d="m2218 1113c6-2 18-2 25 0 6 3 1 5-13 5s-19-2-12-5z"/>
<path d="m788 1103c7-3 16-2 19 1 4 3-2 6-13 5-11 0-14-3-6-6z"/>
<path d="m833 1103c9-2 23-2 30 0 6 3-1 5-18 5-16 0-22-2-12-5z"/>
<path d="m140 1090c0-5 5-10 11-10 5 0 7 5 4 10-3 6-8 10-11 10-2 0-4-4-4-10z"/>
<path d="m1738 1093c7-3 16-2 19 1 4 3-2 6-13 5-11 0-14-3-6-6z"/>
<path d="m1855 1070c-19-8-19-9 3-9 12-1 22 4 22 9 0 6-1 10-2 9-2 0-12-4-23-9z"/>
<path d="m2345 1060c-3-5 1-10 9-10 9 0 16 5 16 10 0 6-4 10-9 10-6 0-13-4-16-10z"/>
<path d="m320 1040c0-5 5-10 10-10 6 0 10 5 10 10 0 6-4 10-10 10-5 0-10-4-10-10z"/>
<path d="m1698 1042c-45-5-32-18 15-14 23 2 49 4 57 6 24 4-42 11-72 8z"/>
<path d="m320 1011c0-6 4-13 10-16s7 1 4 9c-7 18-14 21-14 7z"/>
<path d="m796 1005c-3-8-1-15 4-15 6 0 10 7 10 15s-2 15-4 15-6-7-10-15z"/>
<path d="m1030 1011c0-11 49-21 55-11 3 4-5 10-18 14-30 8-37 7-37-3z"/>
<path d="m1695 1011c-6-11 9-23 19-14 9 9 7 23-3 23-6 0-12-4-16-9z"/>
<path d="m1605 980c3-5 15-10 26-10 10 0 19 5 19 10 0 6-12 10-26 10s-23-4-19-10z"/>
<path d="m1735 959c-11-16-1-19 13-3 7 8 8 14 3 14s-13-5-16-11z"/>
<path d="m1790 960c0-5 5-10 10-10 6 0 10 5 10 10 0 6-4 10-10 10-5 0-10-4-10-10z"/>
<path d="m768 943c-5-18-14-23-40-24l-33-1 39-9c46-11 49-9 44 28-3 26-4 26-10 6z"/>
<path d="m1836 953c-13-13-5-21 23-25 17-2 28-1 25 4-8 13-41 28-48 21z"/>
<path d="m1885 950c3-5 14-10 23-10 15 0 15 2 2 10-20 13-33 13-25 0z"/>
<path d="m1605 940c-3-5 1-10 9-10s18 5 21 10c3 6-1 10-9 10s-18-4-21-10z"/>
<path d="m1693 935c0-8 7-15 15-15 7 0 12 5 10 12-6 18-25 21-25 3z"/>
<path d="m1358 933c7-3 16-2 19 1 4 3-2 6-13 5-11 0-14-3-6-6z"/>
<path d="m951 914c0-11 3-14 6-6 3 7 2 16-1 19-3 4-6-2-5-13z"/>
<path d="m2090 920c0-5 5-10 11-10 5 0 7 5 4 10-3 6-8 10-11 10-2 0-4-4-4-10z"/>
<path d="m1799 903c-12-14-11-15 10-8 20 6 23 4 18-9-4-9-2-16 3-16 6 0 10 5 10 10 0 6 14 10 31 10 19 0 28 4 23 11-3 6-15 8-27 5-11-3-28-1-38 4-12 7-21 5-30-7z"/>
<path d="m1631 901c-8-5-9-11-3-15 5-3 12 1 16 9 6 17 6 18-13 6z"/>
<path d="m1678 898c5-5 16-8 23-6 8 3 3 7-10 11-17 4-21 3-13-5z"/>
<path d="m1722 891c2-12-5-16-29-16-17 0-35-3-39-7-4-5 12-8 35-8 27 0 49 7 62 19 20 18 20 18-6 23-19 4-25 1-23-11z"/>
<path d="m1268 893c7-3 16-2 19 1 4 3-2 6-13 5-11 0-14-3-6-6z"/>
<path d="m750 877c0-29 21-35 61-19 21 8 39 19 39 24 0 12-53 6-63-7-6-6-10-6-14 3-6 16-23 16-23-1z"/>
<path d="m2591 874c0-11 3-14 6-6 3 7 2 16-1 19-3 4-6-2-5-13z"/>
<path d="m2476 864c3-12 1-25-5-28-6-4-11-1-11 8 0 11-13 14-56 14-30 0-52-4-47-9 11-11 66-15 81-5 7 4 12 2 12-3 0-6-4-11-10-11-5 0-7-7-4-15 6-14 24-16 34-4 3 3 13 10 22 15 16 8 15 11-2 34s-19 23-14 4z"/>
<path d="m2750 870c0-5 7-7 15-4 8 4 15 8 15 10s-7 4-15 4-15-4-15-10z"/>
<path d="m1550 853c0-12 76-42 86-34 5 3 10 12 12 20 2 10-5 12-33 8-19-3-35-2-35 4 0 5-7 9-15 9s-15-3-15-7z"/>
<path d="m1755 845c-27-10-41-11-46-4-5 8-8 8-13 1-4-6-14-8-24-5-14 5-14 3 2-9 12-9 17-21 13-32-4-9-2-16 3-16 6 0 10 4 10 8s13 16 30 25c25 15 29 16 24 2-3-8-1-15 5-15s11-4 11-9c0-4-11-6-25-3-15 2-25 0-25-7 0-6 10-11 21-11 18 0 19-2 9-15-7-8-9-15-4-15 21 1 31 17 29 47-1 17 3 34 9 36 8 3 11-7 11-29-2-32 0-33 16-18 12 11 19 12 24 4s13-6 27 7c11 10 22 17 24 16 13-9 25-1 20 12-3 8 0 15 6 15s8 3 5 6c-4 4-13 2-20-4-8-7-17-8-21-4s-6 3-4-3c2-5-1-11-6-12s-12-6-15-12c-4-6-12-6-21-1-19 12 4 40 34 40 17 0 18 2 6 10-10 6-20 4-31-6-9-8-24-12-33-8-14 5-15 9-4 15 20 13-2 10-47-6z"/>
<path d="m2044 846c11-9 26-16 35-16 15 0 13 7-4 10-5 1-19 6-30 12-20 9-20 9-1-6z"/>
<path d="m2815 850c-11-4-27-5-35-2s-12 2-9-2c10-11 45-15 60-6 19 12 8 19-16 10z"/>
<path d="m2526 831c-9-15 23-36 35-24 8 8 5 14-9 22-12 6-23 7-26 2z"/>
<path d="m3070 827c0-1-4-17-9-35-8-26-7-32 5-32 10 0 13 7 8 25-4 15-2 25 5 25 6 0 11 5 11 10 0 6-4 10-10 10-5 0-10-1-10-3z"/>
<path d="m3100 820c0-13 33-21 42-12 6 6-1 11-16 14-14 3-26 2-26-2z"/>
<path d="m918 813c-22-5-24-29-3-37 8-3 15-1 15 4 0 6 10 10 21 10 18 0 19 2 9 15-7 8-15 14-19 14-3-1-14-3-23-6z"/>
<path d="m2395 811c-3-5 9-19 27-31 28-19 30-19 11-2-23 20-32 39-13 27 6-3 10-1 10 4 0 13-27 14-35 2z"/>
<path d="m2770 810c0-5 6-10 14-10s18 5 21 10c3 6-3 10-14 10-12 0-21-4-21-10z"/>
<path d="m882 785c0-16 2-22 5-12 2 9 2 23 0 30-3 6-5-1-5-18z"/>
<path d="m2220 801c0-5 6-11 13-14 8-3 6-10-8-21-17-13-17-15-4-16 9 0 22 7 29 15s16 12 21 9c14-8 10 6-5 22-16 16-46 19-46 5z"/>
<path d="m2499 805c-1-3-2-10-3-15 0-6-6-14-13-18-8-5-3-11 13-19 19-9 24-8 24 2 0 7 3 20 6 28s-2 17-10 20c-9 4-17 4-17 2z"/>
<path d="m2995 800c3-5 8-10 11-10 2 0 4 5 4 10 0 6-5 10-11 10-5 0-7-4-4-10z"/>
<path d="m1410 790c0-5 5-10 10-10 6 0 10 5 10 10 0 6-4 10-10 10-5 0-10-4-10-10z"/>
<path d="m2605 789c-11-17 1-21 15-4 8 9 8 15 2 15s-14-5-17-11z"/>
<path d="m1579 779c-11-7-11-9 4-9 9 0 17-4 17-10 0-5 7-10 15-10 21 0 19 17-3 29-11 6-24 6-33 0z"/>
<path d="m2551 781c-7-5-11-15-9-22 3-10 8-7 17 9 13 24 12 26-8 13z"/>
<path d="m2777 778c-9-5-17-16-17-25 0-14 2-15 18-1 9 9 24 17 31 20 13 4 13 5 0 10-8 3-23 2-32-4z"/>
<path d="m2928 772c-4-15 0-17 23-14 16 2 29 9 29 14 0 6-7 8-15 4-8-3-15-1-15 4 0 17-17 11-22-8z"/>
<path d="m3135 780c-3-5-1-10 4-10 6 0 11 5 11 10 0 6-2 10-4 10-3 0-8-4-11-10z"/>
<path d="m2662 769c2-7 10-15 17-17 8-3 12 1 9 9-2 7-10 15-17 17-8 3-12-1-9-9z"/>
<path d="m2845 770c3-5 8-10 11-10 2 0 4 5 4 10 0 6-5 10-11 10-5 0-7-4-4-10z"/>
<path d="m1646 762c-2-4-1-14 5-22 7-13 9-12 9 3 0 9 5 17 11 17 5 0 7-5 3-12-5-8-2-9 10-5 10 4 23 7 29 8 17 1-24 17-45 18-9 1-19-3-22-7z"/>
<path d="m2078 758c6-6 18-8 28-6 14 3 12 5-9 10-19 3-25 2-19-4z"/>
<path d="m2155 760c-3-6 1-7 9-4 18 7 21 14 7 14-6 0-13-4-16-10z"/>
<path d="m2322 765c10-11 48-14 48-4 0 5-12 9-27 9-14 0-24-2-21-5z"/>
<path d="m2380 761c0-6 4-13 10-16s7 1 4 9c-7 18-14 21-14 7z"/>
<path d="m2709 750c-13-11-18-19-11-20 6 0 12 5 12 10 0 6 5 10 11 10 5 0 7-4 4-10s1-7 9-4c18 7 21 20 7 28-5 3-20-3-32-14z"/>
<path d="m1310 744c0-8 5-12 10-9 6 3 10 10 10 16 0 5-4 9-10 9-5 0-10-7-10-16z"/>
<path d="m2808 753c6-2 18-2 25 0 6 3 1 5-13 5s-19-2-12-5z"/>
<path d="m2865 750c-3-5-2-10 4-10 5 0 13 5 16 10 3 6 2 10-4 10-5 0-13-4-16-10z"/>
<path d="m3081 743c-8-17-6-19 23-19 20 0 33 5 33 13 0 7-4 13-8 13s-14 3-22 6c-9 3-20-2-26-13z"/>
<path d="m2468 743c6-2 18-2 25 0 6 3 1 5-13 5s-19-2-12-5z"/>
<path d="m2630 743c0-14 20-39 20-25 0 6 7 12 16 12 8 0 12 5 9 10-7 12-45 14-45 3z"/>
<path d="m1400 730c0-5 5-10 10-10 6 0 10 5 10 10 0 6-4 10-10 10-5 0-10-4-10-10z"/>
<path d="m1592 731c-11-7-11-9 2-14 10-4 16-1 16 8 0 17-1 17-18 6z"/>
<path d="m2030 723c-13-15-12-16 4-10 10 4 20 7 22 7s4 5 4 10c0 15-13 12-30-7z"/>
<path d="m1550 720c0-5 5-10 10-10 6 0 10 5 10 10 0 6-4 10-10 10-5 0-10-4-10-10z"/>
<path d="m1620 720c0-14 15-19 29-11 9 6 7 10-8 14-12 3-21 1-21-3z"/>
<path d="m1840 720c20-13 33-13 25 0-3 6-14 10-23 10-15 0-15-2-2-10z"/>
<path d="m2130 715c0-8 5-15 10-15 6 0 10 7 10 15s-4 15-10 15c-5 0-10-7-10-15z"/>
<path d="m2770 710c-9-6-10-10-3-10 6 0 15 5 18 10 8 12 4 12-15 0z"/>
<path d="m2922 706c7-8 15-12 17-11 5 6-10 25-20 25-5 0-4-6 3-14z"/>
<path d="m1835 700c-3-5 1-10 10-10s13 5 10 10c-3 6-8 10-10 10s-7-4-10-10z"/>
<path d="m1 623c-2-51 1-73 8-68 6 3 11-1 11-11s3-14 7-10c5 4 8 13 8 19 0 7 14 12 33 12 17-1 32 3 32 7s9 8 21 8c11 0 18 4 14 9-3 5 4 12 15 16 26 8 26 29 0 22-11-3-18-1-14 4 3 5-3 9-13 10-13 0-12 3 7 11 16 6 20 12 12 15-10 4-10 8-1 19 17 20-15 19-52-3-27-16-31-16-57-1l-28 17-3-76zm109 1c0-2-7-4-15-4s-15 4-15 10c0 5 7 7 15 4 8-4 15-8 15-10zm-36-13c3-5-6-8-20-8-19 0-22 2-13 8 18 11 26 11 33 0z"/>
<path d="m1284 674c5-13 2-15-14-11-14 3-20 1-17-6 5-15 36-22 48-10 11 11 1 43-13 43-6 0-7-7-4-16z"/>
<path d="m1570 680c0-6 7-10 15-10s15 2 15 4-7 6-15 10c-8 3-15 1-15-4z"/>
<path d="m1550 650c0-5 9-10 21-10 11 0 17 5 14 10-3 6-13 10-21 10s-14-4-14-10z"/>
<path d="m2025 650c3-5 8-10 11-10 2 0 4 5 4 10 0 6-5 10-11 10-5 0-7-4-4-10z"/>
<path d="m1513 643c-7-3-13-11-13-19 0-7-6-11-12-9-7 3-20 0-28-5-13-9-13-11 0-20 11-7 11-10 2-10-7 0-11-4-8-9 8-12 56-1 57 13 1 6 0 17-1 25s4 17 11 22c16 9 9 18-8 12z"/>
<path d="m1538 623c-21-5-23-19-6-29 6-4 14-2 16 4 2 7 10 12 18 12 9 0 12 5 9 10-6 10-9 11-37 3z"/>
<path d="m2220 610c0-5 5-10 11-10 5 0 7 5 4 10-3 6-8 10-11 10-2 0-4-4-4-10z"/>
<path d="m1405 590c-3-5-2-10 4-10 5 0 13 5 16 10 3 6 2 10-4 10-5 0-13-4-16-10z"/>
<path d="m1530 562c0-5 7-13 16-16 10-4 14-1 12 6-5 15-28 23-28 10z"/>
<path d="m60 530c0-13 11-13 30 0 12 8 11 10-7 10-13 0-23-4-23-10z"/>
<path d="m1285 510c3-5 10-10 16-10 5 0 9 5 9 10 0 6-7 10-16 10-8 0-12-4-9-10z"/>
<path d="m1500 140c0-5 4-10 9-10 6 0 13 5 16 10 3 6-1 10-9 10-9 0-16-4-16-10z"/>
<path d="m1544 143c4-4-8-15-26-25-23-12-27-17-14-18 15 0 17-5 11-27-6-27-6-27 10-8 11 14 18 16 21 8 8-18 27-16 20 2-5 13 5 20 27 16 16-2 6 19-14 30-17 9-19 13-8 20 10 6 8 9-10 9-13 0-21-3-17-7z"/>
<path d="m1402 98c2-6 10-14 16-16 7-2 10 2 6 12-7 18-28 22-22 4z"/>
<path d="m1618 89c18-20 15-31-8-24-12 4-27 2-34-5-8-6-20-9-27-8-8 2-15-7-17-20-2-12-7-20-12-17s-11 1-15-5 8-10 29-10c26 0 36 4 36 16 0 11-5 14-17 9-14-5-15-4-6 6 7 7 27 13 45 13 58 2 76 26 36 47-19 9-21 9-10-2z"/>
<path d="m1432 68c-7-7-12-18-12-26 0-10 3-10 16 2 8 9 20 16 25 16 6 0 7 5 4 10-8 13-18 13-33-2z"/>
<path d="m1357 43c-25-32-18-38 11-8 12 13 19 26 15 28-4 3-16-6-26-20z"/>
<path d="m1446 32c-3-5 1-9 9-9s12 4 9 9c-7 10-11 10-18 0z"/>
</g>
</svg>
