<?xml version="1.0" standalone="no"?>
<!DOCTYPE svg PUBLIC "-//W3C//DTD SVG 20010904//EN"
 "http://www.w3.org/TR/2001/REC-SVG-20010904/DTD/svg10.dtd">
<svg version="1.0" xmlns="http://www.w3.org/2000/svg"
 width="315.000000pt" height="315.000000pt" viewBox="0 0 315.000000 315.000000"
 preserveAspectRatio="xMidYMid meet">

<g transform="translate(0.000000,315.000000) scale(0.100000,-0.100000)"
fill="#000000" stroke="none">
<path d="M0 3140 c0 -5 5 -10 10 -10 7 0 7 -6 0 -19 -14 -28 -13 -81 3 -81 7
0 19 -6 26 -12 12 -13 16 -14 45 -17 8 0 23 -9 32 -18 17 -17 18 -17 11 0 -4
10 -7 23 -7 28 0 5 -12 6 -26 3 -19 -5 -25 -4 -20 5 4 6 2 11 -5 11 -8 0 -8 4
1 15 9 10 9 15 1 15 -6 0 -11 6 -11 14 0 8 -6 17 -12 20 -9 3 -8 8 5 16 18 11
18 12 0 26 -21 16 -53 18 -53 4z"/>
<path d="M110 3139 c0 -5 5 -9 11 -9 8 0 8 -4 0 -14 -9 -11 -9 -16 0 -22 7 -4
15 -2 17 4 9 29 20 7 25 -55 6 -59 4 -68 -13 -80 -11 -8 -20 -21 -20 -29 0 -8
-3 -13 -7 -12 -14 4 -53 -13 -53 -23 0 -5 -5 -9 -11 -9 -5 0 -9 10 -7 22 2 18
-2 23 -22 23 -25 0 -25 -1 -28 -94 -1 -52 1 -97 6 -100 5 -3 14 -15 20 -26 11
-20 12 -20 18 3 3 12 10 22 15 22 5 0 6 -6 3 -14 -6 -15 47 -32 66 -21 5 3 13
-1 16 -10 8 -19 6 -21 -26 -29 -19 -6 -21 -5 -10 3 12 8 7 11 -22 11 -20 0
-40 -5 -44 -11 -5 -8 -10 -6 -16 5 -21 37 -26 8 -27 -138 -1 -117 1 -155 11
-159 10 -4 10 -8 -2 -16 -10 -7 -11 -11 -2 -11 6 0 12 -5 12 -11 0 -5 -4 -7
-10 -4 -7 4 -10 -202 -10 -609 l0 -616 24 0 c13 0 27 -6 29 -12 4 -10 7 -10
15 0 9 13 138 20 149 8 4 -3 -19 -6 -50 -6 -35 0 -57 -4 -57 -11 0 -6 6 -9 14
-6 9 4 17 -3 21 -16 4 -14 8 -17 12 -9 2 6 11 12 19 12 8 0 14 5 14 10 0 12
57 12 85 0 17 -7 17 -9 3 -9 -10 -1 -18 -7 -18 -13 0 -9 -4 -8 -10 2 -5 8 -10
10 -10 4 0 -12 -73 -34 -114 -34 -14 0 -28 -5 -31 -10 -4 -7 2 -9 19 -4 16 4
26 2 26 -5 0 -6 21 -11 53 -12 48 -1 120 -16 87 -18 -8 -1 -10 -4 -5 -10 15
-13 123 -23 130 -11 4 6 -13 11 -42 11 -35 2 -40 3 -18 7 24 4 27 6 11 11 -18
7 -18 8 0 25 17 17 15 18 -38 15 -31 -2 -54 -1 -51 3 2 5 15 8 29 8 14 0 23 4
20 9 -4 5 13 7 36 5 35 -4 39 -3 20 5 -12 6 -22 13 -22 16 0 3 58 5 129 3 71
-2 124 -7 117 -11 -6 -5 2 -6 19 -4 17 2 24 2 18 0 -7 -3 -13 -8 -13 -12 0 -5
-11 -6 -25 -3 -13 2 -33 1 -42 -3 -16 -6 -16 -8 5 -19 28 -15 85 -9 75 8 -3 6
0 6 8 -2 19 -18 28 -15 39 13 8 20 16 25 45 25 19 0 35 5 35 10 0 6 8 10 19
10 10 0 30 9 44 20 14 11 32 20 41 20 8 0 21 9 29 20 10 14 20 18 32 14 13 -5
16 -4 11 4 -5 8 1 12 16 12 l23 1 -23 12 c-12 7 -19 16 -16 20 4 4 2 7 -5 7
-7 0 -19 7 -27 15 -20 19 -24 20 150 -14 89 -17 152 -34 157 -42 6 -10 2 -15
-14 -17 -24 -4 -49 -22 -29 -22 7 0 12 -5 12 -11 0 -6 -6 -9 -14 -6 -8 3 -17
3 -20 -1 -4 -3 -24 -5 -45 -3 l-38 2 1 -38 c1 -23 6 -38 14 -38 6 0 13 -3 13
-8 3 -17 -11 -67 -18 -66 -22 4 -32 -3 -30 -21 1 -12 8 -20 19 -20 10 0 18 -4
18 -8 0 -4 -73 -21 -162 -36 -90 -16 -222 -39 -295 -52 -98 -17 -137 -28 -152
-43 -19 -19 -19 -21 -4 -30 14 -7 12 -9 -10 -8 -36 3 -43 25 -11 33 16 4 22
10 16 16 -6 6 -17 6 -30 -1 -15 -8 -23 -7 -32 4 -7 8 -9 15 -5 15 4 0 2 7 -5
15 -7 9 -18 14 -23 12 -13 -4 -18 -37 -6 -37 5 0 4 -9 -3 -20 -9 -13 -16 -16
-23 -9 -7 7 -5 13 5 19 12 8 12 10 -3 16 -10 3 -21 4 -24 0 -4 -3 -1 -6 7 -6
10 0 10 -3 0 -15 -21 -25 -39 -18 -34 13 4 21 3 24 -7 15 -15 -14 -39 0 -39
23 0 8 -7 14 -15 14 -8 0 -15 -4 -15 -9 0 -5 -9 -13 -20 -16 -11 -3 -20 -11
-20 -18 0 -8 3 -8 12 1 19 19 28 14 28 -13 0 -14 -10 -35 -22 -47 -19 -19 -22
-20 -33 -4 -11 14 -13 15 -18 1 -4 -8 -1 -14 6 -12 7 1 11 -6 9 -15 -3 -19 14
-33 23 -18 3 5 1 10 -6 10 -10 0 -10 3 -2 11 19 19 32 2 20 -26 -7 -14 -16
-25 -20 -25 -4 0 -3 -9 3 -20 7 -14 7 -20 0 -20 -5 0 -10 4 -10 9 0 9 -33 24
-53 26 -4 0 -11 6 -16 13 -6 10 -10 9 -14 -7 -3 -13 1 -21 12 -24 9 -3 3 -5
-14 -6 -22 -1 -26 -4 -15 -11 12 -7 12 -12 -4 -29 -16 -17 -22 -19 -34 -8 -11
8 -14 8 -9 0 4 -6 3 -14 -3 -18 -6 -4 -10 -56 -10 -127 0 -111 2 -124 22 -145
19 -20 19 -23 4 -23 -9 0 -14 4 -11 10 3 5 1 10 -4 10 -7 0 -11 -53 -11 -155
l0 -155 111 0 c78 0 108 3 103 11 -9 16 -54 181 -54 201 0 18 37 44 47 34 3
-3 0 -12 -6 -20 -31 -37 84 -77 176 -60 104 18 193 50 208 73 13 23 -48 45
-119 45 -66 0 -92 9 -80 28 3 4 43 8 89 8 61 0 92 -5 115 -17 36 -20 35 -12 7
-195 -8 -48 -11 -92 -7 -98 4 -7 46 -10 111 -8 57 1 93 4 79 8 -17 4 -21 8
-12 14 6 4 17 4 24 0 7 -5 8 -3 3 6 -6 10 -3 12 13 8 12 -4 20 -3 17 2 -5 8
18 20 38 20 8 0 7 -4 -2 -9 -10 -7 -7 -9 12 -8 15 1 27 3 27 4 0 1 -18 12 -40
24 l-40 23 32 14 c53 22 160 62 198 74 32 9 115 40 503 184 l147 55 103 -15
c56 -8 118 -15 137 -14 61 1 210 -46 210 -66 0 -5 12 -6 28 -3 15 3 47 1 72
-4 152 -32 251 -26 228 14 -5 10 -20 17 -36 16 -24 0 -25 -1 -7 -9 11 -5 15
-9 9 -9 -6 -1 -29 6 -49 15 -29 12 -35 18 -24 25 11 7 8 9 -10 9 -16 0 -21 -4
-18 -14 4 -10 1 -13 -8 -9 -8 3 -12 9 -9 14 3 5 -13 12 -36 15 -36 6 -45 13
-41 36 0 4 -7 4 -16 1 -10 -4 -14 -2 -10 4 3 5 -21 15 -59 22 -36 8 -62 17
-57 21 4 4 51 24 103 44 52 21 109 43 125 50 17 8 41 17 55 21 14 4 44 16 67
26 109 49 200 79 238 78 l40 -1 -50 -12 c-55 -14 -52 -17 50 -36 33 -7 70 -14
83 -16 22 -4 23 -8 17 -62 -5 -54 -5 -56 9 -31 15 26 53 39 119 39 38 0 31
-20 -14 -42 -74 -35 -67 -43 49 -61 59 -10 117 -20 130 -23 l22 -6 0 301 0
301 -22 4 c-20 4 -182 16 -301 21 -21 1 -43 7 -49 13 -7 7 -2 9 18 7 16 -2 85
-7 154 -10 69 -3 142 -8 163 -11 l37 -6 0 95 c0 108 6 101 -90 112 -30 4 -63
9 -72 11 -26 8 -23 47 5 59 14 7 24 22 28 45 4 21 7 26 8 13 1 -27 9 -29 25
-7 10 13 12 13 13 -5 1 -11 -6 -22 -15 -25 -24 -8 -27 -66 -4 -67 19 -1 46 -5
79 -14 l24 -6 -3 123 -3 123 -83 9 c-45 4 -82 12 -82 17 0 5 -4 9 -10 9 -6 0
-10 -35 -10 -86 0 -54 -4 -83 -10 -79 -5 3 -10 1 -10 -4 0 -6 3 -11 8 -11 4 0
7 -28 7 -62 0 -59 -2 -63 -22 -63 -16 0 -23 6 -23 19 0 13 5 16 18 12 16 -6
16 -5 0 8 -15 11 -18 29 -18 101 0 113 -9 107 -11 -8 -1 -73 -4 -87 -18 -86
-10 0 -12 2 -3 6 6 2 10 8 7 13 -4 7 -7 127 -3 173 1 10 8 16 17 15 13 -3 16
9 17 62 1 50 0 56 -5 25 l-6 -40 -107 -1 c-60 -1 -108 3 -108 7 0 5 9 9 20 9
11 0 20 5 20 11 0 5 -4 7 -10 4 -14 -9 -12 8 3 24 8 10 9 12 0 7 -15 -8 -26
43 -21 104 3 41 6 45 30 48 24 3 26 1 21 -20 -3 -13 -8 -47 -10 -77 -4 -47 -3
-53 12 -47 9 3 18 6 19 6 1 0 1 32 0 70 -1 54 2 70 13 70 8 0 12 -4 8 -9 -3
-5 -1 -12 5 -16 5 -3 10 1 10 9 0 9 7 16 15 16 9 0 15 -9 15 -25 0 -14 -4 -25
-10 -25 -5 0 -10 -12 -10 -26 0 -40 18 -18 26 31 3 25 10 45 15 45 5 0 9 -4 9
-9 0 -5 13 -4 30 2 20 8 30 18 30 32 0 28 -16 49 -30 40 -9 -6 -9 -9 1 -16 7
-4 11 -11 8 -14 -7 -7 -442 -19 -721 -19 -191 -1 -208 -2 -208 -18 0 -11 8
-18 20 -18 11 0 20 -6 20 -12 0 -10 3 -9 9 1 6 10 49 14 171 18 112 4 161 2
156 -5 -3 -6 -2 -13 4 -17 5 -3 10 1 10 10 0 13 15 16 93 15 50 0 115 1 142 2
l50 1 1 -79 c0 -43 -4 -84 -9 -91 -5 -7 -5 -18 -1 -25 5 -9 2 -8 -10 1 -12 11
-17 25 -14 48 2 18 0 33 -4 33 -4 0 -8 -11 -8 -25 0 -14 -5 -24 -12 -23 -7 2
-14 -7 -16 -19 -3 -19 -10 -23 -40 -23 -21 0 -32 4 -25 8 17 11 -1 36 -20 29
-12 -4 -14 -1 -11 11 5 14 4 15 -5 2 -6 -8 -8 -22 -5 -31 4 -15 -10 -16 -158
-12 -90 3 -202 8 -250 12 l-88 7 0 -30 c0 -23 3 -27 12 -18 18 18 48 15 49 -5
0 -15 2 -15 7 -3 4 8 20 15 36 15 23 0 32 -6 37 -25 l7 -25 1 25 c1 18 4 21
10 12 7 -11 9 -11 14 2 5 12 12 14 30 7 12 -5 35 -7 50 -4 22 4 27 2 27 -13 0
-14 -3 -15 -8 -6 -5 7 -16 10 -26 6 -14 -5 -15 -9 -4 -15 10 -7 9 -9 -4 -9
-14 0 -16 -6 -11 -30 3 -18 1 -30 -5 -30 -5 0 -8 10 -4 22 3 13 1 19 -6 15 -7
-5 -9 3 -5 24 3 23 1 30 -9 27 -7 -3 -13 -20 -13 -43 0 -22 -5 -40 -12 -42 -7
-3 -13 -9 -13 -15 0 -6 7 -8 15 -4 8 3 15 1 15 -4 0 -6 -5 -10 -11 -10 -13 0
-39 -25 -39 -38 0 -5 -20 -6 -47 -2 -25 4 -55 5 -66 2 -17 -4 -19 -2 -13 21 4
16 2 27 -4 27 -5 0 -10 -6 -10 -14 0 -8 -6 -17 -12 -19 -10 -4 -10 -6 -1 -6
13 -1 6 -31 -7 -31 -11 0 -10 289 0 295 5 3 6 19 3 37 -3 23 0 35 13 45 16 12
16 13 1 13 -9 0 -17 8 -18 18 0 9 -2 27 -5 40 -3 16 1 22 14 22 14 0 15 2 2
10 -10 6 -11 10 -2 10 19 0 27 -4 24 -12 -1 -5 5 -8 14 -8 8 0 12 -4 9 -10 -3
-5 -1 -10 4 -10 6 0 11 6 11 13 0 10 15 14 53 14 28 0 142 5 252 11 110 6 288
14 395 18 158 5 197 9 206 22 19 26 43 8 39 -30 -1 -18 -4 -37 -5 -43 -1 -5
-2 -21 -1 -35 1 -19 3 -22 10 -11 14 21 44 -6 37 -32 -3 -11 -1 -16 4 -11 4 5
10 17 12 27 5 30 23 24 26 -8 2 -24 1 -27 -9 -15 -9 12 -10 11 -4 -5 4 -11 9
-31 11 -45 4 -22 3 -23 -5 -5 -7 14 -10 16 -10 5 -1 -9 5 -22 11 -28 9 -9 10
-15 2 -20 -6 -4 -14 -19 -18 -35 -8 -32 -3 -34 67 -40 l47 -4 0 79 c0 56 -4
78 -12 78 -10 0 -9 3 1 9 11 7 11 9 0 14 -10 4 -10 6 -1 6 7 1 12 14 12 31 l0
30 -64 0 c-86 0 -96 5 -96 47 l0 35 46 -4 c41 -3 45 -1 40 17 -3 11 -6 30 -6
43 0 15 -6 22 -20 22 -13 0 -20 -7 -20 -20 0 -25 -48 -35 -138 -26 -37 3 -73
6 -80 6 -6 0 -11 3 -11 8 4 21 -3 31 -16 26 -17 -7 -12 15 12 53 10 14 11 23
4 28 -6 3 -11 0 -11 -8 0 -8 -6 -20 -14 -26 -10 -9 -15 -8 -20 4 -3 8 -3 22 0
30 4 10 2 13 -8 10 -14 -6 -38 44 -38 79 0 16 2 17 18 5 14 -11 14 -10 -2 8
-15 19 -16 25 -6 38 9 11 9 15 1 15 -8 0 -10 8 -6 20 4 11 2 20 -4 20 -19 0
-11 35 12 51 38 28 75 32 86 10 9 -16 6 -21 -18 -29 -16 -6 -32 -8 -35 -5 -3
3 -12 0 -20 -6 -20 -17 -9 -43 15 -36 11 4 19 2 19 -4 0 -6 -7 -11 -15 -11
-25 0 -14 -33 14 -41 10 -4 5 -14 -18 -36 l-31 -31 30 11 c16 6 26 16 22 21
-4 7 -1 7 9 0 21 -16 51 -26 44 -14 -7 11 6 13 29 4 20 -8 21 -33 1 -40 -8 -4
-15 -15 -15 -25 0 -10 -5 -19 -11 -19 -6 0 -3 -7 5 -16 9 -8 20 -13 26 -9 5 3
17 -3 26 -13 16 -19 64 -19 64 -1 0 5 5 9 11 9 5 0 8 -4 5 -9 -10 -15 38 1 52
18 8 9 11 11 8 5 -3 -7 1 -15 10 -18 8 -3 12 -10 9 -16 -3 -5 -1 -10 5 -10 6
0 13 6 16 13 2 7 22 24 44 37 39 24 51 40 30 40 -5 0 -10 -4 -10 -8 0 -4 -15
-16 -32 -27 -30 -17 -32 -17 -19 -1 13 15 13 19 0 26 -11 7 -11 12 -1 22 18
18 14 32 -5 17 -16 -11 -16 -11 -5 1 7 8 18 15 25 15 7 0 13 10 15 23 2 14 10
22 23 22 19 0 19 7 18 150 0 83 -5 150 -10 150 -14 0 -11 28 3 33 7 2 10 7 7
11 -12 13 -39 -7 -39 -29 0 -14 -7 -25 -20 -28 -13 -3 -20 -14 -20 -29 0 -18
-2 -20 -10 -8 -15 23 -16 21 40 87 5 7 10 16 10 22 0 5 8 7 18 4 14 -3 18 3
20 27 1 18 -2 29 -7 26 -5 -4 -12 -2 -16 4 -3 5 1 10 9 10 12 0 16 11 16 48 0
53 -7 67 -24 52 -7 -5 -17 -5 -26 0 -12 8 -13 13 -3 28 8 14 9 22 0 31 -8 8
-2 14 20 22 l32 11 0 167 0 168 -24 13 c-14 7 -23 15 -20 18 2 2 -2 11 -10 18
-16 16 -49 19 -40 4 3 -5 2 -10 -4 -10 -5 0 -13 4 -16 10 -6 10 -1053 14
-1080 4 -8 -4 -15 -13 -15 -21 0 -9 -6 -13 -15 -9 -10 3 -15 -1 -16 -12 0 -10
-3 -12 -6 -4 -2 6 -17 12 -33 12 -16 0 -30 4 -32 10 -2 6 -13 5 -28 -3 -14 -8
-31 -12 -38 -9 -11 3 -16 -10 -13 -30 0 -5 -5 -8 -13 -8 -8 0 -22 -9 -30 -21
-9 -13 -19 -18 -27 -14 -7 5 -10 4 -5 -3 3 -6 0 -26 -8 -44 -8 -18 -15 -27
-15 -20 -1 13 -31 17 -31 4 0 -17 30 -47 37 -37 7 9 19 12 76 18 9 0 17 7 17
15 0 7 5 10 10 7 6 -4 10 -3 9 2 -4 21 2 33 16 33 8 0 15 -5 15 -12 0 -6 3 -8
6 -5 4 4 16 -3 26 -16 17 -19 18 -22 4 -25 -9 -2 -16 -10 -16 -18 0 -9 5 -12
13 -9 6 4 -3 -5 -20 -20 -18 -14 -33 -34 -33 -43 0 -15 -2 -15 -10 -2 -8 13
-13 13 -30 2 -11 -7 -26 -10 -32 -6 -7 5 -9 2 -5 -9 3 -9 0 -18 -9 -21 -10 -4
-13 -2 -8 7 4 6 -12 -6 -34 -27 -29 -28 -38 -42 -30 -47 7 -5 15 -4 18 1 3 5
18 12 34 16 25 6 28 5 23 -10 -5 -12 -3 -16 5 -13 7 2 12 11 12 20 -1 9 1 16
5 16 16 -2 51 14 51 24 0 5 9 2 20 -8 11 -10 20 -24 20 -32 0 -9 5 -11 13 -6
6 4 21 8 32 9 11 1 26 3 34 5 8 2 17 -7 22 -24 6 -22 3 -30 -14 -42 -18 -13
-19 -17 -8 -24 8 -5 10 -14 6 -22 -6 -9 -3 -11 8 -6 11 4 17 1 17 -9 0 -9 -6
-14 -12 -11 -23 8 -48 -13 -48 -39 0 -20 -4 -24 -18 -20 -15 5 -18 2 -16 -16
1 -13 3 -25 4 -28 1 -3 1 -17 0 -32 -1 -23 3 -27 39 -33 36 -6 40 -9 31 -26
-8 -13 -7 -19 0 -19 6 0 15 11 20 25 5 14 12 25 16 25 3 0 4 -6 1 -13 -3 -9 2
-13 16 -12 12 2 21 8 19 14 -1 7 2 10 8 6 12 -7 42 13 36 24 -3 4 4 7 15 7 19
0 23 -8 20 -35 -2 -7 0 -20 3 -27 5 -12 10 -12 33 3 25 17 27 17 20 0 -4 -12
-2 -17 9 -17 9 0 14 6 11 13 -3 8 3 13 14 13 24 0 24 -11 2 -34 -10 -10 -19
-24 -21 -30 -3 -16 15 -15 21 1 3 6 6 -1 6 -18 1 -23 -2 -26 -9 -15 -11 17
-11 16 -15 -18 -1 -13 4 -26 11 -29 11 -4 14 -29 14 -103 0 -138 -5 -156 -49
-174 -20 -8 -83 -35 -140 -61 -108 -47 -221 -79 -221 -63 0 5 -4 7 -9 4 -4 -3
-16 3 -25 13 -14 15 -14 20 -4 25 7 3 0 5 -17 4 -16 -1 -35 -6 -42 -11 -7 -5
-16 -6 -22 -3 -5 3 -12 -1 -15 -9 -5 -13 -10 -14 -27 -5 -11 6 -28 9 -37 6
-15 -5 -15 -4 1 8 16 13 16 14 0 27 -12 10 -15 11 -9 1 6 -10 1 -11 -21 -6
-37 9 -43 13 -43 29 0 8 8 12 19 10 11 -2 22 3 25 11 4 10 2 12 -6 8 -7 -5 -9
2 -5 22 5 27 4 27 -9 9 -8 -10 -15 -13 -15 -7 -3 26 -4 31 -12 38 -4 4 -7 -2
-7 -14 0 -32 -17 -36 -50 -12 -17 12 -30 17 -30 11 0 -6 -7 -8 -15 -5 -8 4
-15 9 -15 13 0 11 33 10 48 -2 8 -6 12 -6 12 2 0 6 -4 11 -10 11 -14 0 -12 38
2 42 7 3 32 0 56 -6 35 -8 45 -7 52 5 7 9 5 15 -5 17 -8 2 -15 10 -15 17 0 8
-5 17 -12 21 -6 4 -8 3 -4 -4 8 -14 -12 -26 -45 -28 -27 -2 -31 9 -15 34 6 10
3 12 -10 10 -16 -3 -19 4 -19 44 1 45 0 47 -20 34 -11 -7 -33 -15 -48 -18 -22
-4 -27 -2 -22 10 4 12 1 12 -20 -2 -25 -16 -28 -16 -75 11 -27 15 -46 31 -44
35 3 5 9 6 14 3 5 -3 11 -1 15 5 4 6 11 8 16 5 5 -3 6 0 4 7 -4 9 2 14 14 14
11 0 19 -3 19 -6 -2 -19 4 -22 14 -7 7 10 23 19 36 22 13 2 33 7 44 11 14 4
18 2 14 -5 -4 -6 -3 -11 3 -11 14 0 61 48 61 62 0 9 -3 9 -12 0 -16 -16 -38
-15 -38 2 0 8 -8 15 -17 15 -56 1 -68 8 -68 35 -1 15 3 30 7 32 5 3 6 8 4 12
-2 4 3 14 12 22 14 13 15 12 8 -5 -4 -13 6 -7 31 17 20 21 34 40 31 43 -4 4
-16 -3 -27 -14 -24 -24 -35 -27 -28 -7 4 10 -2 16 -21 18 -18 2 -26 8 -24 18
3 12 1 13 -9 3 -21 -21 -28 -15 -24 18 4 35 29 58 62 59 14 0 21 5 17 13 -5
14 26 52 66 80 23 16 23 17 6 30 -13 10 -15 16 -8 21 7 4 12 4 12 0 0 -14 40
30 41 45 0 10 2 12 6 4 6 -15 43 -18 43 -3 0 5 7 7 17 3 14 -5 15 -1 9 27 -8
41 -9 42 -30 34 -14 -5 -15 -9 -4 -15 9 -6 9 -9 1 -9 -6 0 -18 6 -26 14 -9 10
-18 11 -24 5 -12 -12 -93 0 -93 13 0 5 -4 6 -10 3 -6 -3 -10 4 -10 16 0 18 3
20 12 11 16 -16 25 -15 31 2 4 10 0 12 -15 8 -14 -3 -19 -1 -14 6 4 8 2 10 -7
6 -11 -4 -14 5 -14 35 0 33 3 41 18 41 10 0 21 -4 24 -10 3 -5 12 -10 18 -10
8 0 7 3 -2 9 -8 5 -11 16 -7 27 4 10 1 21 -6 26 -9 5 -7 8 7 8 19 1 19 1 1 15
-15 12 -97 14 -487 14 -355 1 -469 -2 -469 -11 0 -9 -3 -9 -12 0 -15 15 -78
16 -78 1 0 -8 -4 -8 -13 0 -17 13 -197 14 -197 0z m434 -8 c3 -4 -1 -17 -10
-27 -14 -18 -15 -18 -5 3 8 16 8 23 -2 26 -9 4 -9 6 0 6 6 1 14 -3 17 -8z
m791 -20 c-3 -6 -11 -8 -17 -5 -8 5 -9 1 -5 -10 4 -10 3 -15 -3 -11 -6 3 -10
0 -10 -8 0 -8 -8 -21 -17 -28 -16 -13 -17 -12 -4 4 7 9 9 17 3 17 -16 0 9 59
28 63 19 5 34 -8 25 -22z m1207 11 c-7 -2 -10 -8 -6 -13 13 -22 12 -49 -3 -49
-13 0 -13 3 -3 15 10 13 9 15 -9 15 -12 0 -19 -4 -16 -10 7 -12 3 -12 -19 -4
-9 3 -16 15 -16 26 0 13 5 18 14 15 8 -3 22 0 32 8 11 7 23 11 28 7 6 -3 5 -7
-2 -10z m-1607 -2 c3 -5 2 -10 -4 -10 -5 0 -13 5 -16 10 -3 6 -2 10 4 10 5 0
13 -4 16 -10z m-650 -10 c3 -5 1 -10 -4 -10 -6 0 -11 5 -11 10 0 6 2 10 4 10
3 0 8 -4 11 -10z m205 0 c0 -5 -2 -10 -4 -10 -3 0 -8 5 -11 10 -3 6 -1 10 4
10 6 0 11 -4 11 -10z m2239 -19 c-12 -15 -16 -28 -10 -35 6 -7 2 -11 -12 -11
-17 0 -23 7 -24 30 -3 33 4 40 40 40 24 0 24 0 6 -24z m-1477 12 c-10 -4 -10
-8 -1 -19 10 -12 9 -13 -5 -8 -24 9 -18 35 8 33 6 0 5 -3 -2 -6z m1153 -3 c3
-5 2 -10 -4 -10 -5 0 -13 5 -16 10 -3 6 -2 10 4 10 5 0 13 -4 16 -10z m55 -25
c0 -5 -5 -3 -10 5 -5 8 -10 20 -10 25 0 6 5 3 10 -5 5 -8 10 -19 10 -25z
m-2046 -21 c3 -16 -1 -19 -23 -18 -14 1 -32 3 -38 3 -23 2 -13 31 12 37 15 4
22 11 19 18 -4 6 1 4 10 -5 9 -8 18 -24 20 -35z m614 6 c3 -13 2 -13 -7 0 -6
8 -11 11 -11 6 0 -5 -7 -3 -15 4 -8 7 -24 10 -35 7 -11 -3 -23 0 -27 5 -3 6
-1 8 5 4 6 -3 13 -2 17 4 8 13 67 -11 73 -30z m-541 24 c-3 -3 -12 -4 -19 -1
-8 3 -5 6 6 6 11 1 17 -2 13 -5z m-216 -35 c8 -17 8 -23 -2 -30 -9 -5 -10 -11
-2 -21 17 -19 28 -88 14 -88 -19 0 -31 37 -30 99 1 34 3 61 5 61 2 0 8 -10 15
-21z m899 12 c0 -17 -18 -21 -24 -6 -3 9 0 15 9 15 8 0 15 -4 15 -9z m-847
-16 c-3 -9 -8 -14 -10 -11 -3 3 -2 9 2 15 9 16 15 13 8 -4z m1651 -16 c-10
-12 -18 -24 -17 -28 1 -3 -1 -8 -3 -10 -2 -2 -4 5 -4 17 0 11 8 26 18 31 26
15 27 13 6 -10z m561 11 c23 -9 25 -13 15 -25 -14 -16 -75 -21 -85 -6 -6 10
21 41 35 41 5 0 21 -5 35 -10z m-637 -35 c-3 -3 -9 2 -12 12 -6 14 -5 15 5 6
7 -7 10 -15 7 -18z m392 21 c0 -3 -4 -8 -10 -11 -5 -3 -10 -1 -10 4 0 6 5 11
10 11 6 0 10 -2 10 -4z m90 -37 c13 -24 -1 -25 -27 -1 -10 9 -12 13 -4 7 12
-8 13 -6 8 8 -9 23 9 13 23 -14z m455 21 c3 -5 -1 -10 -9 -10 -8 0 -18 5 -21
10 -3 6 1 10 9 10 8 0 18 -4 21 -10z m-539 -27 c-10 -10 -19 5 -10 18 6 11 8
11 12 0 2 -7 1 -15 -2 -18z m-264 -5 c4 -24 -10 -68 -22 -68 -4 0 -5 -11 -2
-25 4 -25 -13 -36 -21 -12 -3 9 -8 8 -22 -3 -17 -14 -18 -13 -11 14 4 17 14
35 23 41 9 7 13 17 9 24 -4 6 0 14 8 17 9 3 16 12 16 20 0 23 18 16 22 -8z
m571 -5 c-3 -7 0 -13 6 -13 6 0 11 5 11 12 0 6 3 8 7 4 11 -11 -27 -36 -54
-36 -13 0 -23 6 -23 14 0 8 -5 18 -12 22 -7 4 -8 3 -4 -4 4 -7 1 -12 -8 -12
-9 0 -16 7 -16 15 0 13 10 16 49 14 36 -2 48 -6 44 -16z m-2184 -36 c0 -18 -3
-26 -6 -19 -2 6 -9 12 -14 12 -6 0 -7 -4 -4 -10 3 -5 2 -10 -4 -10 -6 0 -15 9
-21 20 -8 16 -8 20 4 20 7 0 17 7 20 16 9 25 26 6 25 -29z m1531 18 c0 -14 -4
-25 -9 -25 -4 0 -6 11 -3 25 2 14 6 25 8 25 2 0 4 -11 4 -25z m-1440 5 c8 -5
11 -12 8 -16 -4 -3 -14 1 -23 10 -18 17 -9 21 15 6z m1779 -22 c-1 -24 -3 -27
-6 -10 -2 12 -9 22 -14 22 -6 0 -7 5 -4 10 13 21 25 9 24 -22z m755 17 c-7
-16 -24 -21 -24 -6 0 8 7 13 27 20 1 1 0 -6 -3 -14z m-2704 -15 c0 -5 -2 -10
-4 -10 -3 0 -8 5 -11 10 -3 6 -1 10 4 10 6 0 11 -4 11 -10z m150 -21 c0 -17
-7 -37 -15 -45 -17 -17 -20 -7 -5 16 5 9 5 19 -1 27 -11 13 -4 33 12 33 5 0 9
-14 9 -31z m530 11 c0 -5 7 -16 16 -24 8 -9 11 -16 7 -16 -5 0 -19 13 -31 30
-15 20 -18 28 -7 24 8 -4 15 -10 15 -14z m888 -4 c-7 -8 -15 -12 -17 -11 -5 6
10 25 20 25 5 0 4 -6 -3 -14z m622 4 c0 -5 -5 -10 -11 -10 -5 0 -7 5 -4 10 3
6 8 10 11 10 2 0 4 -4 4 -10z m-2154 -47 c-3 -4 -6 -2 -6 4 0 5 -7 10 -15 10
-8 0 -15 -4 -15 -9 0 -4 5 -8 11 -8 5 0 7 -4 4 -10 -3 -5 1 -10 10 -10 9 0 13
-4 10 -10 -3 -5 -1 -10 4 -10 6 0 11 -4 11 -10 0 -5 -7 -10 -15 -10 -8 0 -12
-6 -9 -14 3 -8 1 -17 -5 -21 -6 -3 -12 2 -13 12 -1 17 -4 36 -11 93 -2 14 1
28 7 32 11 7 42 -30 32 -39z m184 27 c0 -5 -4 -10 -10 -10 -5 0 -10 5 -10 10
0 6 5 10 10 10 6 0 10 -4 10 -10z m870 -15 c0 -9 -6 -12 -15 -9 -8 4 -12 10
-9 15 8 14 24 10 24 -6z m-1010 -11 c0 -8 -4 -12 -10 -9 -5 3 -10 1 -10 -6 0
-7 -2 -10 -5 -7 -8 7 5 38 16 38 5 0 9 -7 9 -16z m110 -5 c0 -6 -4 -7 -10 -4
-5 3 -10 11 -10 16 0 6 5 7 10 4 6 -3 10 -11 10 -16z m1548 1 c3 -8 0 -10 -8
-5 -10 6 -12 4 -7 -8 4 -12 1 -17 -9 -17 -11 0 -14 6 -10 16 3 9 6 20 6 26 0
14 23 5 28 -12z m-178 1 c0 -17 -18 -21 -24 -6 -3 9 0 15 9 15 8 0 15 -4 15
-9z m260 -16 c0 -8 -2 -15 -4 -15 -2 0 -6 7 -10 15 -3 8 -1 15 4 15 6 0 10 -7
10 -15z m-1860 -7 c0 -17 -18 -44 -24 -37 -8 7 5 49 15 49 5 0 9 -6 9 -12z
m1815 -5 c-1 -20 -6 -23 -37 -23 -20 0 -21 1 -3 20 22 25 42 26 40 3z m671
-12 c16 12 17 12 11 -3 -4 -12 -1 -18 9 -18 13 0 65 -39 53 -40 -2 -1 -28 -3
-56 -6 -35 -4 -53 -2 -53 5 0 6 5 11 10 11 6 0 10 4 10 9 0 5 -11 9 -25 9 -26
0 -55 18 -55 34 0 5 5 6 10 3 6 -3 10 1 10 10 0 13 5 12 30 -6 25 -19 31 -20
46 -8z m-2209 12 c-4 -3 -2 -12 4 -19 13 -16 2 -37 -14 -27 -7 4 -6 0 2 -10
11 -14 11 -17 0 -17 -9 -1 -7 -6 6 -18 11 -9 21 -28 22 -42 1 -23 0 -22 -13 7
-7 17 -18 34 -24 38 -6 3 -8 11 -5 16 4 5 -1 12 -10 15 -14 6 -13 8 3 23 10 9
17 22 15 29 -3 6 1 12 8 12 7 0 9 -3 6 -7z m-407 -50 c0 -7 -9 -13 -20 -13
-23 0 -24 4 -9 32 9 17 13 18 20 7 5 -8 9 -20 9 -26z m1604 22 c-4 -8 -11 -15
-16 -15 -6 0 -5 6 2 15 7 8 14 15 16 15 2 0 1 -7 -2 -15z m51 5 c-3 -5 -12
-10 -18 -10 -7 0 -6 4 3 10 19 12 23 12 15 0z m69 -6 c3 -8 2 -12 -4 -9 -6 3
-10 10 -10 16 0 14 7 11 14 -7z m393 -10 c-3 -3 -12 -4 -19 -1 -8 3 -5 6 6 6
11 1 17 -2 13 -5z m-907 -25 c0 -6 -4 -7 -10 -4 -5 3 -10 11 -10 16 0 6 5 7
10 4 6 -3 10 -11 10 -16z m725 11 c-3 -5 -11 -10 -16 -10 -6 0 -7 5 -4 10 3 6
11 10 16 10 6 0 7 -4 4 -10z m35 -10 c-8 -5 -19 -10 -25 -10 -5 0 -3 5 5 10 8
5 20 10 25 10 6 0 3 -5 -5 -10z m154 1 c3 -4 -7 -19 -22 -32 -20 -18 -22 -19
-9 -3 9 11 17 26 17 32 0 14 7 16 14 3z m443 -18 c-8 -7 -37 9 -31 19 3 5 12
4 20 -3 8 -6 13 -14 11 -16z m-2613 1 c3 -8 2 -12 -4 -9 -6 3 -10 10 -10 16 0
14 7 11 14 -7z m2471 -34 c-3 -6 -18 -10 -32 -10 -15 0 -23 3 -19 7 4 4 15 8
24 8 11 0 16 7 14 20 -2 18 -2 19 8 2 6 -9 8 -22 5 -27z m-2311 18 c-5 -7 -8
-23 -8 -37 -1 -13 -7 -26 -15 -29 -9 -3 -11 0 -6 8 4 7 8 26 7 41 0 19 4 29
14 29 9 0 12 -5 8 -12z m136 -30 c0 -22 -8 -23 -32 -1 -22 20 -24 37 -3 29 8
-3 15 0 15 7 0 19 20 -15 20 -35z m1910 28 c0 -3 -4 -8 -10 -11 -5 -3 -10 -1
-10 4 0 6 5 11 10 11 6 0 10 -2 10 -4z m-2180 -16 c0 -5 -4 -10 -10 -10 -5 0
-10 5 -10 10 0 6 5 10 10 10 6 0 10 -4 10 -10z m360 -15 c0 -14 -2 -25 -4 -25
-2 0 -6 11 -8 25 -3 14 -1 25 3 25 5 0 9 -11 9 -25z m1443 10 c-3 -9 -8 -14
-10 -11 -3 3 -2 9 2 15 9 16 15 13 8 -4z m381 -15 c-9 -9 -74 -9 -74 0 0 18
32 27 55 16 13 -6 21 -13 19 -16z m311 -64 c3 -62 1 -74 -11 -69 -8 3 -14 11
-14 19 0 8 -4 13 -9 12 -5 -2 -9 2 -10 7 -1 6 5 10 12 10 6 0 11 10 10 23 -2
12 2 22 8 22 6 0 4 9 -5 21 -16 23 -10 57 6 41 6 -6 12 -44 13 -86z m385 84
c0 -5 -8 -10 -17 -10 -15 0 -16 2 -3 10 19 12 20 12 20 0z m-510 -15 c0 -8 -6
-15 -14 -15 -8 0 -16 -6 -19 -12 -2 -7 -8 -9 -13 -5 -5 5 2 17 16 27 30 24 30
24 30 5z m-2164 -10 c-5 -14 9 -20 40 -16 14 1 38 -43 32 -60 -2 -7 -13 -14
-24 -15 -15 -3 -20 2 -20 18 1 13 -8 27 -22 34 -33 16 -35 21 -21 38 18 20 23
20 15 1z m194 -5 c-7 -4 -10 -12 -6 -18 3 -6 2 -13 -3 -16 -5 -3 -12 1 -15 10
-6 17 14 45 28 37 4 -3 3 -9 -4 -13z m81 -6 c14 -38 3 -41 -16 -5 -9 18 -11
31 -5 31 6 0 15 -12 21 -26z m1451 4 c-7 -7 -12 -8 -12 -2 0 14 12 26 19 19 2
-3 -1 -11 -7 -17z m523 2 c3 -6 -1 -7 -9 -4 -18 7 -21 14 -7 14 6 0 13 -4 16
-10z m-35 -20 c0 -13 -5 -18 -15 -14 -8 4 -15 2 -15 -4 0 -14 -43 -23 -54 -12
-7 7 -4 10 7 10 9 0 17 6 17 13 0 9 2 9 8 -1 6 -9 13 -8 28 7 24 25 24 25 24
1z m-1710 -11 c0 -6 -4 -7 -10 -4 -5 3 -10 11 -10 16 0 6 5 7 10 4 6 -3 10
-11 10 -16z m1537 5 c3 -9 -2 -23 -12 -32 -17 -16 -17 -15 -12 13 4 17 4 25 1
18 -3 -7 -11 -11 -17 -9 -7 1 -9 1 -4 -1 16 -10 6 -23 -18 -23 -14 0 -25 -5
-25 -11 0 -7 10 -9 25 -5 14 4 25 4 25 1 0 -9 -52 -27 -82 -30 -22 -1 -26 1
-17 12 6 7 18 13 25 13 8 0 13 4 12 10 -2 5 6 21 17 34 23 29 72 35 82 10z
m-2113 -19 c-4 -8 -10 -12 -15 -9 -14 8 -10 24 6 24 9 0 12 -6 9 -15z m1766
11 c0 -3 -4 -8 -10 -11 -5 -3 -10 -1 -10 4 0 6 5 11 10 11 6 0 10 -2 10 -4z
m-1550 -31 c0 -7 3 -20 6 -29 4 -12 0 -16 -15 -16 -18 0 -21 5 -18 34 1 22 6
32 15 29 6 -3 12 -11 12 -18z m-130 11 c0 -11 -19 -15 -25 -6 -3 5 1 10 9 10
9 0 16 -2 16 -4z m164 -15 c13 -14 14 -21 5 -27 -8 -4 -10 -3 -5 5 4 6 0 14
-8 17 -9 3 -16 10 -16 15 0 13 5 11 24 -10z m-238 -6 c-3 -8 -2 -15 2 -15 4 0
7 -25 7 -55 0 -54 -12 -74 -22 -35 -3 11 -9 20 -13 20 -17 0 -19 44 -2 56 9 8
13 14 8 14 -9 0 12 30 21 30 3 0 3 -7 -1 -15z m304 6 c0 -16 -28 -20 -34 -5
-4 9 1 14 14 14 11 0 20 -4 20 -9z m2200 -4 c0 -5 7 -6 16 -3 12 5 14 1 9 -17
-6 -18 -5 -20 6 -9 18 17 39 15 39 -3 0 -18 12 -19 28 -3 14 14 16 3 2 -21 -8
-16 -4 -19 32 -25 30 -5 45 -3 59 9 13 12 22 14 36 7 10 -6 23 -11 28 -13 16
-5 35 -48 24 -54 -5 -4 -9 -1 -9 4 0 6 -7 11 -15 11 -18 0 -20 -16 -2 -23 7
-3 5 -6 -5 -6 -12 -1 -18 6 -18 19 0 11 -4 20 -8 20 -5 0 -7 -13 -4 -30 3 -18
0 -30 -7 -30 -6 0 -11 -5 -11 -11 0 -7 9 -6 24 4 22 15 23 15 22 -14 -1 -20
-6 -29 -16 -27 -23 2 -70 -23 -70 -39 0 -14 -12 -17 -23 -6 -4 3 -2 12 4 20 9
10 6 13 -12 13 -18 0 -21 2 -10 9 22 14 22 41 1 41 -10 0 -23 7 -30 15 -7 9
-19 14 -27 11 -7 -3 -13 1 -13 10 0 11 -5 14 -17 10 -16 -6 -16 -6 0 12 9 10
17 22 17 25 0 14 -31 7 -36 -8 -4 -8 -10 -12 -15 -9 -5 3 -7 10 -4 15 8 12 -1
11 -24 -2 -12 -8 -24 -9 -35 -2 -15 8 -15 11 2 31 11 12 25 22 31 22 9 0 11 9
6 28 -4 22 -2 29 10 29 8 0 15 -5 15 -10z m-353 -43 c-3 -18 2 -24 22 -30 l26
-6 -28 -10 c-36 -13 -40 -8 -42 47 -2 38 0 43 12 33 8 -6 13 -22 10 -34z
m-2085 14 c-12 -12 -35 -1 -27 12 3 5 13 6 21 3 10 -4 12 -9 6 -15z m2040 -3
c3 -14 1 -25 -3 -25 -5 0 -6 -6 -3 -14 3 -7 -2 -16 -12 -20 -13 -5 -15 -2 -11
13 4 15 0 19 -14 16 -11 -2 -17 0 -14 6 4 5 1 9 -5 9 -6 0 -8 5 -4 12 6 9 9 9
12 0 2 -7 8 -12 14 -12 6 0 8 6 5 14 -5 13 5 23 24 25 4 1 9 -10 11 -24z m118
15 c0 -5 -8 -10 -17 -10 -15 0 -16 2 -3 10 19 12 20 12 20 0z m37 -17 c-8 -9
-21 -13 -29 -10 -9 4 -6 8 9 12 13 4 20 12 16 18 -4 6 -1 7 6 2 10 -6 10 -11
-2 -22z m-1527 7 c0 -5 -2 -10 -4 -10 -3 0 -8 5 -11 10 -3 6 -1 10 4 10 6 0
11 -4 11 -10z m-890 -10 c0 -5 -7 -7 -15 -4 -8 4 -15 8 -15 10 0 2 7 4 15 4 8
0 15 -4 15 -10z m591 -13 c-1 -4 -1 -18 -1 -32 0 -14 -4 -25 -10 -25 -5 0 -10
12 -10 26 0 17 -4 23 -12 18 -9 -5 -8 -2 1 9 13 17 33 19 32 4z m1578 -9 c-9
-16 -14 -19 -17 -9 -2 7 2 17 9 22 20 13 21 11 8 -13z m-1727 -8 c18 0 -1 -14
-22 -17 -13 -2 -20 3 -20 13 0 11 5 14 16 10 9 -3 21 -6 26 -6z m60 -17 c-6
-3 -10 -9 -6 -14 3 -5 0 -9 -5 -9 -6 0 -11 4 -11 8 0 12 23 32 29 25 3 -3 0
-8 -7 -10z m638 -4 c0 -5 -9 -9 -20 -9 -11 0 -20 6 -20 14 0 9 7 12 20 9 11
-3 20 -9 20 -14z m-885 1 c3 -5 1 -10 -4 -10 -6 0 -11 5 -11 10 0 6 2 10 4 10
3 0 8 -4 11 -10z m1945 0 c-20 -13 -33 -13 -25 0 3 6 14 10 23 10 15 0 15 -2
2 -10z m233 4 c-7 -3 -10 -11 -7 -18 3 -7 -2 -19 -11 -26 -13 -11 -15 -10 -10
4 3 9 7 23 10 31 2 8 10 15 17 14 9 0 10 -2 1 -5z m62 -38 c-11 -8 -24 -12
-29 -9 -5 4 -2 11 6 17 8 6 13 18 10 26 -3 12 0 11 14 -2 17 -17 17 -18 -1
-32z m-2446 4 c19 0 13 -54 -8 -67 -15 -10 -20 -9 -25 2 -3 8 0 15 7 16 7 1 1
4 -13 9 l-25 7 24 10 c16 6 20 12 13 17 -7 4 -12 15 -12 24 1 16 2 16 14 0 7
-10 18 -18 25 -18z m2921 20 c0 -5 -5 -10 -11 -10 -5 0 -7 5 -4 10 3 6 8 10
11 10 2 0 4 -4 4 -10z m-2978 -32 c-7 -7 -10 -5 -7 8 5 29 6 30 12 16 3 -8 1
-18 -5 -24z m2173 22 c3 -5 1 -10 -4 -10 -6 0 -11 5 -11 10 0 6 2 10 4 10 3 0
8 -4 11 -10z m-1237 -21 c-2 -6 -8 -10 -13 -10 -5 0 -11 4 -13 10 -2 6 4 11
13 11 9 0 15 -5 13 -11z m1712 1 c0 -5 -2 -10 -4 -10 -3 0 -8 5 -11 10 -3 6
-1 10 4 10 6 0 11 -4 11 -10z m-1940 -20 c0 -5 -2 -10 -4 -10 -3 0 -8 5 -11
10 -3 6 -1 10 4 10 6 0 11 -4 11 -10z m1760 6 c0 -2 -7 -6 -15 -10 -8 -3 -15
-1 -15 4 0 6 7 10 15 10 8 0 15 -2 15 -4z m-1710 -15 c0 -5 -7 -11 -15 -15
-15 -5 -20 5 -8 17 9 10 23 9 23 -2z m1430 -20 c14 -27 13 -30 -9 -28 -12 1
-18 9 -18 24 0 28 13 30 27 4z m-1925 -12 c4 -6 12 -8 19 -6 7 3 12 -11 14
-37 1 -22 5 -49 8 -58 3 -10 1 -18 -5 -18 -6 0 -11 6 -11 14 0 21 -42 49 -51
34 -4 -7 -11 -3 -18 11 -8 14 -8 21 -1 21 5 0 10 -4 10 -10 0 -5 7 -7 15 -4 8
4 22 1 30 -6 18 -15 19 -1 1 23 -7 9 -23 17 -35 17 -12 0 -21 6 -21 15 0 17
35 20 45 4z m730 -9 c3 -5 1 -10 -4 -10 -6 0 -11 5 -11 10 0 6 2 10 4 10 3 0
8 -4 11 -10z m-821 -31 c-3 -5 -14 -9 -25 -9 -16 0 -18 2 -7 14 14 14 42 10
32 -5z m1966 -14 c7 -9 8 -15 2 -15 -5 0 -12 7 -16 15 -3 8 -4 15 -2 15 2 0 9
-7 16 -15z m-1755 -12 c3 -10 1 -19 -4 -21 -6 -2 -11 -10 -11 -18 0 -9 -4 -12
-10 -9 -5 3 -10 16 -10 29 0 37 23 49 35 19z m2505 -19 c0 -8 -4 -14 -9 -14
-12 0 -32 26 -25 33 10 9 34 -4 34 -19z m-664 -14 c0 -11 -4 -20 -8 -20 -4 0
-8 -12 -8 -27 l-1 -28 -13 24 -14 25 1 -32 c1 -19 7 -32 15 -32 7 0 10 -5 6
-12 -5 -8 0 -9 15 -5 17 4 20 2 12 -7 -11 -13 -4 -56 10 -56 5 0 6 6 3 14 -3
7 2 16 10 19 10 4 16 1 16 -7 0 -7 7 -19 15 -26 13 -11 12 -15 -9 -34 -14 -11
-36 -29 -51 -39 -14 -10 -23 -22 -20 -27 3 -5 22 6 42 25 43 40 48 42 50 15 1
-11 -6 -22 -18 -25 -10 -4 -19 -10 -19 -15 0 -5 -8 -6 -17 -3 -12 5 -15 2 -10
-10 5 -14 3 -16 -12 -8 -10 6 -22 7 -26 3 -5 -4 -5 -1 -1 6 5 8 0 12 -13 12
-15 0 -21 6 -21 21 0 16 -3 19 -13 11 -26 -22 -36 2 -35 88 1 87 13 134 28
110 5 -8 10 -9 14 -2 3 6 2 13 -4 17 -21 13 -9 27 18 21 15 -3 21 -3 13 1 -11
5 -11 7 0 14 24 15 45 10 45 -11z m164 -2 c0 -4 -7 -8 -15 -8 -8 0 -15 4 -15
8 0 5 7 9 15 9 8 0 15 -4 15 -9z m89 -1 c8 -11 6 -13 -12 -11 -30 3 -29 3 -22
14 8 14 20 13 34 -3z m-2316 -17 c3 -11 1 -20 -4 -20 -5 0 -9 9 -9 20 0 11 2
20 4 20 2 0 6 -9 9 -20z m892 10 c3 -5 1 -10 -4 -10 -6 0 -11 5 -11 10 0 6 2
10 4 10 3 0 8 -4 11 -10z m-978 -32 c-3 -7 -5 -2 -5 12 0 14 2 19 5 13 2 -7 2
-19 0 -25z m156 16 c-4 -10 1 -17 16 -21 12 -3 18 -10 14 -17 -3 -6 3 -2 15 8
12 11 23 17 23 15 8 -26 5 -58 -4 -62 -26 -10 -86 61 -71 84 9 15 14 10 7 -7z
m2104 -11 c-15 -16 -17 -16 -17 -1 0 9 6 18 13 21 20 7 22 -2 4 -20z m577 3
c-3 -9 -10 -16 -15 -16 -14 0 -11 28 4 33 16 6 19 3 11 -17z m-2723 -23 c2
-78 0 -115 -5 -121 -13 -12 -34 25 -40 70 -5 41 -3 49 15 58 11 6 17 15 14 21
-4 5 -1 9 4 9 6 0 11 -17 12 -37z m2259 11 c0 -8 -4 -12 -10 -9 -5 3 -10 10
-10 16 0 5 5 9 10 9 6 0 10 -7 10 -16z m-2435 -14 c-3 -5 -1 -10 4 -10 6 0 11
5 11 10 0 6 4 10 9 10 8 0 23 -51 16 -58 -1 -2 -18 11 -36 27 -26 24 -29 31
-16 31 10 0 15 -4 12 -10z m2705 0 c0 -5 -5 -10 -11 -10 -5 0 -7 5 -4 10 3 6
8 10 11 10 2 0 4 -4 4 -10z m50 -1 c0 -6 8 -8 18 -5 9 3 24 1 32 -4 17 -11 16
-12 -22 -14 -16 -1 -28 2 -28 7 0 4 -4 5 -10 2 -5 -3 -10 1 -10 9 0 9 5 16 10
16 6 0 10 -5 10 -11z m-521 -16 c-6 -7 -15 -13 -20 -13 -5 0 -6 6 -3 13 3 8
11 14 19 14 11 0 12 -4 4 -14z m141 13 c0 -2 -7 -6 -15 -10 -8 -3 -15 -1 -15
4 0 6 7 10 15 10 8 0 15 -2 15 -4z m-2308 -80 c-8 -15 -20 17 -17 44 5 38 7
38 14 0 4 -19 5 -39 3 -44z m2798 60 c0 -2 -8 -10 -17 -17 -16 -13 -17 -12 -4
4 13 16 21 21 21 13z m-2860 -16 c0 -5 -7 -10 -16 -10 -8 0 -12 5 -9 10 3 6
10 10 16 10 5 0 9 -4 9 -10z m250 -21 c0 -11 -11 -11 -29 0 -7 5 -10 14 -6 20
5 9 10 9 21 0 8 -6 14 -15 14 -20z m36 -80 c-2 -50 -7 -93 -10 -97 -10 -10
-25 12 -32 46 -5 23 -2 33 9 37 13 6 13 10 0 36 -14 27 -13 32 3 50 9 10 21
19 26 19 4 0 6 -41 4 -91z m109 79 c5 4 5 2 1 -5 -8 -14 -36 -6 -36 9 0 7 5 6
13 -1 8 -6 18 -7 22 -3z m828 5 c-9 -3 -6 -11 8 -26 14 -16 16 -23 7 -26 -7
-2 -21 -13 -30 -25 -10 -11 -18 -16 -18 -10 0 6 3 14 7 18 11 10 14 46 4 46
-5 0 -11 -6 -14 -14 -4 -9 -14 -12 -26 -9 -17 4 -19 9 -10 24 5 11 13 18 17
16 4 -3 16 -1 27 4 11 4 25 8 30 8 6 -1 5 -3 -2 -6z m1247 -13 c0 -24 -31 -27
-49 -6 -10 11 -8 15 6 19 35 9 43 7 43 -13z m-140 -11 c0 -6 -4 -7 -10 -4 -5
3 -10 11 -10 16 0 6 5 7 10 4 6 -3 10 -11 10 -16z m545 11 c-3 -5 1 -10 9 -10
23 0 20 -27 -3 -33 -11 -3 -22 -3 -24 -1 -8 8 5 54 15 54 5 0 6 -4 3 -10z
m-2651 -15 c-4 -8 -8 -15 -10 -15 -2 0 -4 7 -4 15 0 8 4 15 10 15 5 0 7 -7 4
-15z m2202 -22 c-6 -6 -36 9 -36 18 0 5 9 4 20 -3 10 -7 18 -14 16 -15z
m-2521 7 c3 -5 -1 -10 -10 -10 -9 0 -13 5 -10 10 3 6 8 10 10 10 2 0 7 -4 10
-10z m1170 -1 c3 -4 -6 -6 -20 -6 -14 0 -27 3 -30 6 -5 9 41 8 50 0z m-380 -9
c-3 -5 -12 -10 -18 -10 -7 0 -6 4 3 10 19 12 23 12 15 0z m1657 -24 c3 -15 0
-27 -7 -30 -8 -3 -12 2 -10 12 2 9 4 23 4 30 1 20 8 14 13 -12z m494 1 c9 -20
8 -23 -15 -25 -14 -1 -29 -8 -34 -15 -5 -7 -6 -3 -2 11 4 13 1 29 -5 37 -10
13 -8 15 16 15 20 0 32 -7 40 -23z m84 7 c0 -8 -5 -12 -10 -9 -6 4 -8 11 -5
16 9 14 15 11 15 -7z m-2515 -3 c3 -5 2 -12 -3 -15 -5 -3 -9 1 -9 9 0 17 3 19
12 6z m2056 -44 c-8 -8 -11 -7 -11 4 0 20 13 34 18 19 3 -7 -1 -17 -7 -23z
m199 23 c0 -5 -5 -10 -11 -10 -5 0 -7 5 -4 10 3 6 8 10 11 10 2 0 4 -4 4 -10z
m-2491 -78 c-5 -2 -6 -9 -2 -15 5 -8 2 -8 -9 0 -8 7 -18 10 -21 6 -16 -15 -5
49 11 67 17 21 17 20 23 -17 4 -21 3 -40 -2 -41z m1054 61 c-3 -7 -9 -10 -14
-7 -14 8 -11 21 5 21 8 0 12 -6 9 -14z m-1006 -40 c-3 -10 -5 -2 -5 17 0 19 2
27 5 18 2 -10 2 -26 0 -35z m180 10 c-3 -10 -5 -4 -5 12 0 17 2 24 5 18 2 -7
2 -21 0 -30z m2016 11 c-10 -15 -19 -22 -21 -15 -2 7 4 19 14 26 26 20 27 19
7 -11z m-43 -9 c0 -27 -6 -30 -29 -16 -17 11 -7 41 14 41 9 0 15 -9 15 -25z
m-2317 -2 c-7 -2 -21 -2 -30 0 -10 3 -4 5 12 5 17 0 24 -2 18 -5z m897 -3 c0
-5 -2 -10 -4 -10 -3 0 -8 5 -11 10 -3 6 -1 10 4 10 6 0 11 -4 11 -10z m171
-38 c-7 -2 -18 1 -23 6 -8 8 -4 9 13 5 13 -4 18 -8 10 -11z m1144 0 c-3 -3
-11 0 -18 7 -9 10 -8 11 6 5 10 -3 15 -9 12 -12z m-1175 -28 c0 -23 3 -25 24
-20 19 5 25 1 29 -16 7 -27 -14 -53 -43 -55 -16 -1 -20 2 -16 13 3 9 0 25 -8
36 -8 11 -12 27 -9 36 5 11 2 14 -10 9 -9 -3 -17 -3 -17 2 0 13 12 21 32 21
13 0 18 -7 18 -26z m120 14 c0 -7 -12 -14 -27 -15 -26 -1 -27 0 -8 13 23 17
35 18 35 2z m1020 2 c0 -5 -5 -10 -11 -10 -5 0 -7 5 -4 10 3 6 8 10 11 10 2 0
4 -4 4 -10z m-1952 -22 c7 -7 12 -24 12 -39 0 -23 -4 -27 -25 -24 -14 1 -25
-2 -25 -6 0 -5 5 -9 10 -9 6 0 10 -7 10 -15 0 -8 7 -15 16 -15 8 0 12 -5 9
-11 -13 -19 -38 -4 -50 30 -9 27 -8 41 4 68 17 36 21 39 39 21z m1016 -12 c11
4 16 1 16 -10 0 -9 -7 -16 -16 -16 -11 0 -14 -5 -10 -16 5 -14 4 -15 -8 -5 -8
7 -20 10 -26 6 -5 -3 -10 1 -10 10 0 10 5 13 13 9 8 -6 8 -3 -1 9 -8 9 -10 22
-6 28 5 9 10 8 19 -5 7 -9 19 -14 29 -10z m1546 -8 c0 -5 -13 -2 -30 7 -16 9
-30 17 -30 19 0 3 14 -1 30 -7 17 -6 30 -15 30 -19z m-2668 -10 c-9 -9 -12 -7
-12 12 0 19 3 21 12 12 9 -9 9 -15 0 -24z m693 22 c3 -5 1 -10 -4 -10 -6 0
-11 5 -11 10 0 6 2 10 4 10 3 0 8 -4 11 -10z m-61 -15 c3 -9 0 -15 -9 -15 -8
0 -15 7 -15 15 0 8 4 15 9 15 5 0 11 -7 15 -15z m1906 11 c0 -11 -19 -15 -25
-6 -3 5 1 10 9 10 9 0 16 -2 16 -4z m-2306 -32 c3 -8 2 -12 -4 -9 -6 3 -10 10
-10 16 0 14 7 11 14 -7z m815 -15 c-10 -20 -59 -27 -59 -9 0 6 7 10 15 10 9 0
18 6 21 14 3 8 12 12 20 9 10 -4 11 -10 3 -24z m1148 -15 c-3 -3 -12 -4 -19
-1 -8 3 -5 6 6 6 11 1 17 -2 13 -5z m-878 -49 c-24 -22 -52 -23 -43 -1 5 14
46 34 58 28 4 -2 -3 -14 -15 -27z m-1219 -22 c0 -5 -11 -8 -25 -8 -14 0 -25 3
-25 8 0 4 11 7 25 7 14 0 25 -3 25 -7z m1034 -42 c-2 -3 -12 3 -22 13 -16 17
-16 18 5 5 12 -7 20 -15 17 -18z m155 25 c-12 -10 -59 -15 -59 -6 0 5 14 10
32 10 17 0 29 -2 27 -4z m-1203 -64 c-1 -20 -4 -59 -5 -87 l-3 -50 -9 55 c-4
30 -9 67 -11 83 -3 30 -10 34 -27 13 -9 -10 -8 -16 4 -26 11 -9 12 -16 5 -26
-8 -9 -6 -15 7 -23 10 -6 13 -11 7 -11 -6 0 -17 7 -24 15 -7 8 -16 12 -21 9
-5 -3 -8 0 -7 8 2 7 -2 12 -8 11 -12 -2 -13 35 -1 55 5 7 12 10 17 7 5 -3 11
-1 15 4 3 6 12 8 19 5 8 -3 17 0 21 6 12 19 22 -6 21 -48z m-364 18 c-2 -16
-6 -30 -8 -30 -2 0 -4 14 -4 30 0 17 4 30 8 30 5 0 7 -13 4 -30z m75 13 c0 -9
-4 -10 -10 -4 -7 7 -16 7 -26 -2 -14 -10 -14 -10 -4 4 15 19 40 21 40 2z m318
8 c3 -5 2 -12 -3 -15 -5 -3 -9 1 -9 9 0 17 3 19 12 6z m845 -16 c14 -19 14
-19 -2 -6 -10 7 -18 18 -18 24 0 6 1 8 3 6 1 -2 9 -13 17 -24z m-1060 0 c-5
-7 -9 -14 -7 -16 1 -2 0 -3 -2 -2 -9 6 -30 -20 -24 -30 4 -6 1 -7 -6 -3 -9 6
-8 13 5 27 9 10 14 19 10 19 -4 0 -5 4 -2 8 3 5 12 9 20 9 11 0 13 -4 6 -12z
m49 -22 c-6 -7 -8 -13 -4 -13 4 0 2 -6 -4 -13 -6 -8 -9 -17 -6 -20 3 -4 2 -5
-2 -2 -10 7 -34 -16 -27 -27 3 -5 13 -4 22 4 14 10 15 10 5 -2 -22 -24 -40
-20 -37 9 1 14 2 27 3 29 1 1 0 4 -1 6 -2 2 5 13 15 23 20 23 54 28 36 6z
m435 -15 c7 -5 4 -8 -6 -8 -12 0 -18 7 -17 23 0 15 2 17 6 7 3 -8 11 -18 17
-22z m1046 -7 c0 -6 -18 -11 -41 -11 -32 0 -40 3 -36 14 3 8 1 17 -6 20 -7 2
0 5 16 5 15 1 27 -4 27 -10 0 -5 -6 -7 -12 -3 -7 4 -9 3 -5 -1 16 -19 35 -13
29 9 -5 20 -5 20 11 4 9 -9 17 -21 17 -27z m110 22 c0 -7 5 -13 10 -13 6 0 10
-3 10 -7 0 -5 -28 -8 -63 -9 -34 0 -52 1 -39 3 12 3 22 12 22 21 0 13 -2 14
-9 3 -5 -8 -11 -9 -15 -3 -8 13 9 19 52 19 20 0 32 -5 32 -14z m63 10 c-7 -2
-13 -12 -13 -21 0 -15 2 -15 11 -2 9 13 10 13 6 0 -2 -8 -12 -17 -21 -18 -14
-3 -17 1 -11 19 6 18 4 21 -9 16 -9 -4 -16 -2 -16 3 0 6 15 10 33 9 17 0 26
-3 20 -6z m-1847 -18 c-1 -8 -5 -17 -8 -21 -5 -4 -4 16 1 34 3 9 9 -1 7 -13z
m1274 6 c0 -4 23 -6 52 -3 45 4 50 3 45 -12 -4 -9 -2 -16 3 -16 6 0 10 7 10
15 0 8 7 15 15 15 8 0 15 -4 15 -9 0 -12 -29 -24 -65 -27 -84 -8 -113 -18 -82
-30 9 -3 14 -14 12 -25 -3 -14 2 -19 20 -19 18 0 23 5 20 20 -2 11 0 20 6 20
5 0 9 -6 10 -12 0 -10 2 -10 6 0 2 6 11 12 19 12 12 0 14 -11 10 -50 -5 -55 1
-90 17 -90 6 0 7 17 4 43 -4 27 -1 51 8 67 9 16 14 19 15 10 0 -9 -5 -21 -11
-27 -7 -7 -8 -22 0 -49 12 -42 2 -56 -34 -52 -17 3 -20 9 -17 46 2 25 -1 42
-7 42 -6 0 -10 -8 -9 -17 3 -41 -3 -63 -17 -63 -8 0 -15 5 -15 11 0 5 3 8 8 6
6 -4 7 25 3 65 -1 4 -8 5 -16 2 -13 -5 -13 -9 -3 -22 10 -12 10 -16 1 -19 -7
-3 -13 -14 -13 -25 0 -14 -5 -18 -15 -14 -11 4 -14 -1 -13 -19 1 -14 8 -25 15
-25 7 0 13 -7 13 -16 0 -8 -4 -13 -8 -10 -7 4 -9 -3 -13 -59 -1 -14 -5 -25
-10 -25 -8 0 -14 205 -9 282 2 35 -9 55 -21 37 -6 -10 -8 -7 -6 8 0 12 4 20 8
17 4 -2 9 3 13 11 6 16 36 21 36 6z m298 -30 c-6 -2 -14 1 -16 8 -2 6 -8 11
-13 11 -6 0 -7 -4 -4 -10 3 -5 -1 -10 -9 -10 -24 0 -19 19 7 29 16 7 25 5 35
-7 10 -13 10 -18 0 -21z m-78 25 c0 -2 3 -13 6 -23 5 -15 4 -15 -5 -3 -7 10
-11 11 -11 3 0 -7 -10 -13 -22 -13 -23 1 -23 1 -3 17 20 15 20 15 -2 10 -13
-3 -23 -1 -23 4 0 5 14 9 30 9 17 0 30 -2 30 -4z m-430 -20 c-7 -7 -13 -7 -20
0 -6 6 -3 10 10 10 13 0 16 -4 10 -10z m-439 -19 c-1 -4 -1 -15 -1 -24 0 -15
-2 -16 -10 -3 -13 20 -13 43 1 38 6 -2 10 -7 10 -11z m402 -4 c-7 -2 -19 -2
-25 0 -7 3 -2 5 12 5 14 0 19 -2 13 -5z m145 -20 c1 -24 0 -25 -9 -10 -5 9 -7
22 -4 27 9 15 10 13 13 -17z m1843 15 c1 -7 1 -31 0 -52 0 -22 5 -46 12 -55 9
-11 9 -13 0 -8 -8 5 -13 -3 -16 -25 -4 -29 -4 -29 -3 5 1 27 -3 37 -13 37 -12
0 -12 3 -3 12 7 7 12 21 11 33 0 20 0 20 -9 0 -8 -18 -9 -17 -9 8 -1 15 4 27
10 27 6 0 9 7 5 15 -3 8 -1 15 4 15 6 0 11 -6 11 -12z m-1887 -13 c3 -8 1 -15
-4 -15 -6 0 -10 7 -10 15 0 8 2 15 4 15 2 0 6 -7 10 -15z m590 0 c-4 -8 -8
-15 -10 -15 -2 0 -4 7 -4 15 0 8 4 15 10 15 5 0 7 -7 4 -15z m-1480 -16 c-3
-5 -10 -7 -15 -3 -5 3 -7 10 -3 15 3 5 10 7 15 3 5 -3 7 -10 3 -15z m1295 -36
c1 -12 8 -29 17 -37 14 -15 14 -16 0 -16 -9 0 -16 -8 -16 -20 0 -25 9 -25 26
-2 13 16 14 16 8 0 -4 -12 -1 -18 8 -18 15 0 22 36 8 45 -5 3 -5 18 -1 33 4
15 6 37 5 50 -1 17 4 22 22 22 21 0 22 -2 13 -29 -6 -16 -8 -47 -6 -70 2 -25
0 -41 -7 -42 -6 0 -2 -4 9 -9 13 -5 -12 -8 -72 -8 -89 0 -93 1 -92 21 1 17 2
18 6 5 5 -21 52 -25 54 -5 1 6 1 41 0 77 0 47 2 59 8 45 5 -11 10 -30 10 -42z
m139 -18 c-6 -56 -23 -41 -26 22 -2 55 -2 57 14 35 9 -13 14 -37 12 -57z
m-364 44 c-3 -5 -10 -7 -15 -3 -5 3 -7 10 -3 15 3 5 10 7 15 3 5 -3 7 -10 3
-15z m-1034 7 c0 -2 -8 -10 -17 -17 -16 -13 -17 -12 -4 4 13 16 21 21 21 13z
m1206 -5 c11 9 14 7 14 -10 0 -12 -6 -21 -14 -21 -8 0 -17 -10 -19 -22 -2 -13
-5 -3 -5 22 0 25 2 39 5 32 4 -10 8 -10 19 -1z m85 -38 c-9 -15 -10 -12 -10
17 0 29 1 32 10 18 7 -12 7 -24 0 -35z m-124 7 c-1 -11 -5 -20 -9 -20 -4 0 -8
9 -8 20 0 11 4 20 9 20 6 0 9 -9 8 -20z m-1432 -70 c3 -5 1 -10 -4 -10 -6 0
-11 5 -11 10 0 6 2 10 4 10 3 0 8 -4 11 -10z m1659 -15 c3 -9 0 -15 -8 -15 -7
0 -13 7 -13 15 0 8 4 15 8 15 4 0 9 -7 13 -15z m-334 -59 c0 -36 -15 -40 -17
-5 -1 16 2 29 7 29 6 0 10 -11 10 -24z m36 13 c3 -6 2 -15 -4 -21 -6 -6 -12
-6 -16 1 -4 6 -1 11 6 11 9 0 9 3 -2 10 -9 6 -10 10 -3 10 6 0 15 -5 19 -11z
m244 -4 c0 -2 -7 -5 -15 -9 -9 -3 -15 0 -15 9 0 9 6 12 15 9 8 -4 15 -7 15 -9z
m141 -22 c-12 -20 -14 -14 -5 12 4 9 9 14 11 11 3 -2 0 -13 -6 -23z m69 -27
c0 -5 -7 -3 -15 4 -8 7 -15 20 -15 28 0 13 3 12 15 -4 8 -10 15 -23 15 -28z
m-298 7 c-3 -16 -7 -22 -10 -15 -4 13 4 42 11 42 2 0 2 -12 -1 -27z m35 -5
c-3 -7 -5 -2 -5 12 0 14 2 19 5 13 2 -7 2 -19 0 -25z m170 -15 c-3 -10 -5 -2
-5 17 0 19 2 27 5 18 2 -10 2 -26 0 -35z m503 37 c0 -5 -2 -10 -4 -10 -3 0 -8
5 -11 10 -3 6 -1 10 4 10 6 0 11 -4 11 -10z m-634 -36 c1 -14 0 -23 -3 -20 -4
3 -8 18 -9 32 -2 14 0 24 3 20 3 -3 7 -17 9 -32z m611 3 c-14 -5 -17 -11 -10
-15 8 -5 7 -13 -4 -27 -15 -20 -15 -20 -10 3 3 13 0 22 -6 23 -9 0 -9 2 -1 5
7 3 10 14 7 24 -5 17 -3 18 20 7 26 -12 26 -12 4 -20z m567 25 c8 -14 -6 -82
-16 -76 -5 3 -8 23 -6 45 2 37 11 49 22 31z m-1311 -39 c4 -19 2 -33 -3 -33
-6 0 -10 17 -10 37 0 43 5 41 13 -4z m1426 -37 c-5 -6 -9 7 -8 35 l1 44 8 -35
c5 -20 5 -39 -1 -44z m-1137 39 c-2 -14 -6 -25 -8 -25 -2 0 -4 11 -4 25 0 14
4 25 9 25 4 0 6 -11 3 -25z m-262 5 c0 -5 -5 -10 -11 -10 -5 0 -7 5 -4 10 3 6
8 10 11 10 2 0 4 -4 4 -10z m1419 -61 c-10 -6 -10 -11 0 -23 15 -17 4 -21 -18
-7 -11 7 -11 13 3 32 9 13 17 35 18 49 1 18 2 16 5 -9 3 -21 0 -37 -8 -42z
m-619 15 c0 -19 -4 -34 -9 -34 -4 0 -6 11 -3 25 3 17 -1 27 -13 31 -13 5 -14
9 -4 15 20 12 29 1 29 -37z m-760 27 c0 -6 -4 -13 -10 -16 -5 -3 -10 1 -10 9
0 9 5 16 10 16 6 0 10 -4 10 -9z m636 -58 c-5 -12 -9 -13 -20 -4 -11 10 -15 8
-19 -6 -4 -14 -5 -12 -6 6 -1 19 3 22 19 18 10 -3 19 -2 18 2 0 3 1 13 2 21 2
11 4 10 7 -3 3 -10 2 -25 -1 -34z m62 12 c-3 -36 -18 -31 -18 6 0 17 4 28 10
24 5 -3 9 -17 8 -30z m-554 17 c3 -5 -1 -9 -9 -9 -8 0 -12 4 -9 9 3 4 7 8 9 8
2 0 6 -4 9 -8z m76 0 c0 -4 -9 -13 -20 -20 -24 -15 -26 -9 -4 12 17 18 24 20
24 8z m1020 -22 c0 -5 -4 -10 -10 -10 -5 0 -10 5 -10 10 0 6 5 10 10 10 6 0
10 -4 10 -10z m-1349 -15 c5 4 6 -1 2 -10 -5 -13 -7 -14 -14 -3 -5 7 -8 18 -8
23 0 6 3 4 6 -3 2 -6 9 -10 14 -7z m40 -2 c13 -16 12 -17 -3 -4 -17 13 -22 21
-14 21 2 0 10 -8 17 -17z m207 -7 c-7 -8 -15 -12 -17 -11 -5 6 10 25 20 25 5
0 4 -6 -3 -14z m437 -16 c16 -7 11 -9 -20 -9 -29 -1 -36 2 -25 9 17 11 19 11
45 0z m-628 -22 c2 -17 0 -19 -7 -8 -5 8 -6 18 -4 22 8 12 10 10 11 -14z m752
6 c2 -2 -19 -4 -48 -4 -32 0 -50 4 -46 10 5 9 83 4 94 -6z m671 6 c0 -5 -4
-10 -10 -10 -5 0 -10 5 -10 10 0 6 5 10 10 10 6 0 10 -4 10 -10z m-551 -16 c9
-9 -85 -3 -99 6 -10 6 3 8 40 4 30 -3 57 -8 59 -10z m-1452 0 c-3 -3 -12 -4
-19 -1 -8 3 -5 6 6 6 11 1 17 -2 13 -5z m1849 -24 c13 0 24 -4 24 -10 0 -12
-20 -12 -75 -1 -32 7 -34 9 -12 10 15 0 27 7 28 14 0 10 2 10 6 0 2 -7 16 -13
29 -13z m-953 -5 c4 -8 1 -17 -5 -21 -7 -5 -8 -2 -3 6 5 9 2 10 -13 6 -11 -4
-23 -2 -27 3 -3 6 0 8 8 5 8 -3 18 -1 22 5 8 15 12 14 18 -4z m-293 -15 c0 -5
-5 -10 -11 -10 -5 0 -7 5 -4 10 3 6 8 10 11 10 2 0 4 -4 4 -10z m1395 -50 c-3
-4 1 -10 7 -13 7 -2 9 -8 5 -13 -4 -5 -12 -2 -17 6 -13 20 -13 43 0 35 6 -4 8
-10 5 -15z m-2792 -7 c-7 -2 -21 -2 -30 0 -10 3 -4 5 12 5 17 0 24 -2 18 -5z
m1224 1 c-3 -3 -12 -4 -19 -1 -8 3 -5 6 6 6 11 1 17 -2 13 -5z m1498 -14 c3
-5 1 -10 -4 -10 -6 0 -11 5 -11 10 0 6 2 10 4 10 3 0 8 -4 11 -10z m-2522 -17
c-7 -2 -19 -2 -25 0 -7 3 -2 5 12 5 14 0 19 -2 13 -5z m-115 -28 c4 -5 -9 -5
-28 -2 -34 6 -34 6 -10 -7 14 -8 29 -12 35 -8 5 3 4 -2 -4 -11 -14 -18 -26
-24 -17 -8 3 4 -23 11 -57 15 -155 16 -178 19 -182 26 -6 10 254 5 263 -5z
m1637 -5 c3 -5 1 -10 -4 -10 -6 0 -11 5 -11 10 0 6 2 10 4 10 3 0 8 -4 11 -10z
m685 -85 c0 -5 -8 2 -17 15 -9 14 -25 31 -35 38 -10 7 -18 20 -18 29 0 9 15
-3 35 -28 19 -24 35 -48 35 -54z m-2143 79 c-3 -3 -12 -4 -19 -1 -8 3 -5 6 6
6 11 1 17 -2 13 -5z m148 -4 c14 -6 4 -9 -38 -9 -36 -1 -56 3 -52 9 7 12 62
12 90 0z m-207 -12 c-2 -9 10 -13 34 -13 53 0 56 -11 4 -14 -25 -1 -47 3 -51
9 -3 5 -20 10 -36 10 -18 0 -28 4 -24 10 9 15 76 13 73 -2z m267 -6 c-3 -3
-11 0 -18 7 -9 10 -8 11 6 5 10 -3 15 -9 12 -12z m2118 -9 c-7 -2 -19 -2 -25
0 -7 3 -2 5 12 5 14 0 19 -2 13 -5z m-1096 -9 c-9 -10 -159 -23 -177 -16 -10
5 -3 9 20 13 47 9 165 11 157 3z m-1384 -21 c-13 -2 -33 -2 -45 0 -13 2 -3 4
22 4 25 0 35 -2 23 -4z m117 -3 c0 -5 -5 -10 -11 -10 -5 0 -7 5 -4 10 3 6 8
10 11 10 2 0 4 -4 4 -10z m104 -2 c-15 -7 -28 -7 -40 1 -16 9 -12 10 21 10 35
0 37 -2 19 -11z m2036 -7 c0 -12 -47 -20 -90 -15 -25 3 -30 2 -15 -4 16 -7 11
-10 -24 -16 -24 -4 -46 -4 -49 -1 -3 3 3 5 13 5 10 0 15 3 11 7 -10 10 67 31
117 32 20 1 37 -3 37 -8z m-564 -16 c-6 -17 9 -21 19 -5 12 19 25 10 25 -19 0
-18 6 -31 16 -35 25 -10 29 1 8 21 -17 17 -17 18 6 21 13 2 50 -1 83 -8 59
-11 117 -6 117 11 0 5 -9 9 -20 9 -11 0 -20 5 -20 10 0 11 46 13 102 4 41 -7
42 -24 2 -24 -13 0 -24 -4 -24 -9 0 -6 12 -6 30 -1 31 9 43 -5 13 -14 -20 -6
-250 -56 -258 -56 -3 0 -5 -9 -5 -21 0 -12 -4 -17 -11 -14 -6 4 -8 13 -5 20 2
7 -1 16 -8 18 -10 4 -12 -1 -8 -15 4 -16 2 -19 -9 -12 -8 5 -21 9 -29 9 -8 0
-17 11 -21 25 -6 21 -7 19 -9 -15 -1 -22 -2 -46 -1 -54 2 -11 0 -11 -12 0 -10
10 -11 16 -4 21 6 4 8 10 4 15 -11 11 -28 -18 -23 -39 2 -10 1 -18 -4 -18 -4
0 -11 11 -14 24 -4 15 -13 23 -23 22 -23 -1 -46 -23 -38 -36 3 -5 -1 -10 -9
-10 -9 0 -15 3 -13 8 1 4 -8 20 -19 35 -18 22 -24 24 -33 13 -8 -10 -9 -16 -1
-21 5 -3 10 -1 10 6 0 9 4 8 15 -1 13 -10 12 -14 -1 -28 -15 -14 -14 -16 6
-24 18 -7 20 -11 11 -22 -10 -11 -8 -15 5 -18 16 -3 16 -4 -1 -18 -11 -8 -16
-10 -12 -4 4 7 -4 19 -18 28 -23 15 -26 15 -31 1 -8 -19 -24 -20 -24 -1 0 8 9
18 21 21 27 9 12 25 -26 29 -25 3 -27 1 -23 -30 3 -25 0 -34 -10 -34 -9 0 -13
7 -9 19 7 27 -16 30 -88 10 -53 -14 -60 -19 -57 -39 2 -14 0 -20 -7 -16 -6 4
-11 2 -11 -4 0 -20 32 -24 46 -5 9 12 14 14 14 6 0 -8 -12 -25 -27 -40 l-28
-26 34 -5 c46 -7 67 -61 23 -59 -11 0 -12 3 -4 6 14 5 17 43 3 43 -5 0 -16 -3
-25 -6 -19 -7 -22 -44 -3 -44 6 0 4 -5 -5 -11 -10 -5 -18 -17 -18 -26 0 -16 9
-15 80 3 24 6 24 6 6 -8 -12 -10 -17 -22 -14 -36 5 -17 0 -23 -28 -32 -34 -11
-38 -18 -35 -52 1 -10 -2 -18 -8 -18 -6 0 -8 6 -5 14 3 8 -3 16 -15 19 -14 3
-21 0 -21 -9 0 -8 -9 -14 -21 -14 -16 0 -19 -4 -14 -22 6 -16 4 -20 -8 -15 -9
3 -17 2 -19 -4 -2 -5 -14 -11 -27 -14 -13 -2 -20 -1 -17 3 4 4 13 7 19 7 5 0
12 6 15 14 3 10 0 12 -11 8 -8 -3 -18 0 -20 7 -4 9 13 20 51 32 31 10 62 17
68 16 6 -1 17 5 24 13 7 8 10 15 6 15 -11 0 -227 -66 -558 -171 l-318 -101
-47 29 c-42 26 -48 34 -51 67 -3 37 -3 38 27 31 20 -4 32 -2 38 8 4 8 54 27
110 42 56 15 100 32 97 37 -3 5 5 8 18 6 29 -3 136 21 143 32 3 5 12 7 20 3 8
-3 15 0 15 7 0 7 7 10 15 6 8 -3 70 12 137 33 68 21 136 42 151 45 19 4 25 11
20 19 -4 7 -8 14 -9 17 -4 23 -21 43 -44 55 -24 12 -35 12 -81 0 -51 -13 -95
-23 -329 -75 -52 -12 -131 -30 -175 -40 -153 -35 -155 -35 -155 -5 0 25 -2 26
-33 19 -17 -4 -50 -8 -72 -9 -33 -2 -41 1 -41 16 0 16 2 17 16 4 27 -25 31
-17 9 19 -13 22 -16 37 -9 41 5 3 10 0 10 -7 0 -7 13 -14 30 -15 17 -1 30 2
30 6 0 5 9 11 20 14 11 3 20 1 20 -4 0 -5 8 -9 18 -10 13 0 12 -3 -5 -11 -23
-11 -31 -28 -13 -28 6 0 10 5 10 11 0 7 10 9 25 7 13 -3 24 -2 23 1 -3 28 4
58 15 60 6 1 35 3 62 5 63 4 115 15 115 26 0 4 17 11 38 14 20 4 45 10 56 13
12 3 16 1 12 -6 -5 -7 -1 -9 8 -5 9 3 16 11 16 16 0 7 18 8 48 4 26 -3 42 -3
35 2 -6 4 15 7 47 7 32 0 61 3 64 6 8 8 -23 69 -35 69 -5 0 -9 5 -9 10 0 6 6
10 14 10 9 0 13 8 10 23 -3 16 -1 15 7 -5 14 -37 27 -35 21 3 -4 28 -8 30 -33
27 -19 -3 -29 0 -29 8 0 28 83 32 169 9 36 -9 99 -14 185 -13 127 2 130 2 81
15 l-50 12 55 -5 c53 -4 54 -4 30 10 -23 14 -19 15 61 9 70 -5 92 -2 122 12
20 9 37 21 37 26 0 5 7 6 15 3 8 -4 15 -1 15 6 0 6 5 8 10 5 6 -3 10 -1 10 5
0 6 4 9 8 6 5 -3 21 2 36 9 16 8 31 13 35 11 5 -3 69 6 90 13 2 0 1 -6 -3 -14z
m-1399 -41 c-3 -3 -12 -4 -19 -1 -8 3 -5 6 6 6 11 1 17 -2 13 -5z m1974 -8 c0
-3 6 -21 14 -40 14 -33 13 -35 -5 -41 -11 -4 -20 -11 -20 -16 0 -6 8 -6 20 1
11 6 20 7 20 3 0 -4 3 -18 6 -29 5 -17 -1 -24 -27 -33 -39 -13 -39 -13 -39 -1
0 6 6 10 13 10 7 0 22 7 33 16 18 15 17 15 -12 10 -28 -4 -32 -2 -36 19 -4 18
0 26 13 30 11 4 19 11 19 16 0 6 -8 8 -18 5 -15 -5 -19 -1 -19 23 0 19 6 31
16 34 17 4 23 2 22 -7z m197 -43 c-16 -2 -40 -2 -55 0 -16 2 -3 4 27 4 30 0
43 -2 28 -4z m42 -35 c0 -16 -3 -19 -11 -11 -6 6 -8 16 -5 22 11 17 16 13 16
-11z m-637 -25 c-7 -2 -21 -2 -30 0 -10 3 -4 5 12 5 17 0 24 -2 18 -5z m-273
-18 c0 -8 -4 -15 -8 -15 -5 0 -9 7 -9 15 0 8 4 15 9 15 4 0 8 -7 8 -15z m126
0 c-3 -20 -16 -31 -16 -13 0 13 8 28 16 28 1 0 1 -7 0 -15z m-32 -14 c7 -11
-22 -23 -36 -15 -6 4 -5 10 3 15 18 11 26 11 33 0z m-73 -15 c1 -6 1 -14 0
-18 0 -5 3 -8 9 -8 5 0 7 -7 4 -15 -4 -8 -10 -15 -16 -15 -5 0 -6 5 -3 10 3 6
-3 10 -14 10 -16 0 -41 25 -41 42 0 9 60 3 61 -6z m244 4 c-3 -5 -21 -9 -38
-9 l-32 2 35 7 c19 4 36 8 38 9 2 0 0 -3 -3 -9z m670 -30 c3 -5 1 -10 -4 -10
-6 0 -11 5 -11 10 0 6 2 10 4 10 3 0 8 -4 11 -10z m-1032 -25 c-12 -32 -23
-14 -14 23 1 2 5 1 11 -3 5 -3 7 -12 3 -20z m396 21 c-12 -10 -60 -16 -54 -6
3 5 18 10 32 10 15 0 24 -2 22 -4z m598 -13 c24 -3 43 -10 43 -14 0 -12 -9
-11 -69 3 -28 6 -51 16 -51 21 0 5 8 6 17 3 9 -4 36 -10 60 -13z m-1822 -3
c-3 -5 -12 -10 -18 -10 -7 0 -6 4 3 10 19 12 23 12 15 0z m802 -7 c-4 -3 -2
-12 4 -19 8 -9 5 -11 -10 -7 -28 7 -26 33 2 33 6 0 7 -3 4 -7z m103 -8 c10
-13 9 -15 -11 -14 -13 0 -18 3 -11 6 6 2 10 9 6 14 -9 15 2 10 16 -6z m-957
-2 c-7 -2 -19 -2 -25 0 -7 3 -2 5 12 5 14 0 19 -2 13 -5z m1161 -8 c3 -8 1
-15 -4 -15 -6 0 -10 7 -10 15 0 8 2 15 4 15 2 0 6 -7 10 -15z m486 -5 c-11 -7
-11 -10 -2 -10 7 0 15 7 18 15 9 23 33 19 27 -5 -4 -14 -14 -20 -34 -20 -16 0
-29 4 -29 8 0 12 23 33 29 26 3 -3 -1 -9 -9 -14z m-2292 -41 c2 -5 12 -9 22
-9 28 0 70 -22 63 -33 -3 -5 1 -14 8 -19 10 -7 8 -8 -7 -3 -14 4 -24 0 -27
-10 -4 -8 -3 -14 1 -14 25 4 42 -3 42 -19 0 -10 6 -24 13 -31 10 -11 9 -12 -1
-6 -8 4 -19 0 -27 -11 -10 -14 -14 -15 -15 -5 0 11 -5 10 -20 -4 -19 -17 -20
-17 -28 5 -7 20 -10 21 -15 7 -4 -10 -1 -17 6 -18 7 0 3 -4 -8 -8 -24 -10 -48
6 -40 27 4 11 2 12 -8 4 -19 -16 -66 54 -47 71 10 10 12 8 6 -8 -5 -14 1 -11
18 10 14 17 30 36 36 43 8 8 8 18 1 30 -6 9 -11 11 -11 5 0 -7 -7 -13 -15 -13
-15 0 -20 12 -9 23 8 8 58 -2 62 -14z m439 15 c-3 -3 -12 -4 -19 -1 -8 3 -5 6
6 6 11 1 17 -2 13 -5z m1087 -9 c-4 -8 -14 -15 -23 -15 -14 1 -13 3 3 15 25
19 27 19 20 0z m-1219 -15 c3 -5 -4 -6 -15 -3 -11 3 -22 9 -25 13 -3 5 4 6 15
3 11 -3 22 -9 25 -13z m39 -4 c-3 -9 -10 -16 -16 -16 -5 0 -6 -4 -3 -10 3 -5
0 -7 -9 -4 -12 5 -11 10 6 30 23 26 32 26 22 0z m1149 -30 c-4 -22 0 -26 33
-34 22 -5 51 -10 66 -10 15 -1 31 -3 35 -4 20 -5 113 14 108 22 -4 6 -1 10 5
10 7 0 9 -17 6 -50 -3 -38 -1 -50 9 -50 9 0 12 -6 8 -16 -4 -11 -8 -12 -13 -4
-10 15 -24 -17 -21 -48 1 -12 -4 -25 -13 -28 -9 -3 -16 -17 -16 -30 0 -26 -11
-30 -40 -14 -14 7 -23 6 -33 -5 -8 -7 -28 -17 -43 -20 -20 -3 -23 -3 -11 3 17
7 17 9 3 21 -8 7 -20 10 -26 6 -5 -3 -10 1 -10 9 0 9 -5 16 -11 16 -8 0 -8 4
0 14 9 11 7 15 -7 18 -12 3 -18 16 -20 39 -1 19 -8 52 -13 74 -6 22 -11 50
-11 63 0 12 -4 22 -9 22 -5 0 -9 5 -9 10 0 6 8 10 19 10 14 0 17 -6 14 -24z
m77 4 c0 -5 -8 -8 -17 -8 -10 0 -26 -3 -36 -7 -13 -5 -16 -3 -11 8 9 24 64 30
64 7z m118 -10 c2 -14 -1 -20 -5 -14 -9 12 -44 28 -55 26 -5 -1 -8 3 -8 9 0 6
14 9 33 7 26 -2 33 -8 35 -28z m-1545 8 c-4 -7 -8 -16 -8 -20 0 -18 -15 -18
-15 0 0 17 8 26 28 31 2 1 0 -5 -5 -11z m2440 -38 c-7 -28 -13 -25 -13 6 0 14
4 23 9 20 5 -3 7 -15 4 -26z m-2739 -26 c3 -8 2 -12 -4 -9 -6 3 -10 10 -10 16
0 14 7 11 14 -7z m303 -14 c-1 -23 -17 -28 -17 -6 0 8 -6 17 -12 19 -7 3 -3 6
9 6 16 1 21 -4 20 -19z m-335 -39 c-2 -16 1 -32 8 -36 17 -10 31 16 18 32 -21
25 -1 23 20 -2 l22 -25 -32 -20 c-35 -21 -88 -27 -88 -10 0 6 4 10 9 10 5 0 7
9 4 20 -4 16 20 50 43 60 0 0 -1 -13 -4 -29z m2938 -27 c0 -2 -7 -4 -15 -4 -8
0 -15 4 -15 10 0 5 7 7 15 4 8 -4 15 -8 15 -10z m-2444 -12 c-3 -2 -1 -14 4
-26 6 -17 5 -23 -5 -23 -8 0 -12 4 -9 8 3 5 0 17 -5 27 -8 14 -6 19 5 19 7 0
12 -2 10 -5z m-34 -31 c-7 -4 -14 -18 -15 -29 -1 -12 -5 -22 -10 -22 -5 0 -5
10 -2 22 6 17 4 20 -11 14 -23 -9 -11 3 18 19 25 12 41 9 20 -4z m-299 -35
c-10 -12 -24 -23 -32 -22 -8 1 -22 -12 -30 -29 -9 -16 -17 -32 -18 -34 -2 -2
-6 -2 -9 1 -16 17 57 105 76 93 6 -4 10 -1 10 4 0 6 5 11 10 11 6 0 3 -11 -7
-24z m172 4 c-6 -10 29 -50 45 -50 6 0 10 -4 10 -9 0 -5 -10 -7 -22 -3 -17 4
-20 2 -15 -11 4 -11 1 -17 -8 -17 -8 0 -15 4 -15 10 0 5 -7 7 -15 3 -13 -4
-15 2 -13 31 1 21 9 41 18 46 20 12 22 12 15 0z m1108 -7 c-7 -2 -13 -14 -13
-25 0 -18 5 -20 33 -15 17 3 26 3 20 0 -21 -8 -14 -26 8 -20 13 3 19 1 16 -6
-2 -7 -14 -13 -28 -15 -13 -2 -37 -9 -54 -16 -90 -41 -113 -44 -111 -13 1 14
17 26 54 41 45 18 52 24 47 43 -5 20 6 31 30 31 6 0 4 -2 -2 -5z m586 -4 c-17
-11 -39 -12 -39 -1 0 4 12 8 27 9 19 1 22 -1 12 -8z m-449 -10 c0 -5 4 -8 8
-5 4 2 13 1 20 -3 9 -5 5 -11 -13 -19 -14 -6 -25 -8 -25 -3 0 5 -3 16 -6 25
-3 9 -1 16 5 16 6 0 11 -5 11 -11z m-1573 -32 c-2 -7 6 -18 19 -24 18 -8 24
-8 24 0 0 7 4 6 9 -3 14 -21 2 -33 -17 -18 -10 8 -29 20 -45 28 -20 10 -24 16
-15 22 19 12 31 10 25 -5z m1824 -14 c-12 -20 -14 -14 -5 12 4 9 9 14 11 11 3
-2 0 -13 -6 -23z m-1705 -17 c18 -19 18 -27 0 -20 -14 5 -31 34 -20 34 3 0 12
-6 20 -14z m291 -8 c-3 -8 -6 -5 -6 6 -1 11 2 17 5 13 3 -3 4 -12 1 -19z
m-454 -13 c-3 -8 -9 -15 -14 -15 -10 0 -12 24 -3 33 11 11 24 -3 17 -18z m277
1 c0 -3 -4 -8 -10 -11 -5 -3 -10 -1 -10 4 0 6 5 11 10 11 6 0 10 -2 10 -4z
m-245 -24 c-3 -3 -11 0 -18 7 -9 10 -8 11 6 5 10 -3 15 -9 12 -12z m2147 -9
c-6 -3 -9 -10 -5 -15 4 -8 -2 -9 -18 -5 -13 4 -35 7 -48 7 -36 0 -18 12 26 17
20 2 39 6 42 8 2 3 7 2 10 -1 3 -4 0 -9 -7 -11z m68 -13 c8 -5 11 -10 5 -10
-5 0 -17 5 -25 10 -8 5 -10 10 -5 10 6 0 17 -5 25 -10z m-2240 -32 c0 -16 -20
-7 -30 12 -10 19 -10 20 9 8 12 -7 21 -16 21 -20z m250 18 c0 -2 -7 -7 -16
-10 -8 -3 -12 -2 -9 4 6 10 25 14 25 6z m2020 -6 c0 -5 -8 -10 -17 -10 -15 0
-16 2 -3 10 19 12 20 12 20 0z m-2040 -55 c0 -8 -6 -15 -14 -15 -17 0 -28 14
-19 24 12 12 33 6 33 -9z m830 -19 c0 -11 -19 -15 -25 -6 -3 5 1 10 9 10 9 0
16 -2 16 -4z m-50 -26 c0 -5 -5 -10 -11 -10 -5 0 -7 5 -4 10 3 6 8 10 11 10 2
0 4 -4 4 -10z m-625 -30 c3 -5 -1 -10 -10 -10 -9 0 -13 5 -10 10 3 6 8 10 10
10 2 0 7 -4 10 -10z"/>
<path d="M2878 2533 c-10 -3 -18 -8 -18 -13 0 -15 25 -18 37 -4 15 15 6 22
-19 17z"/>
<path d="M2950 2515 c0 -8 9 -15 20 -15 24 0 27 15 4 24 -22 9 -24 8 -24 -9z"/>
<path d="M2960 2435 c-8 -9 -8 -15 -2 -15 12 0 26 19 19 26 -2 2 -10 -2 -17
-11z"/>
<path d="M2280 2259 c0 -5 5 -7 10 -4 6 3 10 8 10 11 0 2 -4 4 -10 4 -5 0 -10
-5 -10 -11z"/>
<path d="M2330 2151 c0 -10 19 -25 25 -20 1 2 -3 10 -11 17 -8 7 -14 8 -14 3z"/>
<path d="M1260 1980 c0 -5 7 -10 15 -10 8 0 15 5 15 10 0 6 -7 10 -15 10 -8 0
-15 -4 -15 -10z"/>
<path d="M356 1823 c-4 -5 -12 -8 -18 -8 -6 0 -12 -8 -14 -17 -2 -20 31 -54
40 -40 3 5 -1 15 -9 22 -14 11 -14 15 1 31 16 18 16 27 0 12z"/>
<path d="M250 1785 c-7 -8 -9 -15 -5 -15 4 0 1 -8 -6 -17 -13 -17 -13 -17 7 0
11 9 21 24 21 32 0 19 -2 19 -17 0z"/>
<path d="M1420 1679 c0 -5 5 -7 10 -4 6 3 10 8 10 11 0 2 -4 4 -10 4 -5 0 -10
-5 -10 -11z"/>
<path d="M2285 1050 c-3 -5 -1 -10 4 -10 6 0 11 5 11 10 0 6 -2 10 -4 10 -3 0
-8 -4 -11 -10z"/>
<path d="M2098 1023 c7 -3 16 -2 19 1 4 3 -2 6 -13 5 -11 0 -14 -3 -6 -6z"/>
<path d="M1942 995 c12 -27 28 -34 28 -12 0 14 -20 37 -32 37 -4 0 -2 -11 4
-25z"/>
<path d="M1824 999 c-3 -6 2 -18 12 -27 17 -16 17 -16 5 0 -10 14 -9 17 6 20
17 3 17 4 1 10 -10 4 -20 2 -24 -3z"/>
<path d="M1163 920 c-1 -11 2 -22 8 -25 5 -4 9 5 9 19 0 30 -15 35 -17 6z"/>
<path d="M1438 933 c7 -3 16 -2 19 1 4 3 -2 6 -13 5 -11 0 -14 -3 -6 -6z"/>
<path d="M1478 923 c6 -2 18 -2 25 0 6 3 1 5 -13 5 -14 0 -19 -2 -12 -5z"/>
<path d="M1296 893 c9 -36 14 -42 14 -15 0 12 0 25 1 29 0 4 -5 9 -11 11 -7 3
-9 -5 -4 -25z"/>
<path d="M1201 894 c0 -11 3 -14 6 -6 3 7 2 16 -1 19 -3 4 -6 -2 -5 -13z"/>
<path d="M1326 895 c-6 -18 2 -45 15 -45 5 0 9 14 9 30 0 32 -14 40 -24 15z"/>
<path d="M1360 871 c0 -21 6 -32 21 -36 24 -8 36 1 41 30 2 14 -2 20 -14 19
-10 -1 -18 2 -18 7 0 5 -7 9 -15 9 -10 0 -15 -10 -15 -29z"/>
<path d="M1810 868 c0 -4 4 -8 9 -8 6 0 12 4 15 8 3 5 -1 9 -9 9 -8 0 -15 -4
-15 -9z"/>
<path d="M1478 863 c7 -3 16 -2 19 1 4 3 -2 6 -13 5 -11 0 -14 -3 -6 -6z"/>
<path d="M1528 853 c7 -3 16 -2 19 1 4 3 -2 6 -13 5 -11 0 -14 -3 -6 -6z"/>
<path d="M1530 829 c0 -5 5 -7 10 -4 6 3 10 8 10 11 0 2 -4 4 -10 4 -5 0 -10
-5 -10 -11z"/>
<path d="M1374 809 c13 -8 15 -13 6 -19 -8 -5 -7 -9 4 -13 12 -5 16 0 16 18 0
19 -5 25 -22 25 -22 -1 -22 -1 -4 -11z"/>
<path d="M1420 785 c0 -8 4 -15 10 -15 5 0 7 7 4 15 -4 8 -8 15 -10 15 -2 0
-4 -7 -4 -15z"/>
<path d="M1465 760 c27 -12 43 -12 25 0 -8 5 -22 9 -30 9 -10 0 -8 -3 5 -9z"/>
<path d="M1320 756 c0 -2 7 -7 16 -10 8 -3 12 -2 9 4 -6 10 -25 14 -25 6z"/>
<path d="M1404 749 c-3 -6 -1 -16 5 -22 8 -8 11 -5 11 11 0 24 -5 28 -16 11z"/>
<path d="M1581 613 c-26 -22 -15 -44 17 -32 13 5 22 17 22 29 0 25 -11 25 -39
3z"/>
<path d="M295 680 c3 -5 8 -10 11 -10 2 0 4 5 4 10 0 6 -5 10 -11 10 -5 0 -7
-4 -4 -10z"/>
<path d="M250 660 c14 -26 27 -32 33 -17 2 7 -6 18 -19 24 -21 10 -23 9 -14
-7z"/>
<path d="M345 650 c-3 -5 -1 -10 4 -10 6 0 11 5 11 10 0 6 -2 10 -4 10 -3 0
-8 -4 -11 -10z"/>
<path d="M1820 596 c0 -2 8 -10 18 -17 15 -13 16 -12 3 4 -13 16 -21 21 -21
13z"/>
<path d="M1860 520 c0 -5 5 -10 11 -10 5 0 7 5 4 10 -3 6 -8 10 -11 10 -2 0
-4 -4 -4 -10z"/>
<path d="M1475 410 c-22 -11 -29 -17 -16 -14 38 10 88 33 71 33 -8 0 -33 -8
-55 -19z"/>
<path d="M3125 3139 c-4 -6 -5 -13 -2 -16 7 -7 27 6 27 18 0 12 -17 12 -25 -2z"/>
<path d="M6 2974 c-4 -9 -4 -19 -2 -21 8 -8 26 8 26 23 0 19 -16 18 -24 -2z"/>
<path d="M1527 2943 c-12 -11 -8 -23 8 -23 8 0 15 7 15 15 0 16 -12 20 -23 8z"/>
<path d="M1620 2924 c0 -8 5 -12 10 -9 6 3 10 10 10 16 0 5 -4 9 -10 9 -5 0
-10 -7 -10 -16z"/>
<path d="M1805 2920 c-3 -5 -1 -10 4 -10 6 0 11 5 11 10 0 6 -2 10 -4 10 -3 0
-8 -4 -11 -10z"/>
<path d="M1424 2818 c-4 -7 -4 -10 1 -6 4 4 15 2 23 -5 12 -10 14 -9 11 2 -7
20 -26 25 -35 9z"/>
<path d="M1345 2700 c-3 -5 -1 -10 4 -10 6 0 11 5 11 10 0 6 -2 10 -4 10 -3 0
-8 -4 -11 -10z"/>
<path d="M2025 2470 c-3 -6 1 -7 9 -4 18 7 21 14 7 14 -6 0 -13 -4 -16 -10z"/>
<path d="M1860 2459 c0 -5 5 -7 10 -4 6 3 10 8 10 11 0 2 -4 4 -10 4 -5 0 -10
-5 -10 -11z"/>
<path d="M2077 2378 c-21 -11 -43 -32 -48 -45 -5 -15 -14 -21 -21 -17 -6 4 -8
3 -5 -3 4 -6 -1 -17 -10 -24 -15 -12 -16 -12 -11 3 8 21 -19 33 -38 17 -20
-17 -17 -28 10 -40 14 -7 22 -17 19 -25 -3 -8 0 -14 6 -14 6 0 11 5 11 12 0 7
12 29 26 50 23 33 28 35 41 23 8 -8 17 -15 21 -16 4 0 18 -2 31 -5 18 -3 22
-1 17 12 -3 8 -6 18 -6 21 0 3 -7 0 -15 -7 -13 -10 -15 -9 -15 9 0 11 0 24 -1
28 0 4 4 9 10 11 7 2 8 -4 4 -15 -3 -10 -2 -15 3 -10 5 5 9 20 9 33 1 13 1 24
0 23 0 0 -17 -10 -38 -21z"/>
<path d="M2060 2280 c0 -5 -6 -10 -13 -10 -8 0 -19 -11 -25 -25 -17 -38 -15
-47 7 -35 11 5 27 10 36 10 20 0 39 19 43 43 4 24 -13 21 -31 -5 l-15 -23 5
28 c3 15 3 27 -1 27 -3 0 -6 -4 -6 -10z"/>
<path d="M2780 2260 c0 -5 5 -10 10 -10 6 0 10 5 10 10 0 6 -4 10 -10 10 -5 0
-10 -4 -10 -10z"/>
<path d="M1940 2241 c0 -6 -7 -11 -15 -11 -9 0 -15 -9 -15 -21 0 -18 2 -19 15
-9 14 12 19 7 16 -13 -1 -5 3 -6 9 -2 6 4 6 -4 -2 -19 -6 -14 -14 -26 -18 -26
-11 0 -22 -39 -25 -88 -3 -41 -2 -43 21 -38 17 5 24 2 24 -9 0 -20 16 -19 24
1 3 8 10 12 16 9 5 -3 10 1 10 10 0 9 6 15 13 14 26 -3 57 1 57 9 0 4 -12 8
-26 9 -14 0 -30 5 -35 10 -5 5 5 7 25 5 18 -2 37 1 40 7 4 6 3 11 -2 11 -5 0
-7 12 -4 28 2 15 1 24 -3 20 -4 -4 -14 -1 -22 7 -8 8 -19 15 -24 15 -16 0 -10
-18 9 -25 15 -6 14 -8 -6 -16 -13 -5 -28 -7 -33 -3 -13 7 -11 38 3 52 9 9 8
13 -5 17 -10 4 -13 13 -9 23 5 14 3 15 -10 5 -18 -15 -32 -5 -17 13 7 8 7 14
-1 19 -5 3 -10 1 -10 -4z"/>
<path d="M2030 2169 c0 -5 5 -7 10 -4 6 3 10 8 10 11 0 2 -4 4 -10 4 -5 0 -10
-5 -10 -11z"/>
<path d="M1525 2080 c4 -6 11 -8 16 -5 14 9 11 15 -7 15 -8 0 -12 -5 -9 -10z"/>
<path d="M1626 1971 c-3 -5 1 -11 9 -15 8 -3 15 -1 15 4 0 13 -18 22 -24 11z"/>
<path d="M2920 1924 c0 -14 3 -14 15 -4 8 7 15 14 15 16 0 2 -7 4 -15 4 -8 0
-15 -7 -15 -16z"/>
<path d="M3105 1840 c3 -5 12 -7 20 -3 21 7 19 13 -6 13 -11 0 -18 -4 -14 -10z"/>
<path d="M2690 1815 c0 -8 5 -15 10 -15 6 0 10 7 10 15 0 8 -4 15 -10 15 -5 0
-10 -7 -10 -15z"/>
<path d="M2770 1820 c0 -5 9 -10 21 -10 11 0 17 5 14 10 -3 6 -13 10 -21 10
-8 0 -14 -4 -14 -10z"/>
<path d="M2827 1824 c-8 -8 1 -24 14 -24 5 0 9 7 9 15 0 15 -12 20 -23 9z"/>
<path d="M3080 1820 c0 -9 59 -25 66 -18 2 3 -12 9 -31 15 -19 6 -35 7 -35 3z"/>
<path d="M2740 1810 c0 -5 5 -10 10 -10 6 0 10 5 10 10 0 6 -4 10 -10 10 -5 0
-10 -4 -10 -10z"/>
<path d="M2192 1799 c2 -7 10 -15 17 -17 8 -3 12 1 9 9 -2 7 -10 15 -17 17 -8
3 -12 -1 -9 -9z"/>
<path d="M2232 1700 c-1 -22 3 -40 8 -40 12 0 13 50 2 68 -6 8 -9 -2 -10 -28z"/>
<path d="M2380 1725 c0 -8 2 -15 4 -15 2 0 6 7 10 15 3 8 1 15 -4 15 -6 0 -10
-7 -10 -15z"/>
<path d="M2403 1695 c-24 -10 -33 -31 -9 -22 7 3 19 0 25 -6 15 -15 23 -4 14
19 -7 16 -12 17 -30 9z"/>
<path d="M2212 1675 c0 -16 2 -22 5 -12 2 9 2 23 0 30 -3 6 -5 -1 -5 -18z"/>
<path d="M2482 1680 c0 -14 2 -19 5 -12 2 6 2 18 0 25 -3 6 -5 1 -5 -13z"/>
<path d="M2355 1681 c-3 -5 -1 -12 5 -16 5 -3 10 1 10 9 0 18 -6 21 -15 7z"/>
<path d="M2150 1670 c0 -5 5 -10 11 -10 5 0 7 5 4 10 -3 6 -8 10 -11 10 -2 0
-4 -4 -4 -10z"/>
<path d="M2291 1664 c0 -11 3 -14 6 -6 3 7 2 16 -1 19 -3 4 -6 -2 -5 -13z"/>
<path d="M2071 1654 c0 -11 3 -14 6 -6 3 7 2 16 -1 19 -3 4 -6 -2 -5 -13z"/>
<path d="M2320 1655 c-2 -11 -2 -23 -1 -27 0 -4 -9 -5 -20 -3 -18 4 -20 1 -15
-18 3 -12 6 -25 6 -29 0 -13 40 -9 40 3 0 6 -7 8 -16 5 -10 -4 -14 -1 -11 6 2
7 12 12 21 12 17 -2 20 19 6 51 l-9 20 -1 -20z"/>
<path d="M2248 1640 c-10 -9 -18 -24 -18 -33 0 -10 -8 -17 -17 -18 -23 -1 23
-17 52 -18 18 0 17 1 -4 13 -22 12 -22 14 -7 23 10 6 16 18 14 30 -3 19 -4 19
-20 3z"/>
<path d="M2790 1638 c0 -19 -6 -27 -25 -32 -19 -5 -24 -12 -21 -29 1 -12 6
-21 9 -19 4 1 19 2 33 2 25 0 26 2 19 36 -5 28 -3 34 7 28 9 -6 9 -2 -2 12 -8
10 -16 21 -17 23 -2 2 -3 -7 -3 -21z m5 -58 c3 -5 2 -10 -4 -10 -5 0 -13 5
-16 10 -3 6 -2 10 4 10 5 0 13 -4 16 -10z"/>
<path d="M2872 1640 c0 -14 2 -19 5 -12 2 6 2 18 0 25 -3 6 -5 1 -5 -13z"/>
<path d="M2512 1625 c0 -16 2 -22 5 -12 2 9 2 23 0 30 -3 6 -5 -1 -5 -18z"/>
<path d="M2173 1625 c-3 -9 -3 -18 -1 -21 3 -3 8 4 11 16 6 23 -1 27 -10 5z"/>
<path d="M2041 1614 c0 -11 3 -14 6 -6 3 7 2 16 -1 19 -3 4 -6 -2 -5 -13z"/>
<path d="M2357 1613 c-4 -3 -7 -13 -7 -22 1 -13 3 -13 11 2 11 19 8 33 -4 20z"/>
<path d="M2380 1602 c0 -11 5 -24 10 -27 6 -4 9 2 7 14 -4 29 -17 39 -17 13z"/>
<path d="M2547 1613 c-4 -3 -7 -18 -7 -31 0 -32 15 -19 15 14 1 27 1 27 -8 17z"/>
<path d="M2829 1605 c-3 -6 -3 -21 1 -35 3 -14 8 -20 11 -15 3 6 3 21 -1 35
-3 14 -8 20 -11 15z"/>
<path d="M2860 1586 c0 -36 17 -41 18 -6 0 17 -4 30 -9 30 -5 0 -9 -11 -9 -24z"/>
<path d="M3010 1576 c0 -14 4 -27 8 -30 5 -3 6 8 4 25 -5 35 -12 38 -12 5z"/>
<path d="M2410 1580 c0 -5 5 -10 10 -10 6 0 10 5 10 10 0 6 -4 10 -10 10 -5 0
-10 -4 -10 -10z"/>
<path d="M2440 1580 c0 -5 5 -10 10 -10 6 0 10 5 10 10 0 6 -4 10 -10 10 -5 0
-10 -4 -10 -10z"/>
<path d="M2010 1520 c0 -5 5 -10 11 -10 5 0 7 5 4 10 -3 6 -8 10 -11 10 -2 0
-4 -4 -4 -10z"/>
<path d="M2011 1442 c-1 -40 3 -61 9 -57 12 7 12 72 0 100 -6 14 -9 1 -9 -43z"/>
<path d="M2140 1484 c0 -9 -8 -23 -17 -30 -16 -12 -16 -12 5 -7 15 4 22 13 22
29 0 13 -2 24 -5 24 -3 0 -5 -7 -5 -16z"/>
<path d="M2065 1480 c-3 -5 -1 -10 4 -10 6 0 11 5 11 10 0 6 -2 10 -4 10 -3 0
-8 -4 -11 -10z"/>
<path d="M1980 1451 c0 -12 5 -21 10 -21 6 0 10 6 10 14 0 8 -4 18 -10 21 -5
3 -10 -3 -10 -14z"/>
<path d="M2038 1425 c-2 -25 0 -45 4 -45 5 0 8 20 8 45 0 25 -2 45 -4 45 -2 0
-6 -20 -8 -45z"/>
<path d="M2090 1460 c0 -5 -7 -7 -16 -3 -12 4 -15 0 -12 -18 1 -13 11 -25 21
-27 13 -3 17 3 17 27 0 17 -2 31 -5 31 -3 0 -5 -4 -5 -10z"/>
<path d="M2110 1420 c0 -5 5 -10 10 -10 6 0 10 5 10 10 0 6 -4 10 -10 10 -5 0
-10 -4 -10 -10z"/>
<path d="M2070 1389 c0 -5 4 -8 9 -5 5 4 12 0 14 -6 3 -8 6 -6 6 5 1 9 -6 17
-14 17 -8 0 -15 -5 -15 -11z"/>
<path d="M948 1143 c12 -2 32 -2 45 0 12 2 2 4 -23 4 -25 0 -35 -2 -22 -4z"/>
<path d="M47 1064 c3 -8 -6 -14 -24 -17 -18 -3 -11 -5 20 -6 52 -1 60 8 23 25
-19 9 -23 9 -19 -2z"/>
<path d="M833 1043 c9 -2 23 -2 30 0 6 3 -1 5 -18 5 -16 0 -22 -2 -12 -5z"/>
<path d="M918 1043 c12 -2 30 -2 40 0 9 3 -1 5 -23 4 -22 0 -30 -2 -17 -4z"/>
<path d="M1040 1030 c0 -5 9 -10 21 -10 11 0 17 5 14 10 -3 6 -13 10 -21 10
-8 0 -14 -4 -14 -10z"/>
<path d="M883 1013 c15 -2 37 -2 50 0 12 2 0 4 -28 4 -27 0 -38 -2 -22 -4z"/>
<path d="M578 993 c7 -3 16 -2 19 1 4 3 -2 6 -13 5 -11 0 -14 -3 -6 -6z"/>
<path d="M285 901 c-3 -5 -2 -12 3 -15 5 -3 9 1 9 9 0 17 -3 19 -12 6z"/>
<path d="M306 864 c-18 -18 -20 -24 -6 -24 5 0 14 9 20 20 13 24 7 26 -14 4z"/>
<path d="M320 836 c0 -2 7 -7 16 -10 8 -3 12 -2 9 4 -6 10 -25 14 -25 6z"/>
<path d="M64 798 c-4 -5 -1 -14 6 -18 8 -5 11 -19 7 -39 -5 -24 -3 -31 9 -31
9 0 12 5 8 12 -5 7 0 9 14 6 15 -4 19 -2 15 8 -3 8 -9 12 -13 9 -4 -3 -11 2
-14 11 -8 22 -8 26 4 19 5 -3 7 0 4 9 -7 19 -32 28 -40 14z"/>
<path d="M34 711 c0 -11 3 -18 7 -15 4 2 9 -4 11 -13 2 -10 6 -14 10 -8 4 6
-1 21 -11 33 -16 21 -17 22 -17 3z"/>
<path d="M2340 410 c6 -11 15 -20 20 -20 6 0 2 9 -7 20 -10 11 -19 20 -21 20
-1 0 2 -9 8 -20z"/>
<path d="M2404 414 c3 -8 6 -18 6 -20 0 -2 11 -2 25 2 16 4 25 2 25 -6 0 -8 6
-9 18 -5 9 4 28 7 42 6 20 -1 22 1 10 9 -8 5 -29 10 -47 10 -17 0 -44 5 -58
10 -23 9 -26 8 -21 -6z"/>
<path d="M2472 373 c-18 -7 -4 -23 21 -23 18 0 19 -2 7 -10 -13 -8 -13 -10 2
-10 21 0 68 21 68 30 0 4 -6 7 -12 7 -7 0 -26 3 -43 6 -16 3 -36 3 -43 0z"/>
<path d="M2418 363 c7 -3 16 -2 19 1 4 3 -2 6 -13 5 -11 0 -14 -3 -6 -6z"/>
<path d="M180 156 c0 -2 7 -9 15 -16 9 -7 15 -8 15 -2 0 5 -7 12 -15 16 -8 3
-15 4 -15 2z"/>
<path d="M280 120 c0 -5 5 -10 10 -10 6 0 10 5 10 10 0 6 -4 10 -10 10 -5 0
-10 -4 -10 -10z"/>
<path d="M221 63 c10 -11 10 -14 2 -9 -17 10 -16 -4 2 -28 14 -19 15 -18 15
17 0 27 -4 37 -16 37 -14 0 -15 -2 -3 -17z"/>
<path d="M255 19 c-9 -14 -2 -20 14 -10 8 6 9 11 3 15 -6 3 -14 1 -17 -5z"/>
</g>
</svg>
